<svg version="1.1" xmlns="http://www.w3.org/2000/svg" xmlns:xlink="http://www.w3.org/1999/xlink" width="690" height="4659"><defs/><g><g/><g/><g/><g/><g/><g/><g/><g/><g/><g/><g/><g/><g/><g/><g/><g/><g/><g/><g/><g/><g/><g/><g/><g/><g/><g/><g/><g/><g/><g/><g/><g/><g/><g/><g/><g/><g/><g/><g/><g/><g/><g/><g/><g/><g/><g/><g/><g/><g/><g/><g/><g/><g/><g/><g/><g/><g/><g/><g/><g/><g/><g/><g/><g/><g/><g/><g/><g/><g/><g/><g/><g/><g><rect fill="white" stroke="none" x="0" y="0" width="690" height="4659"/></g><g><text fill="black" stroke="none" font-family="sans-serif" font-size="16.5pt" font-style="normal" font-weight="normal" text-decoration="normal" x="109.87137988744138" y="24.50280495" text-anchor="start" dominant-baseline="alphabetic">Helios Auto Start (https://sequencediagram.org/)</text></g><g/><g><path fill="none" stroke="black" paint-order="fill stroke markers" d=" M 196.47725314421874 95.887643371 L 196.47725314421874 4659.943445390998" stroke-miterlimit="10" stroke-width="1.3612669416666667" stroke-dasharray="12.565541,5.445067766666667"/><path fill="none" stroke="black" paint-order="fill stroke markers" d=" M 452.75083671231766 95.887643371 L 452.75083671231766 4659.943445390998" stroke-miterlimit="10" stroke-width="1.3612669416666667" stroke-dasharray="12.565541,5.445067766666667"/></g><g><path fill="none" stroke="none"/><g><path fill="white" stroke="black" paint-order="fill stroke markers" d=" M 158.3849204787578 51.782594461 L 234.5695858096797 51.782594461 L 234.5695858096797 95.887643371 L 158.3849204787578 95.887643371 L 158.3849204787578 51.782594461 Z" stroke-miterlimit="10" stroke-width="2.613632528" stroke-dasharray=""/></g><g><g/><text fill="black" stroke="none" font-family="sans-serif" font-size="11pt" font-style="normal" font-weight="normal" text-decoration="normal" x="176.1086160592578" y="79.55244007099999" text-anchor="start" dominant-baseline="alphabetic">Helios</text></g><path fill="none" stroke="none"/><g><path fill="white" stroke="black" paint-order="fill stroke markers" d=" M 413.84247163718874 51.782594461 L 491.6592017874466 51.782594461 L 491.6592017874466 95.887643371 L 413.84247163718874 95.887643371 L 413.84247163718874 51.782594461 Z" stroke-miterlimit="10" stroke-width="2.613632528" stroke-dasharray=""/></g><g><g/><text fill="black" stroke="none" font-family="sans-serif" font-size="11pt" font-style="normal" font-weight="normal" text-decoration="normal" x="431.56616721768876" y="79.55244007099999" text-anchor="start" dominant-baseline="alphabetic">Export</text></g></g><g><g><g><rect fill="white" stroke="none" x="472.0808272839843" y="172.663098881" width="138.52968086304688" height="21.23576429"/></g><text fill="black" stroke="none" font-family="sans-serif" font-size="11pt" font-style="normal" font-weight="normal" text-decoration="normal" x="474.53110777898434" y="187.36478185099998" text-anchor="start" dominant-baseline="alphabetic">EnterVehicle(A-10C)</text></g><g><path fill="none" stroke="black" paint-order="fill stroke markers" d=" M 452.75083671231766 193.898863171 L 518.0916499123176 193.898863171 L 518.0916499123176 215.13462746099998 L 455.473370595651 215.13462746099998" stroke-miterlimit="10" stroke-width="1.3612669416666667" stroke-dasharray=""/><g transform="translate(452.75083671231766,215.13462746099998) translate(-452.75083671231766,-215.13462746099998)"><path fill="black" stroke="none" paint-order="stroke fill markers" d=" M 466.36350612898434 208.32829275266664 L 452.75083671231766 215.13462746099998 L 466.36350612898434 221.94096216933332 Z"/></g></g><g><g><rect fill="white" stroke="none" x="256.99206446481116" y="239.637432411" width="143.41156257691406" height="21.23576429"/></g><text fill="black" stroke="none" font-family="sans-serif" font-size="11pt" font-style="normal" font-weight="normal" text-decoration="normal" x="259.4423449598112" y="254.33911538099997" text-anchor="start" dominant-baseline="alphabetic">ActiveVehicle(A-10C)</text></g><g><path fill="none" stroke="black" paint-order="fill stroke markers" d=" M 452.75083671231766 260.873196701 L 212.81245644421872 260.873196701" stroke-miterlimit="10" stroke-width="1.3612669416666667" stroke-dasharray=""/><path fill="none" stroke="black" paint-order="fill stroke markers" d=" M 204.64485479421873 252.705595051 L 220.98005809421872 269.040798351 M 204.64485479421873 269.040798351 L 220.98005809421872 252.705595051" stroke-miterlimit="10" stroke-width="1.3612669416666667"/></g><g><g><rect fill="white" stroke="none" x="472.0808272839843" y="285.37600165099997" width="180.92053474488281" height="21.23576429"/></g><text fill="black" stroke="none" font-family="sans-serif" font-size="11pt" font-style="normal" font-weight="normal" text-decoration="normal" x="474.53110777898434" y="300.07768462099995" text-anchor="start" dominant-baseline="alphabetic">LoadModule(Helios_A10C)</text></g><g><path fill="none" stroke="black" paint-order="fill stroke markers" d=" M 452.75083671231766 306.61176594099993 L 518.0916499123176 306.61176594099993 L 518.0916499123176 327.84753023099995 L 455.473370595651 327.84753023099995" stroke-miterlimit="10" stroke-width="1.3612669416666667" stroke-dasharray=""/><g transform="translate(452.75083671231766,327.84753023099995) translate(-452.75083671231766,-327.84753023099995)"><path fill="black" stroke="none" paint-order="stroke fill markers" d=" M 466.36350612898434 321.0411955226666 L 452.75083671231766 327.84753023099995 L 466.36350612898434 334.6538649393333 Z"/></g></g><g><g><rect fill="white" stroke="none" x="234.583327282194" y="352.35033518099993" width="188.22903694214844" height="21.23576429"/></g><text fill="black" stroke="none" font-family="sans-serif" font-size="11pt" font-style="normal" font-weight="normal" text-decoration="normal" x="237.033607777194" y="367.0520181509999" text-anchor="start" dominant-baseline="alphabetic">ActiveModule(Helios_A10C)</text></g><g><path fill="none" stroke="black" paint-order="fill stroke markers" d=" M 452.75083671231766 373.58609947099995 L 212.81245644421872 373.58609947099995" stroke-miterlimit="10" stroke-width="1.3612669416666667" stroke-dasharray=""/><path fill="none" stroke="black" paint-order="fill stroke markers" d=" M 204.64485479421873 365.41849782099996 L 220.98005809421872 381.75370112099995 M 204.64485479421873 381.75370112099995 L 220.98005809421872 365.41849782099996" stroke-miterlimit="10" stroke-width="1.3612669416666667"/></g><g><g><rect fill="white" stroke="none" x="215.80724371588542" y="398.088904421" width="191.48602546753906" height="21.23576429"/></g><text fill="black" stroke="none" font-family="sans-serif" font-size="11pt" font-style="normal" font-weight="normal" text-decoration="normal" x="218.2575242108854" y="412.790587391" text-anchor="start" dominant-baseline="alphabetic">Start(my_F18_profile_name)</text></g><g><path fill="none" stroke="black" paint-order="fill stroke markers" d=" M 196.47725314421874 419.32466871099996 L 261.8180663442187 419.32466871099996 L 261.8180663442187 440.560433001 L 199.19978702755208 440.560433001" stroke-miterlimit="10" stroke-width="1.3612669416666667" stroke-dasharray=""/><g transform="translate(196.47725314421874,440.560433001) translate(-196.47725314421874,-440.560433001)"><path fill="black" stroke="none" paint-order="stroke fill markers" d=" M 210.0899225608854 433.75409829266664 L 196.47725314421874 440.560433001 L 210.0899225608854 447.3667677093333 Z"/></g></g><g><g><rect fill="white" stroke="none" x="231.72000070035804" y="465.06323795099996" width="185.78808845582031" height="21.23576429"/></g><text fill="black" stroke="none" font-family="sans-serif" font-size="11pt" font-style="normal" font-weight="normal" text-decoration="normal" x="234.17028119535803" y="479.76492092099994" text-anchor="start" dominant-baseline="alphabetic">LoadDriver(FA-18C_hornet)</text></g><g><path fill="none" stroke="black" paint-order="fill stroke markers" d=" M 196.47725314421874 486.299002241 L 450.02830282898435 486.299002241" stroke-miterlimit="10" stroke-width="1.3612669416666667" stroke-dasharray=""/><g transform="translate(452.75083671231766,486.299002241) translate(-452.75083671231766,-486.299002241)"><path fill="black" stroke="none" paint-order="stroke fill markers" d=" M 439.138167295651 479.49266753266664 L 452.75083671231766 486.299002241 L 439.138167295651 493.1053369493333 Z"/></g></g><g><g><rect fill="white" stroke="none" x="252.90826363981117" y="510.80180719099997" width="143.41156257691406" height="21.23576429"/></g><text fill="black" stroke="none" font-family="sans-serif" font-size="11pt" font-style="normal" font-weight="normal" text-decoration="normal" x="255.35854413481115" y="525.503490161" text-anchor="start" dominant-baseline="alphabetic">ActiveVehicle(A-10C)</text></g><g><path fill="none" stroke="black" paint-order="fill stroke markers" d=" M 452.75083671231766 532.037571481 L 199.19978702755208 532.037571481" stroke-miterlimit="10" stroke-width="1.3612669416666667" stroke-dasharray=""/><g transform="translate(196.47725314421874,532.037571481) translate(-196.47725314421874,-532.037571481)"><path fill="black" stroke="none" paint-order="stroke fill markers" d=" M 210.0899225608854 525.2312367726666 L 196.47725314421874 532.037571481 L 210.0899225608854 538.8439061893333 Z"/></g></g><g><g><rect fill="white" stroke="none" x="230.49952645719398" y="556.5403764309999" width="188.22903694214844" height="21.23576429"/></g><text fill="black" stroke="none" font-family="sans-serif" font-size="11pt" font-style="normal" font-weight="normal" text-decoration="normal" x="232.94980695219397" y="571.2420594009999" text-anchor="start" dominant-baseline="alphabetic">ActiveModule(Helios_A10C)</text></g><g><path fill="none" stroke="black" paint-order="fill stroke markers" d=" M 452.75083671231766 577.7761407209999 L 199.19978702755208 577.7761407209999" stroke-miterlimit="10" stroke-width="1.3612669416666667" stroke-dasharray=""/><g transform="translate(196.47725314421874,577.7761407209999) translate(-196.47725314421874,-577.7761407209999)"><path fill="black" stroke="none" paint-order="stroke fill markers" d=" M 210.0899225608854 570.9698060126666 L 196.47725314421874 577.7761407209999 L 210.0899225608854 584.5824754293333 Z"/></g></g><path fill="white" stroke="black" paint-order="fill stroke markers" d=" M 24.50280494999999 602.278945671 L 353.7500183684375 602.278945671 L 368.4517013384375 616.980628641 L 368.4517013384375 639.849913261 L 24.50280494999999 639.849913261 L 24.50280494999999 602.278945671 M 353.7500183684375 602.278945671 L 353.7500183684375 616.980628641 L 368.4517013384375 616.980628641" stroke-miterlimit="10" stroke-width="1.3612669416666667" stroke-dasharray=""/><g><text fill="black" stroke="none" font-family="sans-serif" font-size="11pt" font-style="normal" font-weight="normal" text-decoration="normal" x="47.372089569999986" y="625.148230291" text-anchor="start" dominant-baseline="alphabetic">Most recent A-10C profile uses Helios exports</text></g><g><g><rect fill="white" stroke="none" x="260.6534189742838" y="664.3527182109999" width="127.92125190796875" height="21.23576429"/></g><text fill="black" stroke="none" font-family="sans-serif" font-size="11pt" font-style="normal" font-weight="normal" text-decoration="normal" x="263.1036994692838" y="679.0544011809999" text-anchor="start" dominant-baseline="alphabetic">LoadDriver(A-10C)</text></g><g><path fill="none" stroke="black" paint-order="fill stroke markers" d=" M 196.47725314421874 685.5884825009999 L 450.02830282898435 685.5884825009999" stroke-miterlimit="10" stroke-width="1.3612669416666667" stroke-dasharray=""/><g transform="translate(452.75083671231766,685.5884825009999) translate(-452.75083671231766,-685.5884825009999)"><path fill="black" stroke="none" paint-order="stroke fill markers" d=" M 439.138167295651 678.7821477926666 L 452.75083671231766 685.5884825009999 L 439.138167295651 692.3948172093333 Z"/></g></g><g><g><rect fill="white" stroke="none" x="472.0808272839843" y="710.0912874509999" width="184.93628181519531" height="21.23576429"/></g><text fill="black" stroke="none" font-family="sans-serif" font-size="11pt" font-style="normal" font-weight="normal" text-decoration="normal" x="474.53110777898434" y="724.7929704209998" text-anchor="start" dominant-baseline="alphabetic">SwitchFromModuleToDriver</text></g><g><path fill="none" stroke="black" paint-order="fill stroke markers" d=" M 452.75083671231766 731.3270517409999 L 518.0916499123176 731.3270517409999 L 518.0916499123176 752.5628160309999 L 455.473370595651 752.5628160309999" stroke-miterlimit="10" stroke-width="1.3612669416666667" stroke-dasharray=""/><g transform="translate(452.75083671231766,752.5628160309999) translate(-452.75083671231766,-752.5628160309999)"><path fill="black" stroke="none" paint-order="stroke fill markers" d=" M 466.36350612898434 745.7564813226666 L 452.75083671231766 752.5628160309999 L 466.36350612898434 759.3691507393332 Z"/></g></g><g><g><rect fill="white" stroke="none" x="256.999167875651" y="777.0656209809998" width="135.22975410523438" height="21.23576429"/></g><text fill="black" stroke="none" font-family="sans-serif" font-size="11pt" font-style="normal" font-weight="normal" text-decoration="normal" x="259.449448370651" y="791.7673039509998" text-anchor="start" dominant-baseline="alphabetic">ActiveDriver(A-10C)</text></g><g><path fill="none" stroke="black" paint-order="fill stroke markers" d=" M 452.75083671231766 798.3013852709998 L 199.19978702755208 798.3013852709998" stroke-miterlimit="10" stroke-width="1.3612669416666667" stroke-dasharray=""/><g transform="translate(196.47725314421874,798.3013852709998) translate(-196.47725314421874,-798.3013852709998)"><path fill="black" stroke="none" paint-order="stroke fill markers" d=" M 210.0899225608854 791.4950505626665 L 196.47725314421874 798.3013852709998 L 210.0899225608854 805.1077199793332 Z"/></g></g><g><g><rect fill="white" stroke="none" x="215.80724371588542" y="822.8041902209998" width="222.46667732300781" height="21.23576429"/></g><text fill="black" stroke="none" font-family="sans-serif" font-size="11pt" font-style="normal" font-weight="normal" text-decoration="normal" x="218.2575242108854" y="837.5058731909998" text-anchor="start" dominant-baseline="alphabetic">AutoStart(my_A10_profile_name)</text></g><g><path fill="none" stroke="black" paint-order="fill stroke markers" d=" M 196.47725314421874 844.0399545109998 L 261.8180663442187 844.0399545109998 L 261.8180663442187 865.2757188009998 L 199.19978702755208 865.2757188009998" stroke-miterlimit="10" stroke-width="1.3612669416666667" stroke-dasharray=""/><g transform="translate(196.47725314421874,865.2757188009998) translate(-196.47725314421874,-865.2757188009998)"><path fill="black" stroke="none" paint-order="stroke fill markers" d=" M 210.0899225608854 858.4693840926665 L 196.47725314421874 865.2757188009998 L 210.0899225608854 872.0820535093332 Z"/></g></g><g><g><rect fill="white" stroke="none" x="472.0808272839843" y="958.3863776109997" width="138.52968086304688" height="21.23576429"/></g><text fill="black" stroke="none" font-family="sans-serif" font-size="11pt" font-style="normal" font-weight="normal" text-decoration="normal" x="474.53110777898434" y="973.0880605809997" text-anchor="start" dominant-baseline="alphabetic">EnterVehicle(A-10C)</text></g><g><path fill="none" stroke="black" paint-order="fill stroke markers" d=" M 452.75083671231766 979.6221419009997 L 518.0916499123176 979.6221419009997 L 518.0916499123176 1000.8579061909998 L 455.473370595651 1000.8579061909998" stroke-miterlimit="10" stroke-width="1.3612669416666667" stroke-dasharray=""/><g transform="translate(452.75083671231766,1000.8579061909998) translate(-452.75083671231766,-1000.8579061909998)"><path fill="black" stroke="none" paint-order="stroke fill markers" d=" M 466.36350612898434 994.0515714826664 L 452.75083671231766 1000.8579061909998 L 466.36350612898434 1007.6642408993331 Z"/></g></g><g><g><rect fill="white" stroke="none" x="256.99206446481116" y="1025.360711141" width="143.41156257691406" height="21.23576429"/></g><text fill="black" stroke="none" font-family="sans-serif" font-size="11pt" font-style="normal" font-weight="normal" text-decoration="normal" x="259.4423449598112" y="1040.062394111" text-anchor="start" dominant-baseline="alphabetic">ActiveVehicle(A-10C)</text></g><g><path fill="none" stroke="black" paint-order="fill stroke markers" d=" M 452.75083671231766 1046.5964754309998 L 212.81245644421872 1046.5964754309998" stroke-miterlimit="10" stroke-width="1.3612669416666667" stroke-dasharray=""/><path fill="none" stroke="black" paint-order="fill stroke markers" d=" M 204.64485479421873 1038.4288737809998 L 220.98005809421872 1054.7640770809999 M 204.64485479421873 1054.7640770809999 L 220.98005809421872 1038.4288737809998" stroke-miterlimit="10" stroke-width="1.3612669416666667"/></g><g><g><rect fill="white" stroke="none" x="472.0808272839843" y="1071.0992803809997" width="180.92053474488281" height="21.23576429"/></g><text fill="black" stroke="none" font-family="sans-serif" font-size="11pt" font-style="normal" font-weight="normal" text-decoration="normal" x="474.53110777898434" y="1085.8009633509998" text-anchor="start" dominant-baseline="alphabetic">LoadModule(Helios_A10C)</text></g><g><path fill="none" stroke="black" paint-order="fill stroke markers" d=" M 452.75083671231766 1092.3350446709999 L 518.0916499123176 1092.3350446709999 L 518.0916499123176 1113.5708089609998 L 455.473370595651 1113.5708089609998" stroke-miterlimit="10" stroke-width="1.3612669416666667" stroke-dasharray=""/><g transform="translate(452.75083671231766,1113.5708089609998) translate(-452.75083671231766,-1113.5708089609998)"><path fill="black" stroke="none" paint-order="stroke fill markers" d=" M 466.36350612898434 1106.7644742526666 L 452.75083671231766 1113.5708089609998 L 466.36350612898434 1120.377143669333 Z"/></g></g><g><g><rect fill="white" stroke="none" x="234.583327282194" y="1138.073613911" width="188.22903694214844" height="21.23576429"/></g><text fill="black" stroke="none" font-family="sans-serif" font-size="11pt" font-style="normal" font-weight="normal" text-decoration="normal" x="237.033607777194" y="1152.775296881" text-anchor="start" dominant-baseline="alphabetic">ActiveModule(Helios_A10C)</text></g><g><path fill="none" stroke="black" paint-order="fill stroke markers" d=" M 452.75083671231766 1159.3093782009998 L 212.81245644421872 1159.3093782009998" stroke-miterlimit="10" stroke-width="1.3612669416666667" stroke-dasharray=""/><path fill="none" stroke="black" paint-order="fill stroke markers" d=" M 204.64485479421873 1151.1417765509998 L 220.98005809421872 1167.476979851 M 204.64485479421873 1167.476979851 L 220.98005809421872 1151.1417765509998" stroke-miterlimit="10" stroke-width="1.3612669416666667"/></g><g><g><rect fill="white" stroke="none" x="215.80724371588542" y="1183.8121831509998" width="145.85257209839844" height="21.23576429"/></g><text fill="black" stroke="none" font-family="sans-serif" font-size="11pt" font-style="normal" font-weight="normal" text-decoration="normal" x="218.2575242108854" y="1198.5138661209999" text-anchor="start" dominant-baseline="alphabetic">Start(CaptZeenF18C)</text></g><g><path fill="none" stroke="black" paint-order="fill stroke markers" d=" M 196.47725314421874 1205.047947441 L 261.8180663442187 1205.047947441 L 261.8180663442187 1226.2837117309998 L 199.19978702755208 1226.2837117309998" stroke-miterlimit="10" stroke-width="1.3612669416666667" stroke-dasharray=""/><g transform="translate(196.47725314421874,1226.2837117309998) translate(-196.47725314421874,-1226.2837117309998)"><path fill="black" stroke="none" paint-order="stroke fill markers" d=" M 210.0899225608854 1219.4773770226666 L 196.47725314421874 1226.2837117309998 L 210.0899225608854 1233.090046439333 Z"/></g></g><g><g><rect fill="white" stroke="none" x="276.9347223800455" y="1250.786516681" width="95.35864509644531" height="21.23576429"/></g><text fill="black" stroke="none" font-family="sans-serif" font-size="11pt" font-style="normal" font-weight="normal" text-decoration="normal" x="279.38500287504553" y="1265.488199651" text-anchor="start" dominant-baseline="alphabetic">LoadModule()</text></g><g><path fill="none" stroke="black" paint-order="fill stroke markers" d=" M 196.47725314421874 1272.0222809709999 L 450.02830282898435 1272.0222809709999" stroke-miterlimit="10" stroke-width="1.3612669416666667" stroke-dasharray=""/><g transform="translate(452.75083671231766,1272.0222809709999) translate(-452.75083671231766,-1272.0222809709999)"><path fill="black" stroke="none" paint-order="stroke fill markers" d=" M 439.138167295651 1265.2159462626666 L 452.75083671231766 1272.0222809709999 L 439.138167295651 1278.828615679333 Z"/></g></g><g><g><rect fill="white" stroke="none" x="252.90826363981117" y="1296.525085921" width="143.41156257691406" height="21.23576429"/></g><text fill="black" stroke="none" font-family="sans-serif" font-size="11pt" font-style="normal" font-weight="normal" text-decoration="normal" x="255.35854413481115" y="1311.2267688910001" text-anchor="start" dominant-baseline="alphabetic">ActiveVehicle(A-10C)</text></g><g><path fill="none" stroke="black" paint-order="fill stroke markers" d=" M 452.75083671231766 1317.760850211 L 199.19978702755208 1317.760850211" stroke-miterlimit="10" stroke-width="1.3612669416666667" stroke-dasharray=""/><g transform="translate(196.47725314421874,1317.760850211) translate(-196.47725314421874,-1317.760850211)"><path fill="black" stroke="none" paint-order="stroke fill markers" d=" M 210.0899225608854 1310.9545155026667 L 196.47725314421874 1317.760850211 L 210.0899225608854 1324.5671849193332 Z"/></g></g><g><g><rect fill="white" stroke="none" x="230.49952645719398" y="1342.263655161" width="188.22903694214844" height="21.23576429"/></g><text fill="black" stroke="none" font-family="sans-serif" font-size="11pt" font-style="normal" font-weight="normal" text-decoration="normal" x="232.94980695219397" y="1356.9653381310002" text-anchor="start" dominant-baseline="alphabetic">ActiveModule(Helios_A10C)</text></g><g><path fill="none" stroke="black" paint-order="fill stroke markers" d=" M 452.75083671231766 1363.499419451 L 199.19978702755208 1363.499419451" stroke-miterlimit="10" stroke-width="1.3612669416666667" stroke-dasharray=""/><g transform="translate(196.47725314421874,1363.499419451) translate(-196.47725314421874,-1363.499419451)"><path fill="black" stroke="none" paint-order="stroke fill markers" d=" M 210.0899225608854 1356.6930847426668 L 196.47725314421874 1363.499419451 L 210.0899225608854 1370.3057541593332 Z"/></g></g><path fill="white" stroke="black" paint-order="fill stroke markers" d=" M 24.50280494999999 1388.002224401 L 353.7500183684375 1388.002224401 L 368.4517013384375 1402.703907371 L 368.4517013384375 1425.573191991 L 24.50280494999999 1425.573191991 L 24.50280494999999 1388.002224401 M 353.7500183684375 1388.002224401 L 353.7500183684375 1402.703907371 L 368.4517013384375 1402.703907371" stroke-miterlimit="10" stroke-width="1.3612669416666667" stroke-dasharray=""/><g><text fill="black" stroke="none" font-family="sans-serif" font-size="11pt" font-style="normal" font-weight="normal" text-decoration="normal" x="47.372089569999986" y="1410.871509021" text-anchor="start" dominant-baseline="alphabetic">Most recent A-10C profile uses Helios exports</text></g><g><g><rect fill="white" stroke="none" x="260.6534189742838" y="1450.075996941" width="127.92125190796875" height="21.23576429"/></g><text fill="black" stroke="none" font-family="sans-serif" font-size="11pt" font-style="normal" font-weight="normal" text-decoration="normal" x="263.1036994692838" y="1464.7776799110002" text-anchor="start" dominant-baseline="alphabetic">LoadDriver(A-10C)</text></g><g><path fill="none" stroke="black" paint-order="fill stroke markers" d=" M 196.47725314421874 1471.311761231 L 450.02830282898435 1471.311761231" stroke-miterlimit="10" stroke-width="1.3612669416666667" stroke-dasharray=""/><g transform="translate(452.75083671231766,1471.311761231) translate(-452.75083671231766,-1471.311761231)"><path fill="black" stroke="none" paint-order="stroke fill markers" d=" M 439.138167295651 1464.5054265226668 L 452.75083671231766 1471.311761231 L 439.138167295651 1478.1180959393332 Z"/></g></g><g><g><rect fill="white" stroke="none" x="472.0808272839843" y="1495.814566181" width="184.93628181519531" height="21.23576429"/></g><text fill="black" stroke="none" font-family="sans-serif" font-size="11pt" font-style="normal" font-weight="normal" text-decoration="normal" x="474.53110777898434" y="1510.516249151" text-anchor="start" dominant-baseline="alphabetic">SwitchFromModuleToDriver</text></g><g><path fill="none" stroke="black" paint-order="fill stroke markers" d=" M 452.75083671231766 1517.050330471 L 518.0916499123176 1517.050330471 L 518.0916499123176 1538.286094761 L 455.473370595651 1538.286094761" stroke-miterlimit="10" stroke-width="1.3612669416666667" stroke-dasharray=""/><g transform="translate(452.75083671231766,1538.286094761) translate(-452.75083671231766,-1538.286094761)"><path fill="black" stroke="none" paint-order="stroke fill markers" d=" M 466.36350612898434 1531.4797600526667 L 452.75083671231766 1538.286094761 L 466.36350612898434 1545.0924294693332 Z"/></g></g><g><g><rect fill="white" stroke="none" x="256.999167875651" y="1562.788899711" width="135.22975410523438" height="21.23576429"/></g><text fill="black" stroke="none" font-family="sans-serif" font-size="11pt" font-style="normal" font-weight="normal" text-decoration="normal" x="259.449448370651" y="1577.4905826810002" text-anchor="start" dominant-baseline="alphabetic">ActiveDriver(A-10C)</text></g><g><path fill="none" stroke="black" paint-order="fill stroke markers" d=" M 452.75083671231766 1584.024664001 L 199.19978702755208 1584.024664001" stroke-miterlimit="10" stroke-width="1.3612669416666667" stroke-dasharray=""/><g transform="translate(196.47725314421874,1584.024664001) translate(-196.47725314421874,-1584.024664001)"><path fill="black" stroke="none" paint-order="stroke fill markers" d=" M 210.0899225608854 1577.2183292926668 L 196.47725314421874 1584.024664001 L 210.0899225608854 1590.8309987093332 Z"/></g></g><g><g><rect fill="white" stroke="none" x="215.80724371588542" y="1608.527468951" width="222.46667732300781" height="21.23576429"/></g><text fill="black" stroke="none" font-family="sans-serif" font-size="11pt" font-style="normal" font-weight="normal" text-decoration="normal" x="218.2575242108854" y="1623.229151921" text-anchor="start" dominant-baseline="alphabetic">AutoStart(my_A10_profile_name)</text></g><g><path fill="none" stroke="black" paint-order="fill stroke markers" d=" M 196.47725314421874 1629.763233241 L 261.8180663442187 1629.763233241 L 261.8180663442187 1650.998997531 L 199.19978702755208 1650.998997531" stroke-miterlimit="10" stroke-width="1.3612669416666667" stroke-dasharray=""/><g transform="translate(196.47725314421874,1650.998997531) translate(-196.47725314421874,-1650.998997531)"><path fill="black" stroke="none" paint-order="stroke fill markers" d=" M 210.0899225608854 1644.1926628226668 L 196.47725314421874 1650.998997531 L 210.0899225608854 1657.8053322393332 Z"/></g></g><g><g><rect fill="white" stroke="none" x="472.0808272839843" y="1744.109656341" width="138.52968086304688" height="21.23576429"/></g><text fill="black" stroke="none" font-family="sans-serif" font-size="11pt" font-style="normal" font-weight="normal" text-decoration="normal" x="474.53110777898434" y="1758.811339311" text-anchor="start" dominant-baseline="alphabetic">EnterVehicle(A-10C)</text></g><g><path fill="none" stroke="black" paint-order="fill stroke markers" d=" M 452.75083671231766 1765.345420631 L 518.0916499123176 1765.345420631 L 518.0916499123176 1786.581184921 L 455.473370595651 1786.581184921" stroke-miterlimit="10" stroke-width="1.3612669416666667" stroke-dasharray=""/><g transform="translate(452.75083671231766,1786.581184921) translate(-452.75083671231766,-1786.581184921)"><path fill="black" stroke="none" paint-order="stroke fill markers" d=" M 466.36350612898434 1779.7748502126667 L 452.75083671231766 1786.581184921 L 466.36350612898434 1793.3875196293332 Z"/></g></g><g><g><rect fill="white" stroke="none" x="256.99206446481116" y="1811.083989871" width="143.41156257691406" height="21.23576429"/></g><text fill="black" stroke="none" font-family="sans-serif" font-size="11pt" font-style="normal" font-weight="normal" text-decoration="normal" x="259.4423449598112" y="1825.7856728410002" text-anchor="start" dominant-baseline="alphabetic">ActiveVehicle(A-10C)</text></g><g><path fill="none" stroke="black" paint-order="fill stroke markers" d=" M 452.75083671231766 1832.319754161 L 212.81245644421872 1832.319754161" stroke-miterlimit="10" stroke-width="1.3612669416666667" stroke-dasharray=""/><path fill="none" stroke="black" paint-order="fill stroke markers" d=" M 204.64485479421873 1824.152152511 L 220.98005809421872 1840.487355811 M 204.64485479421873 1840.487355811 L 220.98005809421872 1824.152152511" stroke-miterlimit="10" stroke-width="1.3612669416666667"/></g><g><g><rect fill="white" stroke="none" x="472.0808272839843" y="1856.822559111" width="180.92053474488281" height="21.23576429"/></g><text fill="black" stroke="none" font-family="sans-serif" font-size="11pt" font-style="normal" font-weight="normal" text-decoration="normal" x="474.53110777898434" y="1871.524242081" text-anchor="start" dominant-baseline="alphabetic">LoadModule(Helios_A10C)</text></g><g><path fill="none" stroke="black" paint-order="fill stroke markers" d=" M 452.75083671231766 1878.058323401 L 518.0916499123176 1878.058323401 L 518.0916499123176 1899.294087691 L 455.473370595651 1899.294087691" stroke-miterlimit="10" stroke-width="1.3612669416666667" stroke-dasharray=""/><g transform="translate(452.75083671231766,1899.294087691) translate(-452.75083671231766,-1899.294087691)"><path fill="black" stroke="none" paint-order="stroke fill markers" d=" M 466.36350612898434 1892.4877529826667 L 452.75083671231766 1899.294087691 L 466.36350612898434 1906.1004223993332 Z"/></g></g><g><g><rect fill="white" stroke="none" x="234.583327282194" y="1923.796892641" width="188.22903694214844" height="21.23576429"/></g><text fill="black" stroke="none" font-family="sans-serif" font-size="11pt" font-style="normal" font-weight="normal" text-decoration="normal" x="237.033607777194" y="1938.4985756110002" text-anchor="start" dominant-baseline="alphabetic">ActiveModule(Helios_A10C)</text></g><g><path fill="none" stroke="black" paint-order="fill stroke markers" d=" M 452.75083671231766 1945.032656931 L 212.81245644421872 1945.032656931" stroke-miterlimit="10" stroke-width="1.3612669416666667" stroke-dasharray=""/><path fill="none" stroke="black" paint-order="fill stroke markers" d=" M 204.64485479421873 1936.865055281 L 220.98005809421872 1953.200258581 M 204.64485479421873 1953.200258581 L 220.98005809421872 1936.865055281" stroke-miterlimit="10" stroke-width="1.3612669416666667"/></g><g><g><rect fill="white" stroke="none" x="215.80724371588542" y="1969.535461881" width="191.48602546753906" height="21.23576429"/></g><text fill="black" stroke="none" font-family="sans-serif" font-size="11pt" font-style="normal" font-weight="normal" text-decoration="normal" x="218.2575242108854" y="1984.237144851" text-anchor="start" dominant-baseline="alphabetic">Start(my_F18_profile_name)</text></g><g><path fill="none" stroke="black" paint-order="fill stroke markers" d=" M 196.47725314421874 1990.771226171 L 261.8180663442187 1990.771226171 L 261.8180663442187 2012.006990461 L 199.19978702755208 2012.006990461" stroke-miterlimit="10" stroke-width="1.3612669416666667" stroke-dasharray=""/><g transform="translate(196.47725314421874,2012.006990461) translate(-196.47725314421874,-2012.006990461)"><path fill="black" stroke="none" paint-order="stroke fill markers" d=" M 210.0899225608854 2005.2006557526668 L 196.47725314421874 2012.006990461 L 210.0899225608854 2018.8133251693332 Z"/></g></g><g><g><rect fill="white" stroke="none" x="231.72000070035804" y="2036.509795411" width="185.78808845582031" height="21.23576429"/></g><text fill="black" stroke="none" font-family="sans-serif" font-size="11pt" font-style="normal" font-weight="normal" text-decoration="normal" x="234.17028119535803" y="2051.211478381" text-anchor="start" dominant-baseline="alphabetic">LoadDriver(FA-18C_hornet)</text></g><g><path fill="none" stroke="black" paint-order="fill stroke markers" d=" M 196.47725314421874 2057.745559701 L 450.02830282898435 2057.745559701" stroke-miterlimit="10" stroke-width="1.3612669416666667" stroke-dasharray=""/><g transform="translate(452.75083671231766,2057.745559701) translate(-452.75083671231766,-2057.745559701)"><path fill="black" stroke="none" paint-order="stroke fill markers" d=" M 439.138167295651 2050.9392249926664 L 452.75083671231766 2057.745559701 L 439.138167295651 2064.5518944093333 Z"/></g></g><g><g><rect fill="white" stroke="none" x="252.90826363981117" y="2082.2483646509995" width="143.41156257691406" height="21.23576429"/></g><text fill="black" stroke="none" font-family="sans-serif" font-size="11pt" font-style="normal" font-weight="normal" text-decoration="normal" x="255.35854413481115" y="2096.9500476209996" text-anchor="start" dominant-baseline="alphabetic">ActiveVehicle(A-10C)</text></g><g><path fill="none" stroke="black" paint-order="fill stroke markers" d=" M 452.75083671231766 2103.4841289409997 L 199.19978702755208 2103.4841289409997" stroke-miterlimit="10" stroke-width="1.3612669416666667" stroke-dasharray=""/><g transform="translate(196.47725314421874,2103.4841289409997) translate(-196.47725314421874,-2103.4841289409997)"><path fill="black" stroke="none" paint-order="stroke fill markers" d=" M 210.0899225608854 2096.677794232666 L 196.47725314421874 2103.4841289409997 L 210.0899225608854 2110.290463649333 Z"/></g></g><g><g><rect fill="white" stroke="none" x="230.49952645719398" y="2127.9869338909994" width="188.22903694214844" height="21.23576429"/></g><text fill="black" stroke="none" font-family="sans-serif" font-size="11pt" font-style="normal" font-weight="normal" text-decoration="normal" x="232.94980695219397" y="2142.6886168609994" text-anchor="start" dominant-baseline="alphabetic">ActiveModule(Helios_A10C)</text></g><g><path fill="none" stroke="black" paint-order="fill stroke markers" d=" M 452.75083671231766 2149.2226981809995 L 199.19978702755208 2149.2226981809995" stroke-miterlimit="10" stroke-width="1.3612669416666667" stroke-dasharray=""/><g transform="translate(196.47725314421874,2149.2226981809995) translate(-196.47725314421874,-2149.2226981809995)"><path fill="black" stroke="none" paint-order="stroke fill markers" d=" M 210.0899225608854 2142.416363472666 L 196.47725314421874 2149.2226981809995 L 210.0899225608854 2156.029032889333 Z"/></g></g><path fill="white" stroke="black" paint-order="fill stroke markers" d=" M 24.90722389531249 2173.7255031309996 L 353.345599423125 2173.7255031309996 L 368.047282393125 2188.4271861009997 L 368.047282393125 2211.2964707209994 L 24.90722389531249 2211.2964707209994 L 24.90722389531249 2173.7255031309996 M 353.345599423125 2173.7255031309996 L 353.345599423125 2188.4271861009997 L 368.047282393125 2188.4271861009997" stroke-miterlimit="10" stroke-width="1.3612669416666667" stroke-dasharray=""/><g><text fill="black" stroke="none" font-family="sans-serif" font-size="11pt" font-style="normal" font-weight="normal" text-decoration="normal" x="47.776508515312486" y="2196.594787751" text-anchor="start" dominant-baseline="alphabetic">Most recent A-10C profile is Capt Zeen profile</text></g><g><g><rect fill="white" stroke="none" x="215.80724371588542" y="2235.7992756709996" width="176.8332239538672" height="21.23576429"/></g><text fill="black" stroke="none" font-family="sans-serif" font-size="11pt" font-style="normal" font-weight="normal" text-decoration="normal" x="218.2575242108854" y="2250.5009586409997" text-anchor="start" dominant-baseline="alphabetic">AutoStart(CaptZeenA10C)</text></g><g><path fill="none" stroke="black" paint-order="fill stroke markers" d=" M 196.47725314421874 2257.0350399609993 L 261.8180663442187 2257.0350399609993 L 261.8180663442187 2278.2708042509994 L 199.19978702755208 2278.2708042509994" stroke-miterlimit="10" stroke-width="1.3612669416666667" stroke-dasharray=""/><g transform="translate(196.47725314421874,2278.2708042509994) translate(-196.47725314421874,-2278.2708042509994)"><path fill="black" stroke="none" paint-order="stroke fill markers" d=" M 210.0899225608854 2271.464469542666 L 196.47725314421874 2278.2708042509994 L 210.0899225608854 2285.077138959333 Z"/></g></g><g><g><rect fill="white" stroke="none" x="472.0808272839843" y="2371.3814630609995" width="138.52968086304688" height="21.23576429"/></g><text fill="black" stroke="none" font-family="sans-serif" font-size="11pt" font-style="normal" font-weight="normal" text-decoration="normal" x="474.53110777898434" y="2386.0831460309996" text-anchor="start" dominant-baseline="alphabetic">EnterVehicle(A-10C)</text></g><g><path fill="none" stroke="black" paint-order="fill stroke markers" d=" M 452.75083671231766 2392.617227350999 L 518.0916499123176 2392.617227350999 L 518.0916499123176 2413.8529916409993 L 455.473370595651 2413.8529916409993" stroke-miterlimit="10" stroke-width="1.3612669416666667" stroke-dasharray=""/><g transform="translate(452.75083671231766,2413.8529916409993) translate(-452.75083671231766,-2413.8529916409993)"><path fill="black" stroke="none" paint-order="stroke fill markers" d=" M 466.36350612898434 2407.046656932666 L 452.75083671231766 2413.8529916409993 L 466.36350612898434 2420.659326349333 Z"/></g></g><g><g><rect fill="white" stroke="none" x="256.99206446481116" y="2438.355796590999" width="143.41156257691406" height="21.23576429"/></g><text fill="black" stroke="none" font-family="sans-serif" font-size="11pt" font-style="normal" font-weight="normal" text-decoration="normal" x="259.4423449598112" y="2453.057479560999" text-anchor="start" dominant-baseline="alphabetic">ActiveVehicle(A-10C)</text></g><g><path fill="none" stroke="black" paint-order="fill stroke markers" d=" M 452.75083671231766 2459.591560880999 L 212.81245644421872 2459.591560880999" stroke-miterlimit="10" stroke-width="1.3612669416666667" stroke-dasharray=""/><path fill="none" stroke="black" paint-order="fill stroke markers" d=" M 204.64485479421873 2451.423959230999 L 220.98005809421872 2467.759162530999 M 204.64485479421873 2467.759162530999 L 220.98005809421872 2451.423959230999" stroke-miterlimit="10" stroke-width="1.3612669416666667"/></g><g><g><rect fill="white" stroke="none" x="472.0808272839843" y="2484.0943658309993" width="180.92053474488281" height="21.23576429"/></g><text fill="black" stroke="none" font-family="sans-serif" font-size="11pt" font-style="normal" font-weight="normal" text-decoration="normal" x="474.53110777898434" y="2498.7960488009994" text-anchor="start" dominant-baseline="alphabetic">LoadModule(Helios_A10C)</text></g><g><path fill="none" stroke="black" paint-order="fill stroke markers" d=" M 452.75083671231766 2505.330130120999 L 518.0916499123176 2505.330130120999 L 518.0916499123176 2526.565894410999 L 455.473370595651 2526.565894410999" stroke-miterlimit="10" stroke-width="1.3612669416666667" stroke-dasharray=""/><g transform="translate(452.75083671231766,2526.565894410999) translate(-452.75083671231766,-2526.565894410999)"><path fill="black" stroke="none" paint-order="stroke fill markers" d=" M 466.36350612898434 2519.7595597026657 L 452.75083671231766 2526.565894410999 L 466.36350612898434 2533.3722291193326 Z"/></g></g><g><g><rect fill="white" stroke="none" x="234.583327282194" y="2551.068699360999" width="188.22903694214844" height="21.23576429"/></g><text fill="black" stroke="none" font-family="sans-serif" font-size="11pt" font-style="normal" font-weight="normal" text-decoration="normal" x="237.033607777194" y="2565.770382330999" text-anchor="start" dominant-baseline="alphabetic">ActiveModule(Helios_A10C)</text></g><g><path fill="none" stroke="black" paint-order="fill stroke markers" d=" M 452.75083671231766 2572.304463650999 L 212.81245644421872 2572.304463650999" stroke-miterlimit="10" stroke-width="1.3612669416666667" stroke-dasharray=""/><path fill="none" stroke="black" paint-order="fill stroke markers" d=" M 204.64485479421873 2564.136862000999 L 220.98005809421872 2580.472065300999 M 204.64485479421873 2580.472065300999 L 220.98005809421872 2564.136862000999" stroke-miterlimit="10" stroke-width="1.3612669416666667"/></g><g><g><rect fill="white" stroke="none" x="215.80724371588542" y="2596.807268600999" width="145.85257209839844" height="21.23576429"/></g><text fill="black" stroke="none" font-family="sans-serif" font-size="11pt" font-style="normal" font-weight="normal" text-decoration="normal" x="218.2575242108854" y="2611.508951570999" text-anchor="start" dominant-baseline="alphabetic">Start(CaptZeenF18C)</text></g><g><path fill="none" stroke="black" paint-order="fill stroke markers" d=" M 196.47725314421874 2618.043032890999 L 261.8180663442187 2618.043032890999 L 261.8180663442187 2639.278797180999 L 199.19978702755208 2639.278797180999" stroke-miterlimit="10" stroke-width="1.3612669416666667" stroke-dasharray=""/><g transform="translate(196.47725314421874,2639.278797180999) translate(-196.47725314421874,-2639.278797180999)"><path fill="black" stroke="none" paint-order="stroke fill markers" d=" M 210.0899225608854 2632.4724624726655 L 196.47725314421874 2639.278797180999 L 210.0899225608854 2646.0851318893324 Z"/></g></g><g><g><rect fill="white" stroke="none" x="276.9347223800455" y="2663.7816021309986" width="95.35864509644531" height="21.23576429"/></g><text fill="black" stroke="none" font-family="sans-serif" font-size="11pt" font-style="normal" font-weight="normal" text-decoration="normal" x="279.38500287504553" y="2678.4832851009987" text-anchor="start" dominant-baseline="alphabetic">LoadModule()</text></g><g><path fill="none" stroke="black" paint-order="fill stroke markers" d=" M 196.47725314421874 2685.0173664209988 L 450.02830282898435 2685.0173664209988" stroke-miterlimit="10" stroke-width="1.3612669416666667" stroke-dasharray=""/><g transform="translate(452.75083671231766,2685.0173664209988) translate(-452.75083671231766,-2685.0173664209988)"><path fill="black" stroke="none" paint-order="stroke fill markers" d=" M 439.138167295651 2678.2110317126653 L 452.75083671231766 2685.0173664209988 L 439.138167295651 2691.823701129332 Z"/></g></g><g><g><rect fill="white" stroke="none" x="252.90826363981117" y="2709.5201713709985" width="143.41156257691406" height="21.23576429"/></g><text fill="black" stroke="none" font-family="sans-serif" font-size="11pt" font-style="normal" font-weight="normal" text-decoration="normal" x="255.35854413481115" y="2724.2218543409986" text-anchor="start" dominant-baseline="alphabetic">ActiveVehicle(A-10C)</text></g><g><path fill="none" stroke="black" paint-order="fill stroke markers" d=" M 452.75083671231766 2730.7559356609986 L 199.19978702755208 2730.7559356609986" stroke-miterlimit="10" stroke-width="1.3612669416666667" stroke-dasharray=""/><g transform="translate(196.47725314421874,2730.7559356609986) translate(-196.47725314421874,-2730.7559356609986)"><path fill="black" stroke="none" paint-order="stroke fill markers" d=" M 210.0899225608854 2723.949600952665 L 196.47725314421874 2730.7559356609986 L 210.0899225608854 2737.562270369332 Z"/></g></g><g><g><rect fill="white" stroke="none" x="230.49952645719398" y="2755.2587406109983" width="188.22903694214844" height="21.23576429"/></g><text fill="black" stroke="none" font-family="sans-serif" font-size="11pt" font-style="normal" font-weight="normal" text-decoration="normal" x="232.94980695219397" y="2769.9604235809984" text-anchor="start" dominant-baseline="alphabetic">ActiveModule(Helios_A10C)</text></g><g><path fill="none" stroke="black" paint-order="fill stroke markers" d=" M 452.75083671231766 2776.4945049009984 L 199.19978702755208 2776.4945049009984" stroke-miterlimit="10" stroke-width="1.3612669416666667" stroke-dasharray=""/><g transform="translate(196.47725314421874,2776.4945049009984) translate(-196.47725314421874,-2776.4945049009984)"><path fill="black" stroke="none" paint-order="stroke fill markers" d=" M 210.0899225608854 2769.688170192665 L 196.47725314421874 2776.4945049009984 L 210.0899225608854 2783.300839609332 Z"/></g></g><path fill="white" stroke="black" paint-order="fill stroke markers" d=" M 24.90722389531249 2800.9973098509986 L 353.345599423125 2800.9973098509986 L 368.047282393125 2815.6989928209987 L 368.047282393125 2838.5682774409984 L 24.90722389531249 2838.5682774409984 L 24.90722389531249 2800.9973098509986 M 353.345599423125 2800.9973098509986 L 353.345599423125 2815.6989928209987 L 368.047282393125 2815.6989928209987" stroke-miterlimit="10" stroke-width="1.3612669416666667" stroke-dasharray=""/><g><text fill="black" stroke="none" font-family="sans-serif" font-size="11pt" font-style="normal" font-weight="normal" text-decoration="normal" x="47.776508515312486" y="2823.8665944709987" text-anchor="start" dominant-baseline="alphabetic">Most recent A-10C profile is Capt Zeen profile</text></g><g><g><rect fill="white" stroke="none" x="215.80724371588542" y="2863.0710823909985" width="176.8332239538672" height="21.23576429"/></g><text fill="black" stroke="none" font-family="sans-serif" font-size="11pt" font-style="normal" font-weight="normal" text-decoration="normal" x="218.2575242108854" y="2877.7727653609986" text-anchor="start" dominant-baseline="alphabetic">AutoStart(CaptZeenA10C)</text></g><g><path fill="none" stroke="black" paint-order="fill stroke markers" d=" M 196.47725314421874 2884.306846680998 L 261.8180663442187 2884.306846680998 L 261.8180663442187 2905.5426109709983 L 199.19978702755208 2905.5426109709983" stroke-miterlimit="10" stroke-width="1.3612669416666667" stroke-dasharray=""/><g transform="translate(196.47725314421874,2905.5426109709983) translate(-196.47725314421874,-2905.5426109709983)"><path fill="black" stroke="none" paint-order="stroke fill markers" d=" M 210.0899225608854 2898.736276262665 L 196.47725314421874 2905.5426109709983 L 210.0899225608854 2912.348945679332 Z"/></g></g><g><g><rect fill="white" stroke="none" x="472.0808272839843" y="2998.6532697809985" width="138.52968086304688" height="21.23576429"/></g><text fill="black" stroke="none" font-family="sans-serif" font-size="11pt" font-style="normal" font-weight="normal" text-decoration="normal" x="474.53110777898434" y="3013.3549527509986" text-anchor="start" dominant-baseline="alphabetic">EnterVehicle(A-10C)</text></g><g><path fill="none" stroke="black" paint-order="fill stroke markers" d=" M 452.75083671231766 3019.889034070998 L 518.0916499123176 3019.889034070998 L 518.0916499123176 3041.1247983609983 L 455.473370595651 3041.1247983609983" stroke-miterlimit="10" stroke-width="1.3612669416666667" stroke-dasharray=""/><g transform="translate(452.75083671231766,3041.1247983609983) translate(-452.75083671231766,-3041.1247983609983)"><path fill="black" stroke="none" paint-order="stroke fill markers" d=" M 466.36350612898434 3034.318463652665 L 452.75083671231766 3041.1247983609983 L 466.36350612898434 3047.9311330693317 Z"/></g></g><g><g><rect fill="white" stroke="none" x="256.99206446481116" y="3065.627603310998" width="143.41156257691406" height="21.23576429"/></g><text fill="black" stroke="none" font-family="sans-serif" font-size="11pt" font-style="normal" font-weight="normal" text-decoration="normal" x="259.4423449598112" y="3080.329286280998" text-anchor="start" dominant-baseline="alphabetic">ActiveVehicle(A-10C)</text></g><g><path fill="none" stroke="black" paint-order="fill stroke markers" d=" M 452.75083671231766 3086.863367600998 L 212.81245644421872 3086.863367600998" stroke-miterlimit="10" stroke-width="1.3612669416666667" stroke-dasharray=""/><path fill="none" stroke="black" paint-order="fill stroke markers" d=" M 204.64485479421873 3078.695765950998 L 220.98005809421872 3095.030969250998 M 204.64485479421873 3095.030969250998 L 220.98005809421872 3078.695765950998" stroke-miterlimit="10" stroke-width="1.3612669416666667"/></g><g><g><rect fill="white" stroke="none" x="472.0808272839843" y="3111.3661725509983" width="180.92053474488281" height="21.23576429"/></g><text fill="black" stroke="none" font-family="sans-serif" font-size="11pt" font-style="normal" font-weight="normal" text-decoration="normal" x="474.53110777898434" y="3126.0678555209984" text-anchor="start" dominant-baseline="alphabetic">LoadModule(Helios_A10C)</text></g><g><path fill="none" stroke="black" paint-order="fill stroke markers" d=" M 452.75083671231766 3132.601936840998 L 518.0916499123176 3132.601936840998 L 518.0916499123176 3153.837701130998 L 455.473370595651 3153.837701130998" stroke-miterlimit="10" stroke-width="1.3612669416666667" stroke-dasharray=""/><g transform="translate(452.75083671231766,3153.837701130998) translate(-452.75083671231766,-3153.837701130998)"><path fill="black" stroke="none" paint-order="stroke fill markers" d=" M 466.36350612898434 3147.0313664226646 L 452.75083671231766 3153.837701130998 L 466.36350612898434 3160.6440358393315 Z"/></g></g><g><g><rect fill="white" stroke="none" x="234.583327282194" y="3178.340506080998" width="188.22903694214844" height="21.23576429"/></g><text fill="black" stroke="none" font-family="sans-serif" font-size="11pt" font-style="normal" font-weight="normal" text-decoration="normal" x="237.033607777194" y="3193.042189050998" text-anchor="start" dominant-baseline="alphabetic">ActiveModule(Helios_A10C)</text></g><g><path fill="none" stroke="black" paint-order="fill stroke markers" d=" M 452.75083671231766 3199.576270370998 L 212.81245644421872 3199.576270370998" stroke-miterlimit="10" stroke-width="1.3612669416666667" stroke-dasharray=""/><path fill="none" stroke="black" paint-order="fill stroke markers" d=" M 204.64485479421873 3191.408668720998 L 220.98005809421872 3207.743872020998 M 204.64485479421873 3207.743872020998 L 220.98005809421872 3191.408668720998" stroke-miterlimit="10" stroke-width="1.3612669416666667"/></g><g><g><rect fill="white" stroke="none" x="215.80724371588542" y="3224.079075320998" width="146.6757532507422" height="21.23576429"/></g><text fill="black" stroke="none" font-family="sans-serif" font-size="11pt" font-style="normal" font-weight="normal" text-decoration="normal" x="218.2575242108854" y="3238.780758290998" text-anchor="start" dominant-baseline="alphabetic">Start(CaptZeenA10C)</text></g><g><path fill="none" stroke="black" paint-order="fill stroke markers" d=" M 196.47725314421874 3245.3148396109978 L 261.8180663442187 3245.3148396109978 L 261.8180663442187 3266.550603900998 L 199.19978702755208 3266.550603900998" stroke-miterlimit="10" stroke-width="1.3612669416666667" stroke-dasharray=""/><g transform="translate(196.47725314421874,3266.550603900998) translate(-196.47725314421874,-3266.550603900998)"><path fill="black" stroke="none" paint-order="stroke fill markers" d=" M 210.0899225608854 3259.7442691926644 L 196.47725314421874 3266.550603900998 L 210.0899225608854 3273.3569386093313 Z"/></g></g><g><g><rect fill="white" stroke="none" x="256.99206446481116" y="3291.0534088509976" width="143.41156257691406" height="21.23576429"/></g><text fill="black" stroke="none" font-family="sans-serif" font-size="11pt" font-style="normal" font-weight="normal" text-decoration="normal" x="259.4423449598112" y="3305.7550918209977" text-anchor="start" dominant-baseline="alphabetic">ActiveVehicle(A-10C)</text></g><g><path fill="none" stroke="black" paint-order="fill stroke markers" d=" M 452.75083671231766 3312.2891731409977 L 212.81245644421872 3312.2891731409977" stroke-miterlimit="10" stroke-width="1.3612669416666667" stroke-dasharray=""/><path fill="none" stroke="black" paint-order="fill stroke markers" d=" M 204.64485479421873 3304.1215714909977 L 220.98005809421872 3320.4567747909978 M 204.64485479421873 3320.4567747909978 L 220.98005809421872 3304.1215714909977" stroke-miterlimit="10" stroke-width="1.3612669416666667"/></g><g><g><rect fill="white" stroke="none" x="234.583327282194" y="3336.7919780909974" width="188.22903694214844" height="21.23576429"/></g><text fill="black" stroke="none" font-family="sans-serif" font-size="11pt" font-style="normal" font-weight="normal" text-decoration="normal" x="237.033607777194" y="3351.4936610609975" text-anchor="start" dominant-baseline="alphabetic">ActiveModule(Helios_A10C)</text></g><g><path fill="none" stroke="black" paint-order="fill stroke markers" d=" M 452.75083671231766 3358.0277423809976 L 212.81245644421872 3358.0277423809976" stroke-miterlimit="10" stroke-width="1.3612669416666667" stroke-dasharray=""/><path fill="none" stroke="black" paint-order="fill stroke markers" d=" M 204.64485479421873 3349.8601407309975 L 220.98005809421872 3366.1953440309976 M 204.64485479421873 3366.1953440309976 L 220.98005809421872 3349.8601407309975" stroke-miterlimit="10" stroke-width="1.3612669416666667"/></g><path fill="white" stroke="black" paint-order="fill stroke markers" d=" M 123.22861213994139 3382.5305473309977 L 255.02421117849607 3382.5305473309977 L 269.7258941484961 3397.232230300998 L 269.7258941484961 3420.1015149209975 L 123.22861213994139 3420.1015149209975 L 123.22861213994139 3382.5305473309977 M 255.02421117849607 3382.5305473309977 L 255.02421117849607 3397.232230300998 L 269.7258941484961 3397.232230300998" stroke-miterlimit="10" stroke-width="1.3612669416666667" stroke-dasharray=""/><g><text fill="black" stroke="none" font-family="sans-serif" font-size="11pt" font-style="normal" font-weight="normal" text-decoration="normal" x="146.0978967599414" y="3405.399831950998" text-anchor="start" dominant-baseline="alphabetic">Works as today</text></g><g><g><rect fill="white" stroke="none" x="472.0808272839843" y="3513.2121737309976" width="196.39651741089844" height="21.23576429"/></g><text fill="black" stroke="none" font-family="sans-serif" font-size="11pt" font-style="normal" font-weight="normal" text-decoration="normal" x="474.53110777898434" y="3527.9138567009977" text-anchor="start" dominant-baseline="alphabetic">EnterVehicle(FA-18C_hornet)</text></g><g><path fill="none" stroke="black" paint-order="fill stroke markers" d=" M 452.75083671231766 3534.4479380209973 L 518.0916499123176 3534.4479380209973 L 518.0916499123176 3555.6837023109974 L 455.473370595651 3555.6837023109974" stroke-miterlimit="10" stroke-width="1.3612669416666667" stroke-dasharray=""/><g transform="translate(452.75083671231766,3555.6837023109974) translate(-452.75083671231766,-3555.6837023109974)"><path fill="black" stroke="none" paint-order="stroke fill markers" d=" M 466.36350612898434 3548.877367602664 L 452.75083671231766 3555.6837023109974 L 466.36350612898434 3562.490037019331 Z"/></g></g><g><g><rect fill="white" stroke="none" x="228.0586461908854" y="3580.186507260997" width="201.27839912476563" height="21.23576429"/></g><text fill="black" stroke="none" font-family="sans-serif" font-size="11pt" font-style="normal" font-weight="normal" text-decoration="normal" x="230.5089266858854" y="3594.888190230997" text-anchor="start" dominant-baseline="alphabetic">ActiveVehicle(FA-18C_hornet)</text></g><g><path fill="none" stroke="black" paint-order="fill stroke markers" d=" M 452.75083671231766 3601.4222715509973 L 212.81245644421872 3601.4222715509973" stroke-miterlimit="10" stroke-width="1.3612669416666667" stroke-dasharray=""/><path fill="none" stroke="black" paint-order="fill stroke markers" d=" M 204.64485479421873 3593.254669900997 L 220.98005809421872 3609.5898732009973 M 204.64485479421873 3609.5898732009973 L 220.98005809421872 3593.254669900997" stroke-miterlimit="10" stroke-width="1.3612669416666667"/></g><g><g><rect fill="white" stroke="none" x="472.0808272839843" y="3625.9250765009974" width="194.77879585328125" height="21.23576429"/></g><text fill="black" stroke="none" font-family="sans-serif" font-size="11pt" font-style="normal" font-weight="normal" text-decoration="normal" x="474.53110777898434" y="3640.6267594709975" text-anchor="start" dominant-baseline="alphabetic">LoadModule(FA-18C_hornet)</text></g><g><path fill="none" stroke="black" paint-order="fill stroke markers" d=" M 452.75083671231766 3647.160840790997 L 518.0916499123176 3647.160840790997 L 518.0916499123176 3668.3966050809972 L 469.08604001231765 3668.3966050809972" stroke-miterlimit="10" stroke-width="1.3612669416666667" stroke-dasharray=""/><path fill="none" stroke="black" paint-order="fill stroke markers" d=" M 460.91843836231766 3660.229003430997 L 477.25364166231765 3676.5642067309973 M 460.91843836231766 3676.5642067309973 L 477.25364166231765 3660.229003430997" stroke-miterlimit="10" stroke-width="1.3612669416666667"/></g><path fill="white" stroke="black" paint-order="fill stroke markers" d=" M 247.35835873294266 3692.8994100309974 L 643.4416317216927 3692.8994100309974 L 658.1433146916927 3707.6010930009975 L 658.1433146916927 3730.470377620997 L 247.35835873294266 3730.470377620997 L 247.35835873294266 3692.8994100309974 M 643.4416317216927 3692.8994100309974 L 643.4416317216927 3707.6010930009975 L 658.1433146916927 3707.6010930009975" stroke-miterlimit="10" stroke-width="1.3612669416666667" stroke-dasharray=""/><g><text fill="black" stroke="none" font-family="sans-serif" font-size="11pt" font-style="normal" font-weight="normal" text-decoration="normal" x="270.22764335294266" y="3715.7686946509975" text-anchor="start" dominant-baseline="alphabetic">must not have matching module installed for this to work</text></g><g><g><rect fill="white" stroke="none" x="472.0808272839843" y="3754.9731825709973" width="185.78808845582031" height="21.23576429"/></g><text fill="black" stroke="none" font-family="sans-serif" font-size="11pt" font-style="normal" font-weight="normal" text-decoration="normal" x="474.53110777898434" y="3769.6748655409974" text-anchor="start" dominant-baseline="alphabetic">LoadDriver(FA-18C_hornet)</text></g><g><path fill="none" stroke="black" paint-order="fill stroke markers" d=" M 452.75083671231766 3776.208946860997 L 518.0916499123176 3776.208946860997 L 518.0916499123176 3797.444711150997 L 455.473370595651 3797.444711150997" stroke-miterlimit="10" stroke-width="1.3612669416666667" stroke-dasharray=""/><g transform="translate(452.75083671231766,3797.444711150997) translate(-452.75083671231766,-3797.444711150997)"><path fill="black" stroke="none" paint-order="stroke fill markers" d=" M 466.36350612898434 3790.6383764426637 L 452.75083671231766 3797.444711150997 L 466.36350612898434 3804.2510458593306 Z"/></g></g><g><g><rect fill="white" stroke="none" x="232.14955042672526" y="3821.947516100997" width="193.09659065308594" height="21.23576429"/></g><text fill="black" stroke="none" font-family="sans-serif" font-size="11pt" font-style="normal" font-weight="normal" text-decoration="normal" x="234.59983092172524" y="3836.649199070997" text-anchor="start" dominant-baseline="alphabetic">ActiveDriver(FA-18C_hornet)</text></g><g><path fill="none" stroke="black" paint-order="fill stroke markers" d=" M 452.75083671231766 3843.183280390997 L 212.81245644421872 3843.183280390997" stroke-miterlimit="10" stroke-width="1.3612669416666667" stroke-dasharray=""/><path fill="none" stroke="black" paint-order="fill stroke markers" d=" M 204.64485479421873 3835.015678740997 L 220.98005809421872 3851.350882040997 M 204.64485479421873 3851.350882040997 L 220.98005809421872 3835.015678740997" stroke-miterlimit="10" stroke-width="1.3612669416666667"/></g><g><g><rect fill="white" stroke="none" x="215.80724371588542" y="3867.686085340997" width="191.48602546753906" height="21.23576429"/></g><text fill="black" stroke="none" font-family="sans-serif" font-size="11pt" font-style="normal" font-weight="normal" text-decoration="normal" x="218.2575242108854" y="3882.387768310997" text-anchor="start" dominant-baseline="alphabetic">Start(my_F18_profile_name)</text></g><g><path fill="none" stroke="black" paint-order="fill stroke markers" d=" M 196.47725314421874 3888.921849630997 L 261.8180663442187 3888.921849630997 L 261.8180663442187 3910.157613920997 L 199.19978702755208 3910.157613920997" stroke-miterlimit="10" stroke-width="1.3612669416666667" stroke-dasharray=""/><g transform="translate(196.47725314421874,3910.157613920997) translate(-196.47725314421874,-3910.157613920997)"><path fill="black" stroke="none" paint-order="stroke fill markers" d=" M 210.0899225608854 3903.3512792126635 L 196.47725314421874 3910.157613920997 L 210.0899225608854 3916.9639486293304 Z"/></g></g><g><g><rect fill="white" stroke="none" x="256.99206446481116" y="3934.6604188709966" width="143.41156257691406" height="21.23576429"/></g><text fill="black" stroke="none" font-family="sans-serif" font-size="11pt" font-style="normal" font-weight="normal" text-decoration="normal" x="259.4423449598112" y="3949.3621018409967" text-anchor="start" dominant-baseline="alphabetic">ActiveVehicle(A-10C)</text></g><g><path fill="none" stroke="black" paint-order="fill stroke markers" d=" M 452.75083671231766 3955.8961831609968 L 212.81245644421872 3955.8961831609968" stroke-miterlimit="10" stroke-width="1.3612669416666667" stroke-dasharray=""/><path fill="none" stroke="black" paint-order="fill stroke markers" d=" M 204.64485479421873 3947.7285815109967 L 220.98005809421872 3964.063784810997 M 204.64485479421873 3964.063784810997 L 220.98005809421872 3947.7285815109967" stroke-miterlimit="10" stroke-width="1.3612669416666667"/></g><g><g><rect fill="white" stroke="none" x="232.14955042672526" y="3980.3989881109965" width="193.09659065308594" height="21.23576429"/></g><text fill="black" stroke="none" font-family="sans-serif" font-size="11pt" font-style="normal" font-weight="normal" text-decoration="normal" x="234.59983092172524" y="3995.1006710809966" text-anchor="start" dominant-baseline="alphabetic">ActiveDriver(FA-18C_hornet)</text></g><g><path fill="none" stroke="black" paint-order="fill stroke markers" d=" M 452.75083671231766 4001.6347524009966 L 212.81245644421872 4001.6347524009966" stroke-miterlimit="10" stroke-width="1.3612669416666667" stroke-dasharray=""/><path fill="none" stroke="black" paint-order="fill stroke markers" d=" M 204.64485479421873 3993.4671507509966 L 220.98005809421872 4009.8023540509967 M 204.64485479421873 4009.8023540509967 L 220.98005809421872 3993.4671507509966" stroke-miterlimit="10" stroke-width="1.3612669416666667"/></g><path fill="white" stroke="black" paint-order="fill stroke markers" d=" M 123.22861213994139 4026.1375573509968 L 255.02421117849607 4026.1375573509968 L 269.7258941484961 4040.839240320997 L 269.7258941484961 4063.7085249409965 L 123.22861213994139 4063.7085249409965 L 123.22861213994139 4026.1375573509968 M 255.02421117849607 4026.1375573509968 L 255.02421117849607 4040.839240320997 L 269.7258941484961 4040.839240320997" stroke-miterlimit="10" stroke-width="1.3612669416666667" stroke-dasharray=""/><g><text fill="black" stroke="none" font-family="sans-serif" font-size="11pt" font-style="normal" font-weight="normal" text-decoration="normal" x="146.0978967599414" y="4049.006841970997" text-anchor="start" dominant-baseline="alphabetic">Works as today</text></g><g><g><rect fill="white" stroke="none" x="472.0808272839843" y="4156.819183750997" width="138.52968086304688" height="21.23576429"/></g><text fill="black" stroke="none" font-family="sans-serif" font-size="11pt" font-style="normal" font-weight="normal" text-decoration="normal" x="474.53110777898434" y="4171.520866720997" text-anchor="start" dominant-baseline="alphabetic">EnterVehicle(A-10C)</text></g><g><path fill="none" stroke="black" paint-order="fill stroke markers" d=" M 452.75083671231766 4178.054948040997 L 518.0916499123176 4178.054948040997 L 518.0916499123176 4199.290712330997 L 455.473370595651 4199.290712330997" stroke-miterlimit="10" stroke-width="1.3612669416666667" stroke-dasharray=""/><g transform="translate(452.75083671231766,4199.290712330997) translate(-452.75083671231766,-4199.290712330997)"><path fill="black" stroke="none" paint-order="stroke fill markers" d=" M 466.36350612898434 4192.4843776226635 L 452.75083671231766 4199.290712330997 L 466.36350612898434 4206.09704703933 Z"/></g></g><g><g><rect fill="white" stroke="none" x="256.99206446481116" y="4223.793517280998" width="143.41156257691406" height="21.23576429"/></g><text fill="black" stroke="none" font-family="sans-serif" font-size="11pt" font-style="normal" font-weight="normal" text-decoration="normal" x="259.4423449598112" y="4238.495200250998" text-anchor="start" dominant-baseline="alphabetic">ActiveVehicle(A-10C)</text></g><g><path fill="none" stroke="black" paint-order="fill stroke markers" d=" M 452.75083671231766 4245.029281570997 L 212.81245644421872 4245.029281570997" stroke-miterlimit="10" stroke-width="1.3612669416666667" stroke-dasharray=""/><path fill="none" stroke="black" paint-order="fill stroke markers" d=" M 204.64485479421873 4236.861679920998 L 220.98005809421872 4253.196883220997 M 204.64485479421873 4253.196883220997 L 220.98005809421872 4236.861679920998" stroke-miterlimit="10" stroke-width="1.3612669416666667"/></g><g><g><rect fill="white" stroke="none" x="472.0808272839843" y="4269.532086520997" width="180.92053474488281" height="21.23576429"/></g><text fill="black" stroke="none" font-family="sans-serif" font-size="11pt" font-style="normal" font-weight="normal" text-decoration="normal" x="474.53110777898434" y="4284.2337694909975" text-anchor="start" dominant-baseline="alphabetic">LoadModule(Helios_A10C)</text></g><g><path fill="none" stroke="black" paint-order="fill stroke markers" d=" M 452.75083671231766 4290.7678508109975 L 518.0916499123176 4290.7678508109975 L 518.0916499123176 4312.003615100997 L 455.473370595651 4312.003615100997" stroke-miterlimit="10" stroke-width="1.3612669416666667" stroke-dasharray=""/><g transform="translate(452.75083671231766,4312.003615100997) translate(-452.75083671231766,-4312.003615100997)"><path fill="black" stroke="none" paint-order="stroke fill markers" d=" M 466.36350612898434 4305.197280392664 L 452.75083671231766 4312.003615100997 L 466.36350612898434 4318.809949809331 Z"/></g></g><g><g><rect fill="white" stroke="none" x="232.1423864252604" y="4336.506420050998" width="193.11091865601563" height="21.23576429"/></g><text fill="black" stroke="none" font-family="sans-serif" font-size="11pt" font-style="normal" font-weight="normal" text-decoration="normal" x="234.5926669202604" y="4351.208103020998" text-anchor="start" dominant-baseline="alphabetic">ActiveModule(Helios_A-10C)</text></g><g><path fill="none" stroke="black" paint-order="fill stroke markers" d=" M 452.75083671231766 4357.7421843409975 L 212.81245644421872 4357.7421843409975" stroke-miterlimit="10" stroke-width="1.3612669416666667" stroke-dasharray=""/><path fill="none" stroke="black" paint-order="fill stroke markers" d=" M 204.64485479421873 4349.574582690998 L 220.98005809421872 4365.909785990997 M 204.64485479421873 4365.909785990997 L 220.98005809421872 4349.574582690998" stroke-miterlimit="10" stroke-width="1.3612669416666667"/></g><g><g><rect fill="white" stroke="none" x="215.80724371588542" y="4382.244989290997" width="191.48602546753906" height="21.23576429"/></g><text fill="black" stroke="none" font-family="sans-serif" font-size="11pt" font-style="normal" font-weight="normal" text-decoration="normal" x="218.2575242108854" y="4396.946672260998" text-anchor="start" dominant-baseline="alphabetic">Start(my_F18_profile_name)</text></g><g><path fill="none" stroke="black" paint-order="fill stroke markers" d=" M 196.47725314421874 4403.480753580998 L 261.8180663442187 4403.480753580998 L 261.8180663442187 4424.716517870997 L 199.19978702755208 4424.716517870997" stroke-miterlimit="10" stroke-width="1.3612669416666667" stroke-dasharray=""/><g transform="translate(196.47725314421874,4424.716517870997) translate(-196.47725314421874,-4424.716517870997)"><path fill="black" stroke="none" paint-order="stroke fill markers" d=" M 210.0899225608854 4417.910183162664 L 196.47725314421874 4424.716517870997 L 210.0899225608854 4431.522852579331 Z"/></g></g><g><g><rect fill="white" stroke="none" x="256.99206446481116" y="4449.219322820998" width="143.41156257691406" height="21.23576429"/></g><text fill="black" stroke="none" font-family="sans-serif" font-size="11pt" font-style="normal" font-weight="normal" text-decoration="normal" x="259.4423449598112" y="4463.921005790999" text-anchor="start" dominant-baseline="alphabetic">ActiveVehicle(A-10C)</text></g><g><path fill="none" stroke="black" paint-order="fill stroke markers" d=" M 452.75083671231766 4470.455087110998 L 212.81245644421872 4470.455087110998" stroke-miterlimit="10" stroke-width="1.3612669416666667" stroke-dasharray=""/><path fill="none" stroke="black" paint-order="fill stroke markers" d=" M 204.64485479421873 4462.287485460998 L 220.98005809421872 4478.622688760997 M 204.64485479421873 4478.622688760997 L 220.98005809421872 4462.287485460998" stroke-miterlimit="10" stroke-width="1.3612669416666667"/></g><g><g><rect fill="white" stroke="none" x="232.1423864252604" y="4494.957892060998" width="193.11091865601563" height="21.23576429"/></g><text fill="black" stroke="none" font-family="sans-serif" font-size="11pt" font-style="normal" font-weight="normal" text-decoration="normal" x="234.5926669202604" y="4509.659575030999" text-anchor="start" dominant-baseline="alphabetic">ActiveModule(Helios_A-10C)</text></g><g><path fill="none" stroke="black" paint-order="fill stroke markers" d=" M 452.75083671231766 4516.193656350998 L 212.81245644421872 4516.193656350998" stroke-miterlimit="10" stroke-width="1.3612669416666667" stroke-dasharray=""/><path fill="none" stroke="black" paint-order="fill stroke markers" d=" M 204.64485479421873 4508.026054700998 L 220.98005809421872 4524.361258000998 M 204.64485479421873 4524.361258000998 L 220.98005809421872 4508.026054700998" stroke-miterlimit="10" stroke-width="1.3612669416666667"/></g><path fill="white" stroke="black" paint-order="fill stroke markers" d=" M 91.31022377324217 4540.696461300999 L 286.9425995451953 4540.696461300999 L 301.6442825151953 4555.398144270998 L 301.6442825151953 4578.267428890998 L 91.31022377324217 4578.267428890998 L 91.31022377324217 4540.696461300999 M 286.9425995451953 4540.696461300999 L 286.9425995451953 4555.398144270998 L 301.6442825151953 4555.398144270998" stroke-miterlimit="10" stroke-width="1.3612669416666667" stroke-dasharray=""/><g><text fill="black" stroke="none" font-family="sans-serif" font-size="11pt" font-style="normal" font-weight="normal" text-decoration="normal" x="114.17950839324217" y="4563.565745920999" text-anchor="start" dominant-baseline="alphabetic">Fails just as it does today</text></g><g><g/><path fill="none" stroke="black" paint-order="fill stroke markers" d=" M 16.33520329999999 128.55804997099997 L 662.7344302541796 128.55804997099997 L 662.7344302541796 889.7785237509999 L 16.33520329999999 889.7785237509999 L 16.33520329999999 128.55804997099997 Z" stroke-miterlimit="10" stroke-width="2.3336004714285714" stroke-dasharray=""/><path fill="white" stroke="black" paint-order="fill stroke markers" d=" M 16.33520329999999 128.55804997099997 L 16.33520329999999 148.16029393099998 L 221.72506180429687 148.16029393099998 L 231.52618378429688 138.35917195099998 L 231.52618378429688 128.55804997099997 L 16.33520329999999 128.55804997099997" stroke-miterlimit="10" stroke-width="2.3336004714285714" stroke-dasharray=""/><text fill="black" stroke="none" font-family="sans-serif" font-size="8.8pt" font-style="normal" font-weight="bold" text-decoration="normal" x="32.67040659999999" y="141.62621261099997" text-anchor="start" dominant-baseline="alphabetic">1: Helios using its own exports</text></g><g><g/><path fill="none" stroke="black" paint-order="fill stroke markers" d=" M 16.33520329999999 914.2813287009998 L 662.7344302541796 914.2813287009998 L 662.7344302541796 1675.501802481 L 16.33520329999999 1675.501802481 L 16.33520329999999 914.2813287009998 Z" stroke-miterlimit="10" stroke-width="2.3336004714285714" stroke-dasharray=""/><path fill="white" stroke="black" paint-order="fill stroke markers" d=" M 16.33520329999999 914.2813287009998 L 16.33520329999999 933.8835726609998 L 331.21825638437497 933.8835726609998 L 341.019378364375 924.0824506809997 L 341.019378364375 914.2813287009998 L 16.33520329999999 914.2813287009998" stroke-miterlimit="10" stroke-width="2.3336004714285714" stroke-dasharray=""/><text fill="black" stroke="none" font-family="sans-serif" font-size="8.8pt" font-style="normal" font-weight="bold" text-decoration="normal" x="32.67040659999999" y="927.3494913409997" text-anchor="start" dominant-baseline="alphabetic">1b: Helios using its own exports (CZ profile active)</text></g><g><g/><path fill="none" stroke="black" paint-order="fill stroke markers" d=" M 16.73962224531249 1700.004607431 L 658.7186831838671 1700.004607431 L 658.7186831838671 2302.7736092009995 L 16.73962224531249 2302.7736092009995 L 16.73962224531249 1700.004607431 Z" stroke-miterlimit="10" stroke-width="2.3336004714285714" stroke-dasharray=""/><path fill="white" stroke="black" paint-order="fill stroke markers" d=" M 16.73962224531249 1700.004607431 L 16.73962224531249 1719.606851391 L 231.90064469003906 1719.606851391 L 241.70176667003906 1709.8057294110001 L 241.70176667003906 1700.004607431 L 16.73962224531249 1700.004607431" stroke-miterlimit="10" stroke-width="2.3336004714285714" stroke-dasharray=""/><text fill="black" stroke="none" font-family="sans-serif" font-size="8.8pt" font-style="normal" font-weight="bold" text-decoration="normal" x="33.07482554531249" y="1713.072770071" text-anchor="start" dominant-baseline="alphabetic">2: Helios using Capt Zeen profile</text></g><g><g/><path fill="none" stroke="black" paint-order="fill stroke markers" d=" M 16.73962224531249 2327.2764141509992 L 658.7186831838671 2327.2764141509992 L 658.7186831838671 2930.0454159209985 L 16.73962224531249 2930.0454159209985 L 16.73962224531249 2327.2764141509992 Z" stroke-miterlimit="10" stroke-width="2.3336004714285714" stroke-dasharray=""/><path fill="white" stroke="black" paint-order="fill stroke markers" d=" M 16.73962224531249 2327.2764141509992 L 16.73962224531249 2346.8786581109994 L 293.1909431519531 2346.8786581109994 L 302.9920651319531 2337.0775361309993 L 302.9920651319531 2327.2764141509992 L 16.73962224531249 2327.2764141509992" stroke-miterlimit="10" stroke-width="2.3336004714285714" stroke-dasharray=""/><text fill="black" stroke="none" font-family="sans-serif" font-size="8.8pt" font-style="normal" font-weight="bold" text-decoration="normal" x="33.07482554531249" y="2340.3445767909993" text-anchor="start" dominant-baseline="alphabetic">2b: Helios active profile is Capt Zeen profile</text></g><g><g/><path fill="none" stroke="black" paint-order="fill stroke markers" d=" M 115.0610104899414 2954.548220870998 L 658.7186831838671 2954.548220870998 L 658.7186831838671 3444.6043198709976 L 115.0610104899414 3444.6043198709976 L 115.0610104899414 2954.548220870998 Z" stroke-miterlimit="10" stroke-width="2.3336004714285714" stroke-dasharray=""/><path fill="white" stroke="black" paint-order="fill stroke markers" d=" M 115.0610104899414 2954.548220870998 L 115.0610104899414 2974.1504648309983 L 386.27740708017575 2974.1504648309983 L 396.07852906017575 2964.3493428509983 L 396.07852906017575 2954.548220870998 L 115.0610104899414 2954.548220870998" stroke-miterlimit="10" stroke-width="2.3336004714285714" stroke-dasharray=""/><text fill="black" stroke="none" font-family="sans-serif" font-size="8.8pt" font-style="normal" font-weight="bold" text-decoration="normal" x="131.39621378994138" y="2967.6163835109983" text-anchor="start" dominant-baseline="alphabetic">3: Legacy Helios running Capt Zeen profile</text></g><g><g/><path fill="none" stroke="black" paint-order="fill stroke markers" d=" M 115.0610104899414 3469.1071248209973 L 674.1946658498828 3469.1071248209973 L 674.1946658498828 4088.2113298909967 L 115.0610104899414 4088.2113298909967 L 115.0610104899414 3469.1071248209973 Z" stroke-miterlimit="10" stroke-width="2.3336004714285714" stroke-dasharray=""/><path fill="white" stroke="black" paint-order="fill stroke markers" d=" M 115.0610104899414 3469.1071248209973 L 115.0610104899414 3488.7093687809975 L 444.2800621094726 3488.7093687809975 L 454.08118408947263 3478.9082468009974 L 454.08118408947263 3469.1071248209973 L 115.0610104899414 3469.1071248209973" stroke-miterlimit="10" stroke-width="2.3336004714285714" stroke-dasharray=""/><text fill="black" stroke="none" font-family="sans-serif" font-size="8.8pt" font-style="normal" font-weight="bold" text-decoration="normal" x="131.39621378994138" y="3482.1752874609974" text-anchor="start" dominant-baseline="alphabetic">4: Legacy Helios running Profile with its own Exports</text></g><g><g/><path fill="none" stroke="black" paint-order="fill stroke markers" d=" M 83.14262212324218 4112.714134840997 L 658.7186831838671 4112.714134840997 L 658.7186831838671 4602.770233840998 L 83.14262212324218 4602.770233840998 L 83.14262212324218 4112.714134840997 Z" stroke-miterlimit="10" stroke-width="2.3336004714285714" stroke-dasharray=""/><path fill="white" stroke="black" paint-order="fill stroke markers" d=" M 83.14262212324218 4112.714134840997 L 83.14262212324218 4132.316378800997 L 345.8879951539062 4132.316378800997 L 355.6891171339062 4122.515256820997 L 355.6891171339062 4112.714134840997 L 83.14262212324218 4112.714134840997" stroke-miterlimit="10" stroke-width="2.3336004714285714" stroke-dasharray=""/><text fill="black" stroke="none" font-family="sans-serif" font-size="8.8pt" font-style="normal" font-weight="bold" text-decoration="normal" x="99.47782542324218" y="4125.782297480997" text-anchor="start" dominant-baseline="alphabetic">100: Legacy Helios running wrong profile</text></g></g><g/><g/></g></svg>