<svg version="1.1" xmlns="http://www.w3.org/2000/svg" xmlns:xlink="http://www.w3.org/1999/xlink" width="690" height="4751"><defs/><g><g/><g/><g/><g/><g/><g/><g/><g/><g/><g/><g/><g/><g/><g/><g/><g/><g/><g/><g/><g/><g/><g/><g/><g/><g/><g/><g/><g/><g/><g/><g/><g/><g/><g/><g/><g/><g/><g/><g/><g/><g/><g/><g/><g/><g/><g/><g/><g/><g/><g/><g/><g/><g/><g/><g/><g/><g/><g/><g/><g/><g/><g/><g/><g/><g/><g/><g/><g/><g/><g/><g/><g/><g/><g/><g><rect fill="white" stroke="none" x="0" y="0" width="690" height="4751"/></g><g><text fill="black" stroke="none" font-family="sans-serif" font-size="16.5pt" font-style="normal" font-weight="normal" text-decoration="normal" x="109.87137988744138" y="24.50280495" text-anchor="start" dominant-baseline="alphabetic">Helios Auto Start (https://sequencediagram.org/)</text></g><g/><g><path fill="none" stroke="black" paint-order="fill stroke markers" d=" M 196.47725314421874 95.887643371 L 196.47725314421874 4751.420583870998" stroke-miterlimit="10" stroke-width="1.3612669416666667" stroke-dasharray="12.565541,5.445067766666667"/><path fill="none" stroke="black" paint-order="fill stroke markers" d=" M 452.75083671231766 95.887643371 L 452.75083671231766 4751.420583870998" stroke-miterlimit="10" stroke-width="1.3612669416666667" stroke-dasharray="12.565541,5.445067766666667"/></g><g><path fill="none" stroke="none"/><g><path fill="white" stroke="black" paint-order="fill stroke markers" d=" M 158.3849204787578 51.782594461 L 234.5695858096797 51.782594461 L 234.5695858096797 95.887643371 L 158.3849204787578 95.887643371 L 158.3849204787578 51.782594461 Z" stroke-miterlimit="10" stroke-width="2.613632528" stroke-dasharray=""/></g><g><g/><text fill="black" stroke="none" font-family="sans-serif" font-size="11pt" font-style="normal" font-weight="normal" text-decoration="normal" x="176.1086160592578" y="79.55244007099999" text-anchor="start" dominant-baseline="alphabetic">Helios</text></g><path fill="none" stroke="none"/><g><path fill="white" stroke="black" paint-order="fill stroke markers" d=" M 413.84247163718874 51.782594461 L 491.6592017874466 51.782594461 L 491.6592017874466 95.887643371 L 413.84247163718874 95.887643371 L 413.84247163718874 51.782594461 Z" stroke-miterlimit="10" stroke-width="2.613632528" stroke-dasharray=""/></g><g><g/><text fill="black" stroke="none" font-family="sans-serif" font-size="11pt" font-style="normal" font-weight="normal" text-decoration="normal" x="431.56616721768876" y="79.55244007099999" text-anchor="start" dominant-baseline="alphabetic">Export</text></g></g><g><g><g><rect fill="white" stroke="none" x="472.0808272839843" y="172.663098881" width="138.52968086304688" height="21.23576429"/></g><text fill="black" stroke="none" font-family="sans-serif" font-size="11pt" font-style="normal" font-weight="normal" text-decoration="normal" x="474.53110777898434" y="187.36478185099998" text-anchor="start" dominant-baseline="alphabetic">EnterVehicle(A-10C)</text></g><g><path fill="none" stroke="black" paint-order="fill stroke markers" d=" M 452.75083671231766 193.898863171 L 518.0916499123176 193.898863171 L 518.0916499123176 215.13462746099998 L 455.473370595651 215.13462746099998" stroke-miterlimit="10" stroke-width="1.3612669416666667" stroke-dasharray=""/><g transform="translate(452.75083671231766,215.13462746099998) translate(-452.75083671231766,-215.13462746099998)"><path fill="black" stroke="none" paint-order="stroke fill markers" d=" M 466.36350612898434 208.32829275266664 L 452.75083671231766 215.13462746099998 L 466.36350612898434 221.94096216933332 Z"/></g></g><g><g><rect fill="white" stroke="none" x="472.0808272839843" y="239.63743241100002" width="180.92053474488281" height="21.23576429"/></g><text fill="black" stroke="none" font-family="sans-serif" font-size="11pt" font-style="normal" font-weight="normal" text-decoration="normal" x="474.53110777898434" y="254.339115381" text-anchor="start" dominant-baseline="alphabetic">LoadModule(Helios_A10C)</text></g><g><path fill="none" stroke="black" paint-order="fill stroke markers" d=" M 452.75083671231766 260.873196701 L 518.0916499123176 260.873196701 L 518.0916499123176 282.108960991 L 455.473370595651 282.108960991" stroke-miterlimit="10" stroke-width="1.3612669416666667" stroke-dasharray=""/><g transform="translate(452.75083671231766,282.108960991) translate(-452.75083671231766,-282.108960991)"><path fill="black" stroke="none" paint-order="stroke fill markers" d=" M 466.36350612898434 275.30262628266667 L 452.75083671231766 282.108960991 L 466.36350612898434 288.91529569933334 Z"/></g></g><g><g><rect fill="white" stroke="none" x="256.99206446481116" y="306.611765941" width="143.41156257691406" height="21.23576429"/></g><text fill="black" stroke="none" font-family="sans-serif" font-size="11pt" font-style="normal" font-weight="normal" text-decoration="normal" x="259.4423449598112" y="321.31344891099997" text-anchor="start" dominant-baseline="alphabetic">ActiveVehicle(A-10C)</text></g><g><path fill="none" stroke="black" paint-order="fill stroke markers" d=" M 452.75083671231766 327.847530231 L 212.81245644421872 327.847530231" stroke-miterlimit="10" stroke-width="1.3612669416666667" stroke-dasharray=""/><path fill="none" stroke="black" paint-order="fill stroke markers" d=" M 204.64485479421873 319.679928581 L 220.98005809421872 336.015131881 M 204.64485479421873 336.015131881 L 220.98005809421872 319.679928581" stroke-miterlimit="10" stroke-width="1.3612669416666667"/></g><g><g><rect fill="white" stroke="none" x="234.583327282194" y="352.350335181" width="188.22903694214844" height="21.23576429"/></g><text fill="black" stroke="none" font-family="sans-serif" font-size="11pt" font-style="normal" font-weight="normal" text-decoration="normal" x="237.033607777194" y="367.05201815099997" text-anchor="start" dominant-baseline="alphabetic">ActiveModule(Helios_A10C)</text></g><g><path fill="none" stroke="black" paint-order="fill stroke markers" d=" M 452.75083671231766 373.586099471 L 212.81245644421872 373.586099471" stroke-miterlimit="10" stroke-width="1.3612669416666667" stroke-dasharray=""/><path fill="none" stroke="black" paint-order="fill stroke markers" d=" M 204.64485479421873 365.418497821 L 220.98005809421872 381.753701121 M 204.64485479421873 381.753701121 L 220.98005809421872 365.418497821" stroke-miterlimit="10" stroke-width="1.3612669416666667"/></g><g><g><rect fill="white" stroke="none" x="215.80724371588542" y="398.088904421" width="191.48602546753906" height="21.23576429"/></g><text fill="black" stroke="none" font-family="sans-serif" font-size="11pt" font-style="normal" font-weight="normal" text-decoration="normal" x="218.2575242108854" y="412.790587391" text-anchor="start" dominant-baseline="alphabetic">Start(my_F18_profile_name)</text></g><g><path fill="none" stroke="black" paint-order="fill stroke markers" d=" M 196.47725314421874 419.32466871099996 L 261.8180663442187 419.32466871099996 L 261.8180663442187 440.560433001 L 199.19978702755208 440.560433001" stroke-miterlimit="10" stroke-width="1.3612669416666667" stroke-dasharray=""/><g transform="translate(196.47725314421874,440.560433001) translate(-196.47725314421874,-440.560433001)"><path fill="black" stroke="none" paint-order="stroke fill markers" d=" M 210.0899225608854 433.75409829266664 L 196.47725314421874 440.560433001 L 210.0899225608854 447.3667677093333 Z"/></g></g><g><g><rect fill="white" stroke="none" x="231.72000070035804" y="465.06323795099996" width="185.78808845582031" height="21.23576429"/></g><text fill="black" stroke="none" font-family="sans-serif" font-size="11pt" font-style="normal" font-weight="normal" text-decoration="normal" x="234.17028119535803" y="479.76492092099994" text-anchor="start" dominant-baseline="alphabetic">LoadDriver(FA-18C_hornet)</text></g><g><path fill="none" stroke="black" paint-order="fill stroke markers" d=" M 196.47725314421874 486.299002241 L 450.02830282898435 486.299002241" stroke-miterlimit="10" stroke-width="1.3612669416666667" stroke-dasharray=""/><g transform="translate(452.75083671231766,486.299002241) translate(-452.75083671231766,-486.299002241)"><path fill="black" stroke="none" paint-order="stroke fill markers" d=" M 439.138167295651 479.49266753266664 L 452.75083671231766 486.299002241 L 439.138167295651 493.1053369493333 Z"/></g></g><g><g><rect fill="white" stroke="none" x="252.90826363981117" y="510.80180719099997" width="143.41156257691406" height="21.23576429"/></g><text fill="black" stroke="none" font-family="sans-serif" font-size="11pt" font-style="normal" font-weight="normal" text-decoration="normal" x="255.35854413481115" y="525.503490161" text-anchor="start" dominant-baseline="alphabetic">ActiveVehicle(A-10C)</text></g><g><path fill="none" stroke="black" paint-order="fill stroke markers" d=" M 452.75083671231766 532.037571481 L 199.19978702755208 532.037571481" stroke-miterlimit="10" stroke-width="1.3612669416666667" stroke-dasharray=""/><g transform="translate(196.47725314421874,532.037571481) translate(-196.47725314421874,-532.037571481)"><path fill="black" stroke="none" paint-order="stroke fill markers" d=" M 210.0899225608854 525.2312367726666 L 196.47725314421874 532.037571481 L 210.0899225608854 538.8439061893333 Z"/></g></g><g><g><rect fill="white" stroke="none" x="230.49952645719398" y="556.5403764309999" width="188.22903694214844" height="21.23576429"/></g><text fill="black" stroke="none" font-family="sans-serif" font-size="11pt" font-style="normal" font-weight="normal" text-decoration="normal" x="232.94980695219397" y="571.2420594009999" text-anchor="start" dominant-baseline="alphabetic">ActiveModule(Helios_A10C)</text></g><g><path fill="none" stroke="black" paint-order="fill stroke markers" d=" M 452.75083671231766 577.7761407209999 L 199.19978702755208 577.7761407209999" stroke-miterlimit="10" stroke-width="1.3612669416666667" stroke-dasharray=""/><g transform="translate(196.47725314421874,577.7761407209999) translate(-196.47725314421874,-577.7761407209999)"><path fill="black" stroke="none" paint-order="stroke fill markers" d=" M 210.0899225608854 570.9698060126666 L 196.47725314421874 577.7761407209999 L 210.0899225608854 584.5824754293333 Z"/></g></g><path fill="white" stroke="black" paint-order="fill stroke markers" d=" M 24.50280494999999 602.278945671 L 353.7500183684375 602.278945671 L 368.4517013384375 616.980628641 L 368.4517013384375 639.849913261 L 24.50280494999999 639.849913261 L 24.50280494999999 602.278945671 M 353.7500183684375 602.278945671 L 353.7500183684375 616.980628641 L 368.4517013384375 616.980628641" stroke-miterlimit="10" stroke-width="1.3612669416666667" stroke-dasharray=""/><g><text fill="black" stroke="none" font-family="sans-serif" font-size="11pt" font-style="normal" font-weight="normal" text-decoration="normal" x="47.372089569999986" y="625.148230291" text-anchor="start" dominant-baseline="alphabetic">Most recent A-10C profile uses Helios exports</text></g><g><g><rect fill="white" stroke="none" x="260.6534189742838" y="664.3527182109999" width="127.92125190796875" height="21.23576429"/></g><text fill="black" stroke="none" font-family="sans-serif" font-size="11pt" font-style="normal" font-weight="normal" text-decoration="normal" x="263.1036994692838" y="679.0544011809999" text-anchor="start" dominant-baseline="alphabetic">LoadDriver(A-10C)</text></g><g><path fill="none" stroke="black" paint-order="fill stroke markers" d=" M 196.47725314421874 685.5884825009999 L 450.02830282898435 685.5884825009999" stroke-miterlimit="10" stroke-width="1.3612669416666667" stroke-dasharray=""/><g transform="translate(452.75083671231766,685.5884825009999) translate(-452.75083671231766,-685.5884825009999)"><path fill="black" stroke="none" paint-order="stroke fill markers" d=" M 439.138167295651 678.7821477926666 L 452.75083671231766 685.5884825009999 L 439.138167295651 692.3948172093333 Z"/></g></g><g><g><rect fill="white" stroke="none" x="472.0808272839843" y="710.0912874509999" width="184.93628181519531" height="21.23576429"/></g><text fill="black" stroke="none" font-family="sans-serif" font-size="11pt" font-style="normal" font-weight="normal" text-decoration="normal" x="474.53110777898434" y="724.7929704209998" text-anchor="start" dominant-baseline="alphabetic">SwitchFromModuleToDriver</text></g><g><path fill="none" stroke="black" paint-order="fill stroke markers" d=" M 452.75083671231766 731.3270517409999 L 518.0916499123176 731.3270517409999 L 518.0916499123176 752.5628160309999 L 455.473370595651 752.5628160309999" stroke-miterlimit="10" stroke-width="1.3612669416666667" stroke-dasharray=""/><g transform="translate(452.75083671231766,752.5628160309999) translate(-452.75083671231766,-752.5628160309999)"><path fill="black" stroke="none" paint-order="stroke fill markers" d=" M 466.36350612898434 745.7564813226666 L 452.75083671231766 752.5628160309999 L 466.36350612898434 759.3691507393332 Z"/></g></g><g><g><rect fill="white" stroke="none" x="252.90826363981117" y="777.0656209809998" width="143.41156257691406" height="21.23576429"/></g><text fill="black" stroke="none" font-family="sans-serif" font-size="11pt" font-style="normal" font-weight="normal" text-decoration="normal" x="255.35854413481115" y="791.7673039509998" text-anchor="start" dominant-baseline="alphabetic">ActiveVehicle(A-10C)</text></g><g><path fill="none" stroke="black" paint-order="fill stroke markers" d=" M 452.75083671231766 798.3013852709998 L 199.19978702755208 798.3013852709998" stroke-miterlimit="10" stroke-width="1.3612669416666667" stroke-dasharray=""/><g transform="translate(196.47725314421874,798.3013852709998) translate(-196.47725314421874,-798.3013852709998)"><path fill="black" stroke="none" paint-order="stroke fill markers" d=" M 210.0899225608854 791.4950505626665 L 196.47725314421874 798.3013852709998 L 210.0899225608854 805.1077199793332 Z"/></g></g><g><g><rect fill="white" stroke="none" x="256.999167875651" y="822.8041902209998" width="135.22975410523438" height="21.23576429"/></g><text fill="black" stroke="none" font-family="sans-serif" font-size="11pt" font-style="normal" font-weight="normal" text-decoration="normal" x="259.449448370651" y="837.5058731909998" text-anchor="start" dominant-baseline="alphabetic">ActiveDriver(A-10C)</text></g><g><path fill="none" stroke="black" paint-order="fill stroke markers" d=" M 452.75083671231766 844.0399545109998 L 199.19978702755208 844.0399545109998" stroke-miterlimit="10" stroke-width="1.3612669416666667" stroke-dasharray=""/><g transform="translate(196.47725314421874,844.0399545109998) translate(-196.47725314421874,-844.0399545109998)"><path fill="black" stroke="none" paint-order="stroke fill markers" d=" M 210.0899225608854 837.2336198026665 L 196.47725314421874 844.0399545109998 L 210.0899225608854 850.8462892193331 Z"/></g></g><g><g><rect fill="white" stroke="none" x="215.80724371588542" y="868.5427594609997" width="222.46667732300781" height="21.23576429"/></g><text fill="black" stroke="none" font-family="sans-serif" font-size="11pt" font-style="normal" font-weight="normal" text-decoration="normal" x="218.2575242108854" y="883.2444424309997" text-anchor="start" dominant-baseline="alphabetic">AutoStart(my_A10_profile_name)</text></g><g><path fill="none" stroke="black" paint-order="fill stroke markers" d=" M 196.47725314421874 889.7785237509997 L 261.8180663442187 889.7785237509997 L 261.8180663442187 911.0142880409998 L 199.19978702755208 911.0142880409998" stroke-miterlimit="10" stroke-width="1.3612669416666667" stroke-dasharray=""/><g transform="translate(196.47725314421874,911.0142880409998) translate(-196.47725314421874,-911.0142880409998)"><path fill="black" stroke="none" paint-order="stroke fill markers" d=" M 210.0899225608854 904.2079533326664 L 196.47725314421874 911.0142880409998 L 210.0899225608854 917.8206227493331 Z"/></g></g><g><g><rect fill="white" stroke="none" x="472.0808272839843" y="1004.1249468509998" width="138.52968086304688" height="21.23576429"/></g><text fill="black" stroke="none" font-family="sans-serif" font-size="11pt" font-style="normal" font-weight="normal" text-decoration="normal" x="474.53110777898434" y="1018.8266298209998" text-anchor="start" dominant-baseline="alphabetic">EnterVehicle(A-10C)</text></g><g><path fill="none" stroke="black" paint-order="fill stroke markers" d=" M 452.75083671231766 1025.360711141 L 518.0916499123176 1025.360711141 L 518.0916499123176 1046.5964754309998 L 455.473370595651 1046.5964754309998" stroke-miterlimit="10" stroke-width="1.3612669416666667" stroke-dasharray=""/><g transform="translate(452.75083671231766,1046.5964754309998) translate(-452.75083671231766,-1046.5964754309998)"><path fill="black" stroke="none" paint-order="stroke fill markers" d=" M 466.36350612898434 1039.7901407226666 L 452.75083671231766 1046.5964754309998 L 466.36350612898434 1053.402810139333 Z"/></g></g><g><g><rect fill="white" stroke="none" x="472.0808272839843" y="1071.0992803809997" width="180.92053474488281" height="21.23576429"/></g><text fill="black" stroke="none" font-family="sans-serif" font-size="11pt" font-style="normal" font-weight="normal" text-decoration="normal" x="474.53110777898434" y="1085.8009633509998" text-anchor="start" dominant-baseline="alphabetic">LoadModule(Helios_A10C)</text></g><g><path fill="none" stroke="black" paint-order="fill stroke markers" d=" M 452.75083671231766 1092.3350446709999 L 518.0916499123176 1092.3350446709999 L 518.0916499123176 1113.5708089609998 L 455.473370595651 1113.5708089609998" stroke-miterlimit="10" stroke-width="1.3612669416666667" stroke-dasharray=""/><g transform="translate(452.75083671231766,1113.5708089609998) translate(-452.75083671231766,-1113.5708089609998)"><path fill="black" stroke="none" paint-order="stroke fill markers" d=" M 466.36350612898434 1106.7644742526666 L 452.75083671231766 1113.5708089609998 L 466.36350612898434 1120.377143669333 Z"/></g></g><g><g><rect fill="white" stroke="none" x="256.99206446481116" y="1138.073613911" width="143.41156257691406" height="21.23576429"/></g><text fill="black" stroke="none" font-family="sans-serif" font-size="11pt" font-style="normal" font-weight="normal" text-decoration="normal" x="259.4423449598112" y="1152.775296881" text-anchor="start" dominant-baseline="alphabetic">ActiveVehicle(A-10C)</text></g><g><path fill="none" stroke="black" paint-order="fill stroke markers" d=" M 452.75083671231766 1159.3093782009998 L 212.81245644421872 1159.3093782009998" stroke-miterlimit="10" stroke-width="1.3612669416666667" stroke-dasharray=""/><path fill="none" stroke="black" paint-order="fill stroke markers" d=" M 204.64485479421873 1151.1417765509998 L 220.98005809421872 1167.476979851 M 204.64485479421873 1167.476979851 L 220.98005809421872 1151.1417765509998" stroke-miterlimit="10" stroke-width="1.3612669416666667"/></g><g><g><rect fill="white" stroke="none" x="234.583327282194" y="1183.812183151" width="188.22903694214844" height="21.23576429"/></g><text fill="black" stroke="none" font-family="sans-serif" font-size="11pt" font-style="normal" font-weight="normal" text-decoration="normal" x="237.033607777194" y="1198.513866121" text-anchor="start" dominant-baseline="alphabetic">ActiveModule(Helios_A10C)</text></g><g><path fill="none" stroke="black" paint-order="fill stroke markers" d=" M 452.75083671231766 1205.047947441 L 212.81245644421872 1205.047947441" stroke-miterlimit="10" stroke-width="1.3612669416666667" stroke-dasharray=""/><path fill="none" stroke="black" paint-order="fill stroke markers" d=" M 204.64485479421873 1196.8803457909999 L 220.98005809421872 1213.215549091 M 204.64485479421873 1213.215549091 L 220.98005809421872 1196.8803457909999" stroke-miterlimit="10" stroke-width="1.3612669416666667"/></g><g><g><rect fill="white" stroke="none" x="215.80724371588542" y="1229.5507523909998" width="145.85257209839844" height="21.23576429"/></g><text fill="black" stroke="none" font-family="sans-serif" font-size="11pt" font-style="normal" font-weight="normal" text-decoration="normal" x="218.2575242108854" y="1244.252435361" text-anchor="start" dominant-baseline="alphabetic">Start(CaptZeenF18C)</text></g><g><path fill="none" stroke="black" paint-order="fill stroke markers" d=" M 196.47725314421874 1250.786516681 L 261.8180663442187 1250.786516681 L 261.8180663442187 1272.0222809709999 L 199.19978702755208 1272.0222809709999" stroke-miterlimit="10" stroke-width="1.3612669416666667" stroke-dasharray=""/><g transform="translate(196.47725314421874,1272.0222809709999) translate(-196.47725314421874,-1272.0222809709999)"><path fill="black" stroke="none" paint-order="stroke fill markers" d=" M 210.0899225608854 1265.2159462626666 L 196.47725314421874 1272.0222809709999 L 210.0899225608854 1278.828615679333 Z"/></g></g><g><g><rect fill="white" stroke="none" x="276.9347223800455" y="1296.525085921" width="95.35864509644531" height="21.23576429"/></g><text fill="black" stroke="none" font-family="sans-serif" font-size="11pt" font-style="normal" font-weight="normal" text-decoration="normal" x="279.38500287504553" y="1311.2267688910001" text-anchor="start" dominant-baseline="alphabetic">LoadModule()</text></g><g><path fill="none" stroke="black" paint-order="fill stroke markers" d=" M 196.47725314421874 1317.760850211 L 450.02830282898435 1317.760850211" stroke-miterlimit="10" stroke-width="1.3612669416666667" stroke-dasharray=""/><g transform="translate(452.75083671231766,1317.760850211) translate(-452.75083671231766,-1317.760850211)"><path fill="black" stroke="none" paint-order="stroke fill markers" d=" M 439.138167295651 1310.9545155026667 L 452.75083671231766 1317.760850211 L 439.138167295651 1324.5671849193332 Z"/></g></g><g><g><rect fill="white" stroke="none" x="252.90826363981117" y="1342.263655161" width="143.41156257691406" height="21.23576429"/></g><text fill="black" stroke="none" font-family="sans-serif" font-size="11pt" font-style="normal" font-weight="normal" text-decoration="normal" x="255.35854413481115" y="1356.9653381310002" text-anchor="start" dominant-baseline="alphabetic">ActiveVehicle(A-10C)</text></g><g><path fill="none" stroke="black" paint-order="fill stroke markers" d=" M 452.75083671231766 1363.499419451 L 199.19978702755208 1363.499419451" stroke-miterlimit="10" stroke-width="1.3612669416666667" stroke-dasharray=""/><g transform="translate(196.47725314421874,1363.499419451) translate(-196.47725314421874,-1363.499419451)"><path fill="black" stroke="none" paint-order="stroke fill markers" d=" M 210.0899225608854 1356.6930847426668 L 196.47725314421874 1363.499419451 L 210.0899225608854 1370.3057541593332 Z"/></g></g><g><g><rect fill="white" stroke="none" x="230.49952645719398" y="1388.0022244010001" width="188.22903694214844" height="21.23576429"/></g><text fill="black" stroke="none" font-family="sans-serif" font-size="11pt" font-style="normal" font-weight="normal" text-decoration="normal" x="232.94980695219397" y="1402.7039073710002" text-anchor="start" dominant-baseline="alphabetic">ActiveModule(Helios_A10C)</text></g><g><path fill="none" stroke="black" paint-order="fill stroke markers" d=" M 452.75083671231766 1409.237988691 L 199.19978702755208 1409.237988691" stroke-miterlimit="10" stroke-width="1.3612669416666667" stroke-dasharray=""/><g transform="translate(196.47725314421874,1409.237988691) translate(-196.47725314421874,-1409.237988691)"><path fill="black" stroke="none" paint-order="stroke fill markers" d=" M 210.0899225608854 1402.4316539826668 L 196.47725314421874 1409.237988691 L 210.0899225608854 1416.0443233993333 Z"/></g></g><path fill="white" stroke="black" paint-order="fill stroke markers" d=" M 24.50280494999999 1433.740793641 L 353.7500183684375 1433.740793641 L 368.4517013384375 1448.442476611 L 368.4517013384375 1471.311761231 L 24.50280494999999 1471.311761231 L 24.50280494999999 1433.740793641 M 353.7500183684375 1433.740793641 L 353.7500183684375 1448.442476611 L 368.4517013384375 1448.442476611" stroke-miterlimit="10" stroke-width="1.3612669416666667" stroke-dasharray=""/><g><text fill="black" stroke="none" font-family="sans-serif" font-size="11pt" font-style="normal" font-weight="normal" text-decoration="normal" x="47.372089569999986" y="1456.6100782610001" text-anchor="start" dominant-baseline="alphabetic">Most recent A-10C profile uses Helios exports</text></g><g><g><rect fill="white" stroke="none" x="260.6534189742838" y="1495.8145661810001" width="127.92125190796875" height="21.23576429"/></g><text fill="black" stroke="none" font-family="sans-serif" font-size="11pt" font-style="normal" font-weight="normal" text-decoration="normal" x="263.1036994692838" y="1510.5162491510002" text-anchor="start" dominant-baseline="alphabetic">LoadDriver(A-10C)</text></g><g><path fill="none" stroke="black" paint-order="fill stroke markers" d=" M 196.47725314421874 1517.050330471 L 450.02830282898435 1517.050330471" stroke-miterlimit="10" stroke-width="1.3612669416666667" stroke-dasharray=""/><g transform="translate(452.75083671231766,1517.050330471) translate(-452.75083671231766,-1517.050330471)"><path fill="black" stroke="none" paint-order="stroke fill markers" d=" M 439.138167295651 1510.2439957626668 L 452.75083671231766 1517.050330471 L 439.138167295651 1523.8566651793333 Z"/></g></g><g><g><rect fill="white" stroke="none" x="472.0808272839843" y="1541.553135421" width="184.93628181519531" height="21.23576429"/></g><text fill="black" stroke="none" font-family="sans-serif" font-size="11pt" font-style="normal" font-weight="normal" text-decoration="normal" x="474.53110777898434" y="1556.254818391" text-anchor="start" dominant-baseline="alphabetic">SwitchFromModuleToDriver</text></g><g><path fill="none" stroke="black" paint-order="fill stroke markers" d=" M 452.75083671231766 1562.788899711 L 518.0916499123176 1562.788899711 L 518.0916499123176 1584.024664001 L 455.473370595651 1584.024664001" stroke-miterlimit="10" stroke-width="1.3612669416666667" stroke-dasharray=""/><g transform="translate(452.75083671231766,1584.024664001) translate(-452.75083671231766,-1584.024664001)"><path fill="black" stroke="none" paint-order="stroke fill markers" d=" M 466.36350612898434 1577.2183292926668 L 452.75083671231766 1584.024664001 L 466.36350612898434 1590.8309987093332 Z"/></g></g><g><g><rect fill="white" stroke="none" x="252.90826363981117" y="1608.5274689510002" width="143.41156257691406" height="21.23576429"/></g><text fill="black" stroke="none" font-family="sans-serif" font-size="11pt" font-style="normal" font-weight="normal" text-decoration="normal" x="255.35854413481115" y="1623.2291519210003" text-anchor="start" dominant-baseline="alphabetic">ActiveVehicle(A-10C)</text></g><g><path fill="none" stroke="black" paint-order="fill stroke markers" d=" M 452.75083671231766 1629.763233241 L 199.19978702755208 1629.763233241" stroke-miterlimit="10" stroke-width="1.3612669416666667" stroke-dasharray=""/><g transform="translate(196.47725314421874,1629.763233241) translate(-196.47725314421874,-1629.763233241)"><path fill="black" stroke="none" paint-order="stroke fill markers" d=" M 210.0899225608854 1622.9568985326669 L 196.47725314421874 1629.763233241 L 210.0899225608854 1636.5695679493333 Z"/></g></g><g><g><rect fill="white" stroke="none" x="256.999167875651" y="1654.2660381910002" width="135.22975410523438" height="21.23576429"/></g><text fill="black" stroke="none" font-family="sans-serif" font-size="11pt" font-style="normal" font-weight="normal" text-decoration="normal" x="259.449448370651" y="1668.9677211610003" text-anchor="start" dominant-baseline="alphabetic">ActiveDriver(A-10C)</text></g><g><path fill="none" stroke="black" paint-order="fill stroke markers" d=" M 452.75083671231766 1675.5018024810001 L 199.19978702755208 1675.5018024810001" stroke-miterlimit="10" stroke-width="1.3612669416666667" stroke-dasharray=""/><g transform="translate(196.47725314421874,1675.5018024810001) translate(-196.47725314421874,-1675.5018024810001)"><path fill="black" stroke="none" paint-order="stroke fill markers" d=" M 210.0899225608854 1668.695467772667 L 196.47725314421874 1675.5018024810001 L 210.0899225608854 1682.3081371893334 Z"/></g></g><g><g><rect fill="white" stroke="none" x="215.80724371588542" y="1700.004607431" width="222.46667732300781" height="21.23576429"/></g><text fill="black" stroke="none" font-family="sans-serif" font-size="11pt" font-style="normal" font-weight="normal" text-decoration="normal" x="218.2575242108854" y="1714.7062904010002" text-anchor="start" dominant-baseline="alphabetic">AutoStart(my_A10_profile_name)</text></g><g><path fill="none" stroke="black" paint-order="fill stroke markers" d=" M 196.47725314421874 1721.2403717210002 L 261.8180663442187 1721.2403717210002 L 261.8180663442187 1742.476136011 L 199.19978702755208 1742.476136011" stroke-miterlimit="10" stroke-width="1.3612669416666667" stroke-dasharray=""/><g transform="translate(196.47725314421874,1742.476136011) translate(-196.47725314421874,-1742.476136011)"><path fill="black" stroke="none" paint-order="stroke fill markers" d=" M 210.0899225608854 1735.6698013026669 L 196.47725314421874 1742.476136011 L 210.0899225608854 1749.2824707193333 Z"/></g></g><g><g><rect fill="white" stroke="none" x="472.0808272839843" y="1835.586794821" width="138.52968086304688" height="21.23576429"/></g><text fill="black" stroke="none" font-family="sans-serif" font-size="11pt" font-style="normal" font-weight="normal" text-decoration="normal" x="474.53110777898434" y="1850.288477791" text-anchor="start" dominant-baseline="alphabetic">EnterVehicle(A-10C)</text></g><g><path fill="none" stroke="black" paint-order="fill stroke markers" d=" M 452.75083671231766 1856.8225591110001 L 518.0916499123176 1856.8225591110001 L 518.0916499123176 1878.058323401 L 455.473370595651 1878.058323401" stroke-miterlimit="10" stroke-width="1.3612669416666667" stroke-dasharray=""/><g transform="translate(452.75083671231766,1878.058323401) translate(-452.75083671231766,-1878.058323401)"><path fill="black" stroke="none" paint-order="stroke fill markers" d=" M 466.36350612898434 1871.2519886926668 L 452.75083671231766 1878.058323401 L 466.36350612898434 1884.8646581093333 Z"/></g></g><g><g><rect fill="white" stroke="none" x="472.0808272839843" y="1902.561128351" width="180.92053474488281" height="21.23576429"/></g><text fill="black" stroke="none" font-family="sans-serif" font-size="11pt" font-style="normal" font-weight="normal" text-decoration="normal" x="474.53110777898434" y="1917.262811321" text-anchor="start" dominant-baseline="alphabetic">LoadModule(Helios_A10C)</text></g><g><path fill="none" stroke="black" paint-order="fill stroke markers" d=" M 452.75083671231766 1923.796892641 L 518.0916499123176 1923.796892641 L 518.0916499123176 1945.032656931 L 455.473370595651 1945.032656931" stroke-miterlimit="10" stroke-width="1.3612669416666667" stroke-dasharray=""/><g transform="translate(452.75083671231766,1945.032656931) translate(-452.75083671231766,-1945.032656931)"><path fill="black" stroke="none" paint-order="stroke fill markers" d=" M 466.36350612898434 1938.2263222226668 L 452.75083671231766 1945.032656931 L 466.36350612898434 1951.8389916393332 Z"/></g></g><g><g><rect fill="white" stroke="none" x="256.99206446481116" y="1969.5354618810002" width="143.41156257691406" height="21.23576429"/></g><text fill="black" stroke="none" font-family="sans-serif" font-size="11pt" font-style="normal" font-weight="normal" text-decoration="normal" x="259.4423449598112" y="1984.2371448510003" text-anchor="start" dominant-baseline="alphabetic">ActiveVehicle(A-10C)</text></g><g><path fill="none" stroke="black" paint-order="fill stroke markers" d=" M 452.75083671231766 1990.771226171 L 212.81245644421872 1990.771226171" stroke-miterlimit="10" stroke-width="1.3612669416666667" stroke-dasharray=""/><path fill="none" stroke="black" paint-order="fill stroke markers" d=" M 204.64485479421873 1982.603624521 L 220.98005809421872 1998.9388278210001 M 204.64485479421873 1998.9388278210001 L 220.98005809421872 1982.603624521" stroke-miterlimit="10" stroke-width="1.3612669416666667"/></g><g><g><rect fill="white" stroke="none" x="234.583327282194" y="2015.2740311210002" width="188.22903694214844" height="21.23576429"/></g><text fill="black" stroke="none" font-family="sans-serif" font-size="11pt" font-style="normal" font-weight="normal" text-decoration="normal" x="237.033607777194" y="2029.9757140910003" text-anchor="start" dominant-baseline="alphabetic">ActiveModule(Helios_A10C)</text></g><g><path fill="none" stroke="black" paint-order="fill stroke markers" d=" M 452.75083671231766 2036.5097954110001 L 212.81245644421872 2036.5097954110001" stroke-miterlimit="10" stroke-width="1.3612669416666667" stroke-dasharray=""/><path fill="none" stroke="black" paint-order="fill stroke markers" d=" M 204.64485479421873 2028.342193761 L 220.98005809421872 2044.6773970610002 M 204.64485479421873 2044.6773970610002 L 220.98005809421872 2028.342193761" stroke-miterlimit="10" stroke-width="1.3612669416666667"/></g><g><g><rect fill="white" stroke="none" x="215.80724371588542" y="2061.0126003610003" width="191.48602546753906" height="21.23576429"/></g><text fill="black" stroke="none" font-family="sans-serif" font-size="11pt" font-style="normal" font-weight="normal" text-decoration="normal" x="218.2575242108854" y="2075.7142833310004" text-anchor="start" dominant-baseline="alphabetic">Start(my_F18_profile_name)</text></g><g><path fill="none" stroke="black" paint-order="fill stroke markers" d=" M 196.47725314421874 2082.248364651 L 261.8180663442187 2082.248364651 L 261.8180663442187 2103.484128941 L 199.19978702755208 2103.484128941" stroke-miterlimit="10" stroke-width="1.3612669416666667" stroke-dasharray=""/><g transform="translate(196.47725314421874,2103.484128941) translate(-196.47725314421874,-2103.484128941)"><path fill="black" stroke="none" paint-order="stroke fill markers" d=" M 210.0899225608854 2096.6777942326667 L 196.47725314421874 2103.484128941 L 210.0899225608854 2110.2904636493336 Z"/></g></g><g><g><rect fill="white" stroke="none" x="231.72000070035804" y="2127.986933891" width="185.78808845582031" height="21.23576429"/></g><text fill="black" stroke="none" font-family="sans-serif" font-size="11pt" font-style="normal" font-weight="normal" text-decoration="normal" x="234.17028119535803" y="2142.688616861" text-anchor="start" dominant-baseline="alphabetic">LoadDriver(FA-18C_hornet)</text></g><g><path fill="none" stroke="black" paint-order="fill stroke markers" d=" M 196.47725314421874 2149.222698181 L 450.02830282898435 2149.222698181" stroke-miterlimit="10" stroke-width="1.3612669416666667" stroke-dasharray=""/><g transform="translate(452.75083671231766,2149.222698181) translate(-452.75083671231766,-2149.222698181)"><path fill="black" stroke="none" paint-order="stroke fill markers" d=" M 439.138167295651 2142.4163634726665 L 452.75083671231766 2149.222698181 L 439.138167295651 2156.0290328893334 Z"/></g></g><g><g><rect fill="white" stroke="none" x="252.90826363981117" y="2173.7255031309996" width="143.41156257691406" height="21.23576429"/></g><text fill="black" stroke="none" font-family="sans-serif" font-size="11pt" font-style="normal" font-weight="normal" text-decoration="normal" x="255.35854413481115" y="2188.4271861009997" text-anchor="start" dominant-baseline="alphabetic">ActiveVehicle(A-10C)</text></g><g><path fill="none" stroke="black" paint-order="fill stroke markers" d=" M 452.75083671231766 2194.961267421 L 199.19978702755208 2194.961267421" stroke-miterlimit="10" stroke-width="1.3612669416666667" stroke-dasharray=""/><g transform="translate(196.47725314421874,2194.961267421) translate(-196.47725314421874,-2194.961267421)"><path fill="black" stroke="none" paint-order="stroke fill markers" d=" M 210.0899225608854 2188.1549327126663 L 196.47725314421874 2194.961267421 L 210.0899225608854 2201.767602129333 Z"/></g></g><g><g><rect fill="white" stroke="none" x="230.49952645719398" y="2219.4640723709995" width="188.22903694214844" height="21.23576429"/></g><text fill="black" stroke="none" font-family="sans-serif" font-size="11pt" font-style="normal" font-weight="normal" text-decoration="normal" x="232.94980695219397" y="2234.1657553409996" text-anchor="start" dominant-baseline="alphabetic">ActiveModule(Helios_A10C)</text></g><g><path fill="none" stroke="black" paint-order="fill stroke markers" d=" M 452.75083671231766 2240.6998366609996 L 199.19978702755208 2240.6998366609996" stroke-miterlimit="10" stroke-width="1.3612669416666667" stroke-dasharray=""/><g transform="translate(196.47725314421874,2240.6998366609996) translate(-196.47725314421874,-2240.6998366609996)"><path fill="black" stroke="none" paint-order="stroke fill markers" d=" M 210.0899225608854 2233.893501952666 L 196.47725314421874 2240.6998366609996 L 210.0899225608854 2247.506171369333 Z"/></g></g><path fill="white" stroke="black" paint-order="fill stroke markers" d=" M 24.90722389531249 2265.2026416109998 L 353.345599423125 2265.2026416109998 L 368.047282393125 2279.904324581 L 368.047282393125 2302.7736092009995 L 24.90722389531249 2302.7736092009995 L 24.90722389531249 2265.2026416109998 M 353.345599423125 2265.2026416109998 L 353.345599423125 2279.904324581 L 368.047282393125 2279.904324581" stroke-miterlimit="10" stroke-width="1.3612669416666667" stroke-dasharray=""/><g><text fill="black" stroke="none" font-family="sans-serif" font-size="11pt" font-style="normal" font-weight="normal" text-decoration="normal" x="47.776508515312486" y="2288.071926231" text-anchor="start" dominant-baseline="alphabetic">Most recent A-10C profile is Capt Zeen profile</text></g><g><g><rect fill="white" stroke="none" x="215.80724371588542" y="2327.2764141509997" width="176.8332239538672" height="21.23576429"/></g><text fill="black" stroke="none" font-family="sans-serif" font-size="11pt" font-style="normal" font-weight="normal" text-decoration="normal" x="218.2575242108854" y="2341.978097121" text-anchor="start" dominant-baseline="alphabetic">AutoStart(CaptZeenA10C)</text></g><g><path fill="none" stroke="black" paint-order="fill stroke markers" d=" M 196.47725314421874 2348.5121784409994 L 261.8180663442187 2348.5121784409994 L 261.8180663442187 2369.7479427309995 L 199.19978702755208 2369.7479427309995" stroke-miterlimit="10" stroke-width="1.3612669416666667" stroke-dasharray=""/><g transform="translate(196.47725314421874,2369.7479427309995) translate(-196.47725314421874,-2369.7479427309995)"><path fill="black" stroke="none" paint-order="stroke fill markers" d=" M 210.0899225608854 2362.941608022666 L 196.47725314421874 2369.7479427309995 L 210.0899225608854 2376.554277439333 Z"/></g></g><g><g><rect fill="white" stroke="none" x="472.0808272839843" y="2462.8586015409996" width="138.52968086304688" height="21.23576429"/></g><text fill="black" stroke="none" font-family="sans-serif" font-size="11pt" font-style="normal" font-weight="normal" text-decoration="normal" x="474.53110777898434" y="2477.5602845109997" text-anchor="start" dominant-baseline="alphabetic">EnterVehicle(A-10C)</text></g><g><path fill="none" stroke="black" paint-order="fill stroke markers" d=" M 452.75083671231766 2484.0943658309993 L 518.0916499123176 2484.0943658309993 L 518.0916499123176 2505.3301301209995 L 455.473370595651 2505.3301301209995" stroke-miterlimit="10" stroke-width="1.3612669416666667" stroke-dasharray=""/><g transform="translate(452.75083671231766,2505.3301301209995) translate(-452.75083671231766,-2505.3301301209995)"><path fill="black" stroke="none" paint-order="stroke fill markers" d=" M 466.36350612898434 2498.523795412666 L 452.75083671231766 2505.3301301209995 L 466.36350612898434 2512.136464829333 Z"/></g></g><g><g><rect fill="white" stroke="none" x="472.0808272839843" y="2529.8329350709996" width="180.92053474488281" height="21.23576429"/></g><text fill="black" stroke="none" font-family="sans-serif" font-size="11pt" font-style="normal" font-weight="normal" text-decoration="normal" x="474.53110777898434" y="2544.5346180409997" text-anchor="start" dominant-baseline="alphabetic">LoadModule(Helios_A10C)</text></g><g><path fill="none" stroke="black" paint-order="fill stroke markers" d=" M 452.75083671231766 2551.0686993609993 L 518.0916499123176 2551.0686993609993 L 518.0916499123176 2572.3044636509994 L 455.473370595651 2572.3044636509994" stroke-miterlimit="10" stroke-width="1.3612669416666667" stroke-dasharray=""/><g transform="translate(452.75083671231766,2572.3044636509994) translate(-452.75083671231766,-2572.3044636509994)"><path fill="black" stroke="none" paint-order="stroke fill markers" d=" M 466.36350612898434 2565.498128942666 L 452.75083671231766 2572.3044636509994 L 466.36350612898434 2579.110798359333 Z"/></g></g><g><g><rect fill="white" stroke="none" x="256.99206446481116" y="2596.807268600999" width="143.41156257691406" height="21.23576429"/></g><text fill="black" stroke="none" font-family="sans-serif" font-size="11pt" font-style="normal" font-weight="normal" text-decoration="normal" x="259.4423449598112" y="2611.508951570999" text-anchor="start" dominant-baseline="alphabetic">ActiveVehicle(A-10C)</text></g><g><path fill="none" stroke="black" paint-order="fill stroke markers" d=" M 452.75083671231766 2618.0430328909993 L 212.81245644421872 2618.0430328909993" stroke-miterlimit="10" stroke-width="1.3612669416666667" stroke-dasharray=""/><path fill="none" stroke="black" paint-order="fill stroke markers" d=" M 204.64485479421873 2609.875431240999 L 220.98005809421872 2626.2106345409993 M 204.64485479421873 2626.2106345409993 L 220.98005809421872 2609.875431240999" stroke-miterlimit="10" stroke-width="1.3612669416666667"/></g><g><g><rect fill="white" stroke="none" x="234.583327282194" y="2642.545837840999" width="188.22903694214844" height="21.23576429"/></g><text fill="black" stroke="none" font-family="sans-serif" font-size="11pt" font-style="normal" font-weight="normal" text-decoration="normal" x="237.033607777194" y="2657.247520810999" text-anchor="start" dominant-baseline="alphabetic">ActiveModule(Helios_A10C)</text></g><g><path fill="none" stroke="black" paint-order="fill stroke markers" d=" M 452.75083671231766 2663.781602130999 L 212.81245644421872 2663.781602130999" stroke-miterlimit="10" stroke-width="1.3612669416666667" stroke-dasharray=""/><path fill="none" stroke="black" paint-order="fill stroke markers" d=" M 204.64485479421873 2655.614000480999 L 220.98005809421872 2671.949203780999 M 204.64485479421873 2671.949203780999 L 220.98005809421872 2655.614000480999" stroke-miterlimit="10" stroke-width="1.3612669416666667"/></g><g><g><rect fill="white" stroke="none" x="215.80724371588542" y="2688.2844070809992" width="145.85257209839844" height="21.23576429"/></g><text fill="black" stroke="none" font-family="sans-serif" font-size="11pt" font-style="normal" font-weight="normal" text-decoration="normal" x="218.2575242108854" y="2702.9860900509993" text-anchor="start" dominant-baseline="alphabetic">Start(CaptZeenF18C)</text></g><g><path fill="none" stroke="black" paint-order="fill stroke markers" d=" M 196.47725314421874 2709.520171370999 L 261.8180663442187 2709.520171370999 L 261.8180663442187 2730.755935660999 L 199.19978702755208 2730.755935660999" stroke-miterlimit="10" stroke-width="1.3612669416666667" stroke-dasharray=""/><g transform="translate(196.47725314421874,2730.755935660999) translate(-196.47725314421874,-2730.755935660999)"><path fill="black" stroke="none" paint-order="stroke fill markers" d=" M 210.0899225608854 2723.9496009526656 L 196.47725314421874 2730.755935660999 L 210.0899225608854 2737.5622703693325 Z"/></g></g><g><g><rect fill="white" stroke="none" x="276.9347223800455" y="2755.2587406109988" width="95.35864509644531" height="21.23576429"/></g><text fill="black" stroke="none" font-family="sans-serif" font-size="11pt" font-style="normal" font-weight="normal" text-decoration="normal" x="279.38500287504553" y="2769.960423580999" text-anchor="start" dominant-baseline="alphabetic">LoadModule()</text></g><g><path fill="none" stroke="black" paint-order="fill stroke markers" d=" M 196.47725314421874 2776.494504900999 L 450.02830282898435 2776.494504900999" stroke-miterlimit="10" stroke-width="1.3612669416666667" stroke-dasharray=""/><g transform="translate(452.75083671231766,2776.494504900999) translate(-452.75083671231766,-2776.494504900999)"><path fill="black" stroke="none" paint-order="stroke fill markers" d=" M 439.138167295651 2769.6881701926654 L 452.75083671231766 2776.494504900999 L 439.138167295651 2783.3008396093323 Z"/></g></g><g><g><rect fill="white" stroke="none" x="252.90826363981117" y="2800.9973098509986" width="143.41156257691406" height="21.23576429"/></g><text fill="black" stroke="none" font-family="sans-serif" font-size="11pt" font-style="normal" font-weight="normal" text-decoration="normal" x="255.35854413481115" y="2815.6989928209987" text-anchor="start" dominant-baseline="alphabetic">ActiveVehicle(A-10C)</text></g><g><path fill="none" stroke="black" paint-order="fill stroke markers" d=" M 452.75083671231766 2822.2330741409987 L 199.19978702755208 2822.2330741409987" stroke-miterlimit="10" stroke-width="1.3612669416666667" stroke-dasharray=""/><g transform="translate(196.47725314421874,2822.2330741409987) translate(-196.47725314421874,-2822.2330741409987)"><path fill="black" stroke="none" paint-order="stroke fill markers" d=" M 210.0899225608854 2815.4267394326653 L 196.47725314421874 2822.2330741409987 L 210.0899225608854 2829.039408849332 Z"/></g></g><g><g><rect fill="white" stroke="none" x="230.49952645719398" y="2846.7358790909984" width="188.22903694214844" height="21.23576429"/></g><text fill="black" stroke="none" font-family="sans-serif" font-size="11pt" font-style="normal" font-weight="normal" text-decoration="normal" x="232.94980695219397" y="2861.4375620609985" text-anchor="start" dominant-baseline="alphabetic">ActiveModule(Helios_A10C)</text></g><g><path fill="none" stroke="black" paint-order="fill stroke markers" d=" M 452.75083671231766 2867.9716433809986 L 199.19978702755208 2867.9716433809986" stroke-miterlimit="10" stroke-width="1.3612669416666667" stroke-dasharray=""/><g transform="translate(196.47725314421874,2867.9716433809986) translate(-196.47725314421874,-2867.9716433809986)"><path fill="black" stroke="none" paint-order="stroke fill markers" d=" M 210.0899225608854 2861.165308672665 L 196.47725314421874 2867.9716433809986 L 210.0899225608854 2874.777978089332 Z"/></g></g><path fill="white" stroke="black" paint-order="fill stroke markers" d=" M 24.90722389531249 2892.4744483309987 L 353.345599423125 2892.4744483309987 L 368.047282393125 2907.176131300999 L 368.047282393125 2930.0454159209985 L 24.90722389531249 2930.0454159209985 L 24.90722389531249 2892.4744483309987 M 353.345599423125 2892.4744483309987 L 353.345599423125 2907.176131300999 L 368.047282393125 2907.176131300999" stroke-miterlimit="10" stroke-width="1.3612669416666667" stroke-dasharray=""/><g><text fill="black" stroke="none" font-family="sans-serif" font-size="11pt" font-style="normal" font-weight="normal" text-decoration="normal" x="47.776508515312486" y="2915.343732950999" text-anchor="start" dominant-baseline="alphabetic">Most recent A-10C profile is Capt Zeen profile</text></g><g><g><rect fill="white" stroke="none" x="215.80724371588542" y="2954.5482208709986" width="176.8332239538672" height="21.23576429"/></g><text fill="black" stroke="none" font-family="sans-serif" font-size="11pt" font-style="normal" font-weight="normal" text-decoration="normal" x="218.2575242108854" y="2969.2499038409987" text-anchor="start" dominant-baseline="alphabetic">AutoStart(CaptZeenA10C)</text></g><g><path fill="none" stroke="black" paint-order="fill stroke markers" d=" M 196.47725314421874 2975.7839851609983 L 261.8180663442187 2975.7839851609983 L 261.8180663442187 2997.0197494509985 L 199.19978702755208 2997.0197494509985" stroke-miterlimit="10" stroke-width="1.3612669416666667" stroke-dasharray=""/><g transform="translate(196.47725314421874,2997.0197494509985) translate(-196.47725314421874,-2997.0197494509985)"><path fill="black" stroke="none" paint-order="stroke fill markers" d=" M 210.0899225608854 2990.213414742665 L 196.47725314421874 2997.0197494509985 L 210.0899225608854 3003.826084159332 Z"/></g></g><g><g><rect fill="white" stroke="none" x="472.0808272839843" y="3090.1304082609986" width="138.52968086304688" height="21.23576429"/></g><text fill="black" stroke="none" font-family="sans-serif" font-size="11pt" font-style="normal" font-weight="normal" text-decoration="normal" x="474.53110777898434" y="3104.8320912309987" text-anchor="start" dominant-baseline="alphabetic">EnterVehicle(A-10C)</text></g><g><path fill="none" stroke="black" paint-order="fill stroke markers" d=" M 452.75083671231766 3111.3661725509983 L 518.0916499123176 3111.3661725509983 L 518.0916499123176 3132.6019368409984 L 455.473370595651 3132.6019368409984" stroke-miterlimit="10" stroke-width="1.3612669416666667" stroke-dasharray=""/><g transform="translate(452.75083671231766,3132.6019368409984) translate(-452.75083671231766,-3132.6019368409984)"><path fill="black" stroke="none" paint-order="stroke fill markers" d=" M 466.36350612898434 3125.795602132665 L 452.75083671231766 3132.6019368409984 L 466.36350612898434 3139.408271549332 Z"/></g></g><g><g><rect fill="white" stroke="none" x="472.0808272839843" y="3157.1047417909986" width="180.92053474488281" height="21.23576429"/></g><text fill="black" stroke="none" font-family="sans-serif" font-size="11pt" font-style="normal" font-weight="normal" text-decoration="normal" x="474.53110777898434" y="3171.8064247609987" text-anchor="start" dominant-baseline="alphabetic">LoadModule(Helios_A10C)</text></g><g><path fill="none" stroke="black" paint-order="fill stroke markers" d=" M 452.75083671231766 3178.3405060809982 L 518.0916499123176 3178.3405060809982 L 518.0916499123176 3199.5762703709984 L 455.473370595651 3199.5762703709984" stroke-miterlimit="10" stroke-width="1.3612669416666667" stroke-dasharray=""/><g transform="translate(452.75083671231766,3199.5762703709984) translate(-452.75083671231766,-3199.5762703709984)"><path fill="black" stroke="none" paint-order="stroke fill markers" d=" M 466.36350612898434 3192.769935662665 L 452.75083671231766 3199.5762703709984 L 466.36350612898434 3206.382605079332 Z"/></g></g><g><g><rect fill="white" stroke="none" x="256.99206446481116" y="3224.079075320998" width="143.41156257691406" height="21.23576429"/></g><text fill="black" stroke="none" font-family="sans-serif" font-size="11pt" font-style="normal" font-weight="normal" text-decoration="normal" x="259.4423449598112" y="3238.780758290998" text-anchor="start" dominant-baseline="alphabetic">ActiveVehicle(A-10C)</text></g><g><path fill="none" stroke="black" paint-order="fill stroke markers" d=" M 452.75083671231766 3245.314839610998 L 212.81245644421872 3245.314839610998" stroke-miterlimit="10" stroke-width="1.3612669416666667" stroke-dasharray=""/><path fill="none" stroke="black" paint-order="fill stroke markers" d=" M 204.64485479421873 3237.147237960998 L 220.98005809421872 3253.4824412609983 M 204.64485479421873 3253.4824412609983 L 220.98005809421872 3237.147237960998" stroke-miterlimit="10" stroke-width="1.3612669416666667"/></g><g><g><rect fill="white" stroke="none" x="234.583327282194" y="3269.817644560998" width="188.22903694214844" height="21.23576429"/></g><text fill="black" stroke="none" font-family="sans-serif" font-size="11pt" font-style="normal" font-weight="normal" text-decoration="normal" x="237.033607777194" y="3284.519327530998" text-anchor="start" dominant-baseline="alphabetic">ActiveModule(Helios_A10C)</text></g><g><path fill="none" stroke="black" paint-order="fill stroke markers" d=" M 452.75083671231766 3291.053408850998 L 212.81245644421872 3291.053408850998" stroke-miterlimit="10" stroke-width="1.3612669416666667" stroke-dasharray=""/><path fill="none" stroke="black" paint-order="fill stroke markers" d=" M 204.64485479421873 3282.885807200998 L 220.98005809421872 3299.221010500998 M 204.64485479421873 3299.221010500998 L 220.98005809421872 3282.885807200998" stroke-miterlimit="10" stroke-width="1.3612669416666667"/></g><g><g><rect fill="white" stroke="none" x="215.80724371588542" y="3315.556213800998" width="146.6757532507422" height="21.23576429"/></g><text fill="black" stroke="none" font-family="sans-serif" font-size="11pt" font-style="normal" font-weight="normal" text-decoration="normal" x="218.2575242108854" y="3330.2578967709983" text-anchor="start" dominant-baseline="alphabetic">Start(CaptZeenA10C)</text></g><g><path fill="none" stroke="black" paint-order="fill stroke markers" d=" M 196.47725314421874 3336.791978090998 L 261.8180663442187 3336.791978090998 L 261.8180663442187 3358.027742380998 L 199.19978702755208 3358.027742380998" stroke-miterlimit="10" stroke-width="1.3612669416666667" stroke-dasharray=""/><g transform="translate(196.47725314421874,3358.027742380998) translate(-196.47725314421874,-3358.027742380998)"><path fill="black" stroke="none" paint-order="stroke fill markers" d=" M 210.0899225608854 3351.2214076726646 L 196.47725314421874 3358.027742380998 L 210.0899225608854 3364.8340770893315 Z"/></g></g><g><g><rect fill="white" stroke="none" x="256.99206446481116" y="3382.5305473309977" width="143.41156257691406" height="21.23576429"/></g><text fill="black" stroke="none" font-family="sans-serif" font-size="11pt" font-style="normal" font-weight="normal" text-decoration="normal" x="259.4423449598112" y="3397.232230300998" text-anchor="start" dominant-baseline="alphabetic">ActiveVehicle(A-10C)</text></g><g><path fill="none" stroke="black" paint-order="fill stroke markers" d=" M 452.75083671231766 3403.766311620998 L 212.81245644421872 3403.766311620998" stroke-miterlimit="10" stroke-width="1.3612669416666667" stroke-dasharray=""/><path fill="none" stroke="black" paint-order="fill stroke markers" d=" M 204.64485479421873 3395.598709970998 L 220.98005809421872 3411.933913270998 M 204.64485479421873 3411.933913270998 L 220.98005809421872 3395.598709970998" stroke-miterlimit="10" stroke-width="1.3612669416666667"/></g><g><g><rect fill="white" stroke="none" x="234.583327282194" y="3428.2691165709975" width="188.22903694214844" height="21.23576429"/></g><text fill="black" stroke="none" font-family="sans-serif" font-size="11pt" font-style="normal" font-weight="normal" text-decoration="normal" x="237.033607777194" y="3442.9707995409976" text-anchor="start" dominant-baseline="alphabetic">ActiveModule(Helios_A10C)</text></g><g><path fill="none" stroke="black" paint-order="fill stroke markers" d=" M 452.75083671231766 3449.5048808609977 L 212.81245644421872 3449.5048808609977" stroke-miterlimit="10" stroke-width="1.3612669416666667" stroke-dasharray=""/><path fill="none" stroke="black" paint-order="fill stroke markers" d=" M 204.64485479421873 3441.3372792109976 L 220.98005809421872 3457.6724825109977 M 204.64485479421873 3457.6724825109977 L 220.98005809421872 3441.3372792109976" stroke-miterlimit="10" stroke-width="1.3612669416666667"/></g><path fill="white" stroke="black" paint-order="fill stroke markers" d=" M 123.22861213994139 3474.007685810998 L 255.02421117849607 3474.007685810998 L 269.7258941484961 3488.709368780998 L 269.7258941484961 3511.5786534009976 L 123.22861213994139 3511.5786534009976 L 123.22861213994139 3474.007685810998 M 255.02421117849607 3474.007685810998 L 255.02421117849607 3488.709368780998 L 269.7258941484961 3488.709368780998" stroke-miterlimit="10" stroke-width="1.3612669416666667" stroke-dasharray=""/><g><text fill="black" stroke="none" font-family="sans-serif" font-size="11pt" font-style="normal" font-weight="normal" text-decoration="normal" x="146.0978967599414" y="3496.876970430998" text-anchor="start" dominant-baseline="alphabetic">Works as today</text></g><g><g><rect fill="white" stroke="none" x="472.0808272839843" y="3604.6893122109977" width="196.39651741089844" height="21.23576429"/></g><text fill="black" stroke="none" font-family="sans-serif" font-size="11pt" font-style="normal" font-weight="normal" text-decoration="normal" x="474.53110777898434" y="3619.390995180998" text-anchor="start" dominant-baseline="alphabetic">EnterVehicle(FA-18C_hornet)</text></g><g><path fill="none" stroke="black" paint-order="fill stroke markers" d=" M 452.75083671231766 3625.9250765009974 L 518.0916499123176 3625.9250765009974 L 518.0916499123176 3647.1608407909976 L 455.473370595651 3647.1608407909976" stroke-miterlimit="10" stroke-width="1.3612669416666667" stroke-dasharray=""/><g transform="translate(452.75083671231766,3647.1608407909976) translate(-452.75083671231766,-3647.1608407909976)"><path fill="black" stroke="none" paint-order="stroke fill markers" d=" M 466.36350612898434 3640.354506082664 L 452.75083671231766 3647.1608407909976 L 466.36350612898434 3653.967175499331 Z"/></g></g><g><g><rect fill="white" stroke="none" x="472.0808272839843" y="3671.6636457409977" width="194.77879585328125" height="21.23576429"/></g><text fill="black" stroke="none" font-family="sans-serif" font-size="11pt" font-style="normal" font-weight="normal" text-decoration="normal" x="474.53110777898434" y="3686.365328710998" text-anchor="start" dominant-baseline="alphabetic">LoadModule(FA-18C_hornet)</text></g><g><path fill="none" stroke="black" paint-order="fill stroke markers" d=" M 452.75083671231766 3692.8994100309974 L 518.0916499123176 3692.8994100309974 L 518.0916499123176 3714.1351743209975 L 469.08604001231765 3714.1351743209975" stroke-miterlimit="10" stroke-width="1.3612669416666667" stroke-dasharray=""/><path fill="none" stroke="black" paint-order="fill stroke markers" d=" M 460.91843836231766 3705.9675726709975 L 477.25364166231765 3722.3027759709976 M 460.91843836231766 3722.3027759709976 L 477.25364166231765 3705.9675726709975" stroke-miterlimit="10" stroke-width="1.3612669416666667"/></g><path fill="white" stroke="black" paint-order="fill stroke markers" d=" M 247.35835873294266 3738.6379792709977 L 643.4416317216927 3738.6379792709977 L 658.1433146916927 3753.3396622409978 L 658.1433146916927 3776.2089468609975 L 247.35835873294266 3776.2089468609975 L 247.35835873294266 3738.6379792709977 M 643.4416317216927 3738.6379792709977 L 643.4416317216927 3753.3396622409978 L 658.1433146916927 3753.3396622409978" stroke-miterlimit="10" stroke-width="1.3612669416666667" stroke-dasharray=""/><g><text fill="black" stroke="none" font-family="sans-serif" font-size="11pt" font-style="normal" font-weight="normal" text-decoration="normal" x="270.22764335294266" y="3761.507263890998" text-anchor="start" dominant-baseline="alphabetic">must not have matching module installed for this to work</text></g><g><g><rect fill="white" stroke="none" x="472.0808272839843" y="3800.7117518109976" width="185.78808845582031" height="21.23576429"/></g><text fill="black" stroke="none" font-family="sans-serif" font-size="11pt" font-style="normal" font-weight="normal" text-decoration="normal" x="474.53110777898434" y="3815.4134347809977" text-anchor="start" dominant-baseline="alphabetic">LoadDriver(FA-18C_hornet)</text></g><g><path fill="none" stroke="black" paint-order="fill stroke markers" d=" M 452.75083671231766 3821.9475161009973 L 518.0916499123176 3821.9475161009973 L 518.0916499123176 3843.1832803909974 L 455.473370595651 3843.1832803909974" stroke-miterlimit="10" stroke-width="1.3612669416666667" stroke-dasharray=""/><g transform="translate(452.75083671231766,3843.1832803909974) translate(-452.75083671231766,-3843.1832803909974)"><path fill="black" stroke="none" paint-order="stroke fill markers" d=" M 466.36350612898434 3836.376945682664 L 452.75083671231766 3843.1832803909974 L 466.36350612898434 3849.989615099331 Z"/></g></g><g><g><rect fill="white" stroke="none" x="228.0586461908854" y="3867.686085340997" width="201.27839912476563" height="21.23576429"/></g><text fill="black" stroke="none" font-family="sans-serif" font-size="11pt" font-style="normal" font-weight="normal" text-decoration="normal" x="230.5089266858854" y="3882.387768310997" text-anchor="start" dominant-baseline="alphabetic">ActiveVehicle(FA-18C_hornet)</text></g><g><path fill="none" stroke="black" paint-order="fill stroke markers" d=" M 452.75083671231766 3888.9218496309973 L 212.81245644421872 3888.9218496309973" stroke-miterlimit="10" stroke-width="1.3612669416666667" stroke-dasharray=""/><path fill="none" stroke="black" paint-order="fill stroke markers" d=" M 204.64485479421873 3880.754247980997 L 220.98005809421872 3897.0894512809973 M 204.64485479421873 3897.0894512809973 L 220.98005809421872 3880.754247980997" stroke-miterlimit="10" stroke-width="1.3612669416666667"/></g><g><g><rect fill="white" stroke="none" x="232.14955042672526" y="3913.424654580997" width="193.09659065308594" height="21.23576429"/></g><text fill="black" stroke="none" font-family="sans-serif" font-size="11pt" font-style="normal" font-weight="normal" text-decoration="normal" x="234.59983092172524" y="3928.126337550997" text-anchor="start" dominant-baseline="alphabetic">ActiveDriver(FA-18C_hornet)</text></g><g><path fill="none" stroke="black" paint-order="fill stroke markers" d=" M 452.75083671231766 3934.660418870997 L 212.81245644421872 3934.660418870997" stroke-miterlimit="10" stroke-width="1.3612669416666667" stroke-dasharray=""/><path fill="none" stroke="black" paint-order="fill stroke markers" d=" M 204.64485479421873 3926.492817220997 L 220.98005809421872 3942.828020520997 M 204.64485479421873 3942.828020520997 L 220.98005809421872 3926.492817220997" stroke-miterlimit="10" stroke-width="1.3612669416666667"/></g><g><g><rect fill="white" stroke="none" x="215.80724371588542" y="3959.1632238209972" width="191.48602546753906" height="21.23576429"/></g><text fill="black" stroke="none" font-family="sans-serif" font-size="11pt" font-style="normal" font-weight="normal" text-decoration="normal" x="218.2575242108854" y="3973.8649067909973" text-anchor="start" dominant-baseline="alphabetic">Start(my_F18_profile_name)</text></g><g><path fill="none" stroke="black" paint-order="fill stroke markers" d=" M 196.47725314421874 3980.398988110997 L 261.8180663442187 3980.398988110997 L 261.8180663442187 4001.634752400997 L 199.19978702755208 4001.634752400997" stroke-miterlimit="10" stroke-width="1.3612669416666667" stroke-dasharray=""/><g transform="translate(196.47725314421874,4001.634752400997) translate(-196.47725314421874,-4001.634752400997)"><path fill="black" stroke="none" paint-order="stroke fill markers" d=" M 210.0899225608854 3994.8284176926636 L 196.47725314421874 4001.634752400997 L 210.0899225608854 4008.4410871093305 Z"/></g></g><g><g><rect fill="white" stroke="none" x="228.0586461908854" y="4026.1375573509968" width="201.27839912476563" height="21.23576429"/></g><text fill="black" stroke="none" font-family="sans-serif" font-size="11pt" font-style="normal" font-weight="normal" text-decoration="normal" x="230.5089266858854" y="4040.839240320997" text-anchor="start" dominant-baseline="alphabetic">ActiveVehicle(FA-18C_hornet)</text></g><g><path fill="none" stroke="black" paint-order="fill stroke markers" d=" M 452.75083671231766 4047.373321640997 L 212.81245644421872 4047.373321640997" stroke-miterlimit="10" stroke-width="1.3612669416666667" stroke-dasharray=""/><path fill="none" stroke="black" paint-order="fill stroke markers" d=" M 204.64485479421873 4039.205719990997 L 220.98005809421872 4055.540923290997 M 204.64485479421873 4055.540923290997 L 220.98005809421872 4039.205719990997" stroke-miterlimit="10" stroke-width="1.3612669416666667"/></g><g><g><rect fill="white" stroke="none" x="232.14955042672526" y="4071.8761265909966" width="193.09659065308594" height="21.23576429"/></g><text fill="black" stroke="none" font-family="sans-serif" font-size="11pt" font-style="normal" font-weight="normal" text-decoration="normal" x="234.59983092172524" y="4086.5778095609967" text-anchor="start" dominant-baseline="alphabetic">ActiveDriver(FA-18C_hornet)</text></g><g><path fill="none" stroke="black" paint-order="fill stroke markers" d=" M 452.75083671231766 4093.1118908809967 L 212.81245644421872 4093.1118908809967" stroke-miterlimit="10" stroke-width="1.3612669416666667" stroke-dasharray=""/><path fill="none" stroke="black" paint-order="fill stroke markers" d=" M 204.64485479421873 4084.9442892309967 L 220.98005809421872 4101.279492530996 M 204.64485479421873 4101.279492530996 L 220.98005809421872 4084.9442892309967" stroke-miterlimit="10" stroke-width="1.3612669416666667"/></g><path fill="white" stroke="black" paint-order="fill stroke markers" d=" M 123.22861213994139 4117.614695830997 L 255.02421117849607 4117.614695830997 L 269.7258941484961 4132.316378800997 L 269.7258941484961 4155.185663420997 L 123.22861213994139 4155.185663420997 L 123.22861213994139 4117.614695830997 M 255.02421117849607 4117.614695830997 L 255.02421117849607 4132.316378800997 L 269.7258941484961 4132.316378800997" stroke-miterlimit="10" stroke-width="1.3612669416666667" stroke-dasharray=""/><g><text fill="black" stroke="none" font-family="sans-serif" font-size="11pt" font-style="normal" font-weight="normal" text-decoration="normal" x="146.0978967599414" y="4140.4839804509975" text-anchor="start" dominant-baseline="alphabetic">Works as today</text></g><g><g><rect fill="white" stroke="none" x="472.0808272839843" y="4248.296322230996" width="138.52968086304688" height="21.23576429"/></g><text fill="black" stroke="none" font-family="sans-serif" font-size="11pt" font-style="normal" font-weight="normal" text-decoration="normal" x="474.53110777898434" y="4262.998005200997" text-anchor="start" dominant-baseline="alphabetic">EnterVehicle(A-10C)</text></g><g><path fill="none" stroke="black" paint-order="fill stroke markers" d=" M 452.75083671231766 4269.532086520997 L 518.0916499123176 4269.532086520997 L 518.0916499123176 4290.767850810997 L 455.473370595651 4290.767850810997" stroke-miterlimit="10" stroke-width="1.3612669416666667" stroke-dasharray=""/><g transform="translate(452.75083671231766,4290.767850810997) translate(-452.75083671231766,-4290.767850810997)"><path fill="black" stroke="none" paint-order="stroke fill markers" d=" M 466.36350612898434 4283.961516102663 L 452.75083671231766 4290.767850810997 L 466.36350612898434 4297.57418551933 Z"/></g></g><g><g><rect fill="white" stroke="none" x="472.0808272839843" y="4315.270655760996" width="180.92053474488281" height="21.23576429"/></g><text fill="black" stroke="none" font-family="sans-serif" font-size="11pt" font-style="normal" font-weight="normal" text-decoration="normal" x="474.53110777898434" y="4329.972338730997" text-anchor="start" dominant-baseline="alphabetic">LoadModule(Helios_A10C)</text></g><g><path fill="none" stroke="black" paint-order="fill stroke markers" d=" M 452.75083671231766 4336.506420050997 L 518.0916499123176 4336.506420050997 L 518.0916499123176 4357.742184340997 L 455.473370595651 4357.742184340997" stroke-miterlimit="10" stroke-width="1.3612669416666667" stroke-dasharray=""/><g transform="translate(452.75083671231766,4357.742184340997) translate(-452.75083671231766,-4357.742184340997)"><path fill="black" stroke="none" paint-order="stroke fill markers" d=" M 466.36350612898434 4350.935849632663 L 452.75083671231766 4357.742184340997 L 466.36350612898434 4364.54851904933 Z"/></g></g><g><g><rect fill="white" stroke="none" x="256.99206446481116" y="4382.244989290997" width="143.41156257691406" height="21.23576429"/></g><text fill="black" stroke="none" font-family="sans-serif" font-size="11pt" font-style="normal" font-weight="normal" text-decoration="normal" x="259.4423449598112" y="4396.946672260998" text-anchor="start" dominant-baseline="alphabetic">ActiveVehicle(A-10C)</text></g><g><path fill="none" stroke="black" paint-order="fill stroke markers" d=" M 452.75083671231766 4403.480753580997 L 212.81245644421872 4403.480753580997" stroke-miterlimit="10" stroke-width="1.3612669416666667" stroke-dasharray=""/><path fill="none" stroke="black" paint-order="fill stroke markers" d=" M 204.64485479421873 4395.313151930997 L 220.98005809421872 4411.6483552309965 M 204.64485479421873 4411.6483552309965 L 220.98005809421872 4395.313151930997" stroke-miterlimit="10" stroke-width="1.3612669416666667"/></g><g><g><rect fill="white" stroke="none" x="232.1423864252604" y="4427.9835585309975" width="193.11091865601563" height="21.23576429"/></g><text fill="black" stroke="none" font-family="sans-serif" font-size="11pt" font-style="normal" font-weight="normal" text-decoration="normal" x="234.5926669202604" y="4442.685241500998" text-anchor="start" dominant-baseline="alphabetic">ActiveModule(Helios_A-10C)</text></g><g><path fill="none" stroke="black" paint-order="fill stroke markers" d=" M 452.75083671231766 4449.219322820997 L 212.81245644421872 4449.219322820997" stroke-miterlimit="10" stroke-width="1.3612669416666667" stroke-dasharray=""/><path fill="none" stroke="black" paint-order="fill stroke markers" d=" M 204.64485479421873 4441.051721170998 L 220.98005809421872 4457.386924470997 M 204.64485479421873 4457.386924470997 L 220.98005809421872 4441.051721170998" stroke-miterlimit="10" stroke-width="1.3612669416666667"/></g><g><g><rect fill="white" stroke="none" x="215.80724371588542" y="4473.722127770997" width="191.48602546753906" height="21.23576429"/></g><text fill="black" stroke="none" font-family="sans-serif" font-size="11pt" font-style="normal" font-weight="normal" text-decoration="normal" x="218.2575242108854" y="4488.423810740997" text-anchor="start" dominant-baseline="alphabetic">Start(my_F18_profile_name)</text></g><g><path fill="none" stroke="black" paint-order="fill stroke markers" d=" M 196.47725314421874 4494.957892060997 L 261.8180663442187 4494.957892060997 L 261.8180663442187 4516.193656350997 L 199.19978702755208 4516.193656350997" stroke-miterlimit="10" stroke-width="1.3612669416666667" stroke-dasharray=""/><g transform="translate(196.47725314421874,4516.193656350997) translate(-196.47725314421874,-4516.193656350997)"><path fill="black" stroke="none" paint-order="stroke fill markers" d=" M 210.0899225608854 4509.387321642664 L 196.47725314421874 4516.193656350997 L 210.0899225608854 4522.999991059331 Z"/></g></g><g><g><rect fill="white" stroke="none" x="256.99206446481116" y="4540.696461300998" width="143.41156257691406" height="21.23576429"/></g><text fill="black" stroke="none" font-family="sans-serif" font-size="11pt" font-style="normal" font-weight="normal" text-decoration="normal" x="259.4423449598112" y="4555.398144270998" text-anchor="start" dominant-baseline="alphabetic">ActiveVehicle(A-10C)</text></g><g><path fill="none" stroke="black" paint-order="fill stroke markers" d=" M 452.75083671231766 4561.932225590997 L 212.81245644421872 4561.932225590997" stroke-miterlimit="10" stroke-width="1.3612669416666667" stroke-dasharray=""/><path fill="none" stroke="black" paint-order="fill stroke markers" d=" M 204.64485479421873 4553.764623940998 L 220.98005809421872 4570.099827240997 M 204.64485479421873 4570.099827240997 L 220.98005809421872 4553.764623940998" stroke-miterlimit="10" stroke-width="1.3612669416666667"/></g><g><g><rect fill="white" stroke="none" x="232.1423864252604" y="4586.435030540998" width="193.11091865601563" height="21.23576429"/></g><text fill="black" stroke="none" font-family="sans-serif" font-size="11pt" font-style="normal" font-weight="normal" text-decoration="normal" x="234.5926669202604" y="4601.136713510999" text-anchor="start" dominant-baseline="alphabetic">ActiveModule(Helios_A-10C)</text></g><g><path fill="none" stroke="black" paint-order="fill stroke markers" d=" M 452.75083671231766 4607.670794830998 L 212.81245644421872 4607.670794830998" stroke-miterlimit="10" stroke-width="1.3612669416666667" stroke-dasharray=""/><path fill="none" stroke="black" paint-order="fill stroke markers" d=" M 204.64485479421873 4599.503193180998 L 220.98005809421872 4615.838396480997 M 204.64485479421873 4615.838396480997 L 220.98005809421872 4599.503193180998" stroke-miterlimit="10" stroke-width="1.3612669416666667"/></g><path fill="white" stroke="black" paint-order="fill stroke markers" d=" M 91.31022377324217 4632.173599780998 L 286.9425995451953 4632.173599780998 L 301.6442825151953 4646.875282750998 L 301.6442825151953 4669.744567370998 L 91.31022377324217 4669.744567370998 L 91.31022377324217 4632.173599780998 M 286.9425995451953 4632.173599780998 L 286.9425995451953 4646.875282750998 L 301.6442825151953 4646.875282750998" stroke-miterlimit="10" stroke-width="1.3612669416666667" stroke-dasharray=""/><g><text fill="black" stroke="none" font-family="sans-serif" font-size="11pt" font-style="normal" font-weight="normal" text-decoration="normal" x="114.17950839324217" y="4655.042884400998" text-anchor="start" dominant-baseline="alphabetic">Fails just as it does today</text></g><g><g/><path fill="none" stroke="black" paint-order="fill stroke markers" d=" M 16.33520329999999 128.55804997099997 L 662.7344302541796 128.55804997099997 L 662.7344302541796 935.5170929909998 L 16.33520329999999 935.5170929909998 L 16.33520329999999 128.55804997099997 Z" stroke-miterlimit="10" stroke-width="2.3336004714285714" stroke-dasharray=""/><path fill="white" stroke="black" paint-order="fill stroke markers" d=" M 16.33520329999999 128.55804997099997 L 16.33520329999999 148.16029393099998 L 221.72506180429687 148.16029393099998 L 231.52618378429688 138.35917195099998 L 231.52618378429688 128.55804997099997 L 16.33520329999999 128.55804997099997" stroke-miterlimit="10" stroke-width="2.3336004714285714" stroke-dasharray=""/><text fill="black" stroke="none" font-family="sans-serif" font-size="8.8pt" font-style="normal" font-weight="bold" text-decoration="normal" x="32.67040659999999" y="141.62621261099997" text-anchor="start" dominant-baseline="alphabetic">1: Helios using its own exports</text></g><g><g/><path fill="none" stroke="black" paint-order="fill stroke markers" d=" M 16.33520329999999 960.0198979409998 L 662.7344302541796 960.0198979409998 L 662.7344302541796 1766.978940961 L 16.33520329999999 1766.978940961 L 16.33520329999999 960.0198979409998 Z" stroke-miterlimit="10" stroke-width="2.3336004714285714" stroke-dasharray=""/><path fill="white" stroke="black" paint-order="fill stroke markers" d=" M 16.33520329999999 960.0198979409998 L 16.33520329999999 979.6221419009998 L 331.21825638437497 979.6221419009998 L 341.019378364375 969.8210199209998 L 341.019378364375 960.0198979409998 L 16.33520329999999 960.0198979409998" stroke-miterlimit="10" stroke-width="2.3336004714285714" stroke-dasharray=""/><text fill="black" stroke="none" font-family="sans-serif" font-size="8.8pt" font-style="normal" font-weight="bold" text-decoration="normal" x="32.67040659999999" y="973.0880605809998" text-anchor="start" dominant-baseline="alphabetic">1b: Helios using its own exports (CZ profile active)</text></g><g><g/><path fill="none" stroke="black" paint-order="fill stroke markers" d=" M 16.73962224531249 1791.4817459110002 L 658.7186831838671 1791.4817459110002 L 658.7186831838671 2394.2507476809997 L 16.73962224531249 2394.2507476809997 L 16.73962224531249 1791.4817459110002 Z" stroke-miterlimit="10" stroke-width="2.3336004714285714" stroke-dasharray=""/><path fill="white" stroke="black" paint-order="fill stroke markers" d=" M 16.73962224531249 1791.4817459110002 L 16.73962224531249 1811.083989871 L 231.90064469003906 1811.083989871 L 241.70176667003906 1801.2828678910003 L 241.70176667003906 1791.4817459110002 L 16.73962224531249 1791.4817459110002" stroke-miterlimit="10" stroke-width="2.3336004714285714" stroke-dasharray=""/><text fill="black" stroke="none" font-family="sans-serif" font-size="8.8pt" font-style="normal" font-weight="bold" text-decoration="normal" x="33.07482554531249" y="1804.549908551" text-anchor="start" dominant-baseline="alphabetic">2: Helios using Capt Zeen profile</text></g><g><g/><path fill="none" stroke="black" paint-order="fill stroke markers" d=" M 16.73962224531249 2418.7535526309994 L 658.7186831838671 2418.7535526309994 L 658.7186831838671 3021.5225544009986 L 16.73962224531249 3021.5225544009986 L 16.73962224531249 2418.7535526309994 Z" stroke-miterlimit="10" stroke-width="2.3336004714285714" stroke-dasharray=""/><path fill="white" stroke="black" paint-order="fill stroke markers" d=" M 16.73962224531249 2418.7535526309994 L 16.73962224531249 2438.3557965909995 L 293.1909431519531 2438.3557965909995 L 302.9920651319531 2428.5546746109994 L 302.9920651319531 2418.7535526309994 L 16.73962224531249 2418.7535526309994" stroke-miterlimit="10" stroke-width="2.3336004714285714" stroke-dasharray=""/><text fill="black" stroke="none" font-family="sans-serif" font-size="8.8pt" font-style="normal" font-weight="bold" text-decoration="normal" x="33.07482554531249" y="2431.8217152709994" text-anchor="start" dominant-baseline="alphabetic">2b: Helios active profile is Capt Zeen profile</text></g><g><g/><path fill="none" stroke="black" paint-order="fill stroke markers" d=" M 115.0610104899414 3046.0253593509983 L 658.7186831838671 3046.0253593509983 L 658.7186831838671 3536.0814583509978 L 115.0610104899414 3536.0814583509978 L 115.0610104899414 3046.0253593509983 Z" stroke-miterlimit="10" stroke-width="2.3336004714285714" stroke-dasharray=""/><path fill="white" stroke="black" paint-order="fill stroke markers" d=" M 115.0610104899414 3046.0253593509983 L 115.0610104899414 3065.6276033109984 L 386.27740708017575 3065.6276033109984 L 396.07852906017575 3055.8264813309984 L 396.07852906017575 3046.0253593509983 L 115.0610104899414 3046.0253593509983" stroke-miterlimit="10" stroke-width="2.3336004714285714" stroke-dasharray=""/><text fill="black" stroke="none" font-family="sans-serif" font-size="8.8pt" font-style="normal" font-weight="bold" text-decoration="normal" x="131.39621378994138" y="3059.0935219909984" text-anchor="start" dominant-baseline="alphabetic">3: Legacy Helios running Capt Zeen profile</text></g><g><g/><path fill="none" stroke="black" paint-order="fill stroke markers" d=" M 115.0610104899414 3560.5842633009975 L 674.1946658498828 3560.5842633009975 L 674.1946658498828 4179.688468370997 L 115.0610104899414 4179.688468370997 L 115.0610104899414 3560.5842633009975 Z" stroke-miterlimit="10" stroke-width="2.3336004714285714" stroke-dasharray=""/><path fill="white" stroke="black" paint-order="fill stroke markers" d=" M 115.0610104899414 3560.5842633009975 L 115.0610104899414 3580.1865072609976 L 444.2800621094726 3580.1865072609976 L 454.08118408947263 3570.3853852809975 L 454.08118408947263 3560.5842633009975 L 115.0610104899414 3560.5842633009975" stroke-miterlimit="10" stroke-width="2.3336004714285714" stroke-dasharray=""/><text fill="black" stroke="none" font-family="sans-serif" font-size="8.8pt" font-style="normal" font-weight="bold" text-decoration="normal" x="131.39621378994138" y="3573.6524259409975" text-anchor="start" dominant-baseline="alphabetic">4: Legacy Helios running Profile with its own Exports</text></g><g><g/><path fill="none" stroke="black" paint-order="fill stroke markers" d=" M 83.14262212324218 4204.1912733209965 L 658.7186831838671 4204.1912733209965 L 658.7186831838671 4694.247372320998 L 83.14262212324218 4694.247372320998 L 83.14262212324218 4204.1912733209965 Z" stroke-miterlimit="10" stroke-width="2.3336004714285714" stroke-dasharray=""/><path fill="white" stroke="black" paint-order="fill stroke markers" d=" M 83.14262212324218 4204.1912733209965 L 83.14262212324218 4223.793517280997 L 345.8879951539062 4223.793517280997 L 355.6891171339062 4213.992395300997 L 355.6891171339062 4204.1912733209965 L 83.14262212324218 4204.1912733209965" stroke-miterlimit="10" stroke-width="2.3336004714285714" stroke-dasharray=""/><text fill="black" stroke="none" font-family="sans-serif" font-size="8.8pt" font-style="normal" font-weight="bold" text-decoration="normal" x="99.47782542324218" y="4217.259435960997" text-anchor="start" dominant-baseline="alphabetic">100: Legacy Helios running wrong profile</text></g></g><g/><g/></g></svg>