<svg version="1.1" xmlns="http://www.w3.org/2000/svg" xmlns:xlink="http://www.w3.org/1999/xlink" width="718" height="4563"><defs/><g><g/><g/><g/><g/><g/><g/><g/><g/><g/><g/><g/><g/><g/><g/><g/><g/><g/><g/><g/><g/><g/><g/><g/><g/><g/><g/><g/><g/><g/><g/><g/><g/><g/><g/><g/><g/><g/><g/><g/><g/><g/><g/><g/><g/><g/><g/><g/><g/><g/><g/><g/><g/><g/><g/><g/><g/><g/><g/><g/><g/><g/><g/><g/><g/><g/><g/><g><rect fill="white" stroke="none" x="0" y="0" width="718" height="4563"/></g><g><text fill="black" stroke="none" font-family="sans-serif" font-size="16.5pt" font-style="normal" font-weight="normal" text-decoration="normal" x="123.94618991551755" y="24.50280495" text-anchor="start" dominant-baseline="alphabetic">Helios Auto Start (https://sequencediagram.org/)</text></g><g/><g><path fill="none" stroke="black" paint-order="fill stroke markers" d=" M 151.26968020720702 95.887643371 L 151.26968020720702 4563.565745920999" stroke-miterlimit="10" stroke-width="1.3612669416666667" stroke-dasharray="12.565541,5.445067766666667"/><path fill="none" stroke="black" paint-order="fill stroke markers" d=" M 441.7809194149544 95.887643371 L 441.7809194149544 4563.565745920999" stroke-miterlimit="10" stroke-width="1.3612669416666667" stroke-dasharray="12.565541,5.445067766666667"/></g><g><path fill="none" stroke="none"/><g><path fill="white" stroke="black" paint-order="fill stroke markers" d=" M 113.17734754174607 51.782594461 L 189.36201287266795 51.782594461 L 189.36201287266795 95.887643371 L 113.17734754174607 95.887643371 L 113.17734754174607 51.782594461 Z" stroke-miterlimit="10" stroke-width="2.613632528" stroke-dasharray=""/></g><g><g/><text fill="black" stroke="none" font-family="sans-serif" font-size="11pt" font-style="normal" font-weight="normal" text-decoration="normal" x="130.90104312224608" y="79.55244007099999" text-anchor="start" dominant-baseline="alphabetic">Helios</text></g><path fill="none" stroke="none"/><g><path fill="white" stroke="black" paint-order="fill stroke markers" d=" M 402.87255433982546 51.782594461 L 480.6892844900833 51.782594461 L 480.6892844900833 95.887643371 L 402.87255433982546 95.887643371 L 402.87255433982546 51.782594461 Z" stroke-miterlimit="10" stroke-width="2.613632528" stroke-dasharray=""/></g><g><g/><text fill="black" stroke="none" font-family="sans-serif" font-size="11pt" font-style="normal" font-weight="normal" text-decoration="normal" x="420.5962499203255" y="79.55244007099999" text-anchor="start" dominant-baseline="alphabetic">Export</text></g></g><g><g><g><rect fill="white" stroke="none" x="170.5996707788737" y="172.663098881" width="222.46667732300781" height="21.23576429"/></g><text fill="black" stroke="none" font-family="sans-serif" font-size="11pt" font-style="normal" font-weight="normal" text-decoration="normal" x="173.0499512738737" y="187.36478185099998" text-anchor="start" dominant-baseline="alphabetic">AutoStart(my_A10_profile_name)</text></g><g><path fill="none" stroke="black" paint-order="fill stroke markers" d=" M 151.26968020720702 193.898863171 L 216.610493407207 193.898863171 L 216.610493407207 215.13462746099998 L 153.99221409054036 215.13462746099998" stroke-miterlimit="10" stroke-width="1.3612669416666667" stroke-dasharray=""/><g transform="translate(151.26968020720702,215.13462746099998) translate(-151.26968020720702,-215.13462746099998)"><path fill="black" stroke="none" paint-order="stroke fill markers" d=" M 164.8823496238737 208.32829275266664 L 151.26968020720702 215.13462746099998 L 164.8823496238737 221.94096216933332 Z"/></g></g><g><g><rect fill="white" stroke="none" x="178.76727242887367" y="239.637432411" width="235.51605476441406" height="21.23576429"/></g><text fill="black" stroke="none" font-family="sans-serif" font-size="11pt" font-style="normal" font-weight="normal" text-decoration="normal" x="181.21755292387365" y="254.33911538099997" text-anchor="start" dominant-baseline="alphabetic">LoadProfile(my_A10_profile_name)</text></g><g><path fill="none" stroke="black" paint-order="fill stroke markers" d=" M 151.26968020720702 260.873196701 L 439.05838553162107 260.873196701" stroke-miterlimit="10" stroke-width="1.3612669416666667" stroke-dasharray=""/><g transform="translate(441.7809194149544,260.873196701) translate(-441.7809194149544,-260.873196701)"><path fill="black" stroke="none" paint-order="stroke fill markers" d=" M 428.1682499982877 254.06686199266665 L 441.7809194149544 260.873196701 L 428.1682499982877 267.6795314093333 Z"/></g></g><path fill="white" stroke="black" paint-order="fill stroke markers" d=" M 364.72053372073566 285.37600165099997 L 504.1396221391732 285.37600165099997 L 518.8413051091732 300.07768462099995 L 518.8413051091732 322.946969241 L 364.72053372073566 322.946969241 L 364.72053372073566 285.37600165099997 M 504.1396221391732 285.37600165099997 L 504.1396221391732 300.07768462099995 L 518.8413051091732 300.07768462099995" stroke-miterlimit="10" stroke-width="1.3612669416666667" stroke-dasharray=""/><g><text fill="black" stroke="none" font-family="sans-serif" font-size="11pt" font-style="normal" font-weight="normal" text-decoration="normal" x="387.58981834073563" y="308.24528627099994" text-anchor="start" dominant-baseline="alphabetic">already matched</text></g><g><g><rect fill="white" stroke="none" x="191.3907389205729" y="347.44977419099996" width="210.26912178101563" height="21.23576429"/></g><text fill="black" stroke="none" font-family="sans-serif" font-size="11pt" font-style="normal" font-weight="normal" text-decoration="normal" x="193.84101941557287" y="362.15145716099994" text-anchor="start" dominant-baseline="alphabetic">Loaded(my_A10_profile_name)</text></g><g><path fill="none" stroke="black" paint-order="fill stroke markers" d=" M 441.7809194149544 368.685538481 L 153.99221409054036 368.685538481" stroke-miterlimit="10" stroke-width="1.3612669416666667" stroke-dasharray=""/><g transform="translate(151.26968020720702,368.685538481) translate(-151.26968020720702,-368.685538481)"><path fill="black" stroke="none" paint-order="stroke fill markers" d=" M 164.8823496238737 361.87920377266664 L 151.26968020720702 368.685538481 L 164.8823496238737 375.4918731893333 Z"/></g></g><g><g><rect fill="white" stroke="none" x="170.5996707788737" y="393.18834343099996" width="192.30920661988281" height="21.23576429"/></g><text fill="black" stroke="none" font-family="sans-serif" font-size="11pt" font-style="normal" font-weight="normal" text-decoration="normal" x="173.0499512738737" y="407.89002640099994" text-anchor="start" dominant-baseline="alphabetic">Start(my_A10_profile_name)</text></g><g><path fill="none" stroke="black" paint-order="fill stroke markers" d=" M 151.26968020720702 414.4241077209999 L 216.610493407207 414.4241077209999 L 216.610493407207 435.65987201099995 L 153.99221409054036 435.65987201099995" stroke-miterlimit="10" stroke-width="1.3612669416666667" stroke-dasharray=""/><g transform="translate(151.26968020720702,435.65987201099995) translate(-151.26968020720702,-435.65987201099995)"><path fill="black" stroke="none" paint-order="stroke fill markers" d=" M 164.8823496238737 428.8535373026666 L 151.26968020720702 435.65987201099995 L 164.8823496238737 442.4662067193333 Z"/></g></g><g><g><rect fill="white" stroke="none" x="170.5996707788737" y="528.7705308209999" width="222.46667732300781" height="21.23576429"/></g><text fill="black" stroke="none" font-family="sans-serif" font-size="11pt" font-style="normal" font-weight="normal" text-decoration="normal" x="173.0499512738737" y="543.4722137909998" text-anchor="start" dominant-baseline="alphabetic">AutoStart(my_A10_profile_name)</text></g><g><path fill="none" stroke="black" paint-order="fill stroke markers" d=" M 151.26968020720702 550.0062951109999 L 216.610493407207 550.0062951109999 L 216.610493407207 571.2420594009999 L 153.99221409054036 571.2420594009999" stroke-miterlimit="10" stroke-width="1.3612669416666667" stroke-dasharray=""/><g transform="translate(151.26968020720702,571.2420594009999) translate(-151.26968020720702,-571.2420594009999)"><path fill="black" stroke="none" paint-order="stroke fill markers" d=" M 164.8823496238737 564.4357246926666 L 151.26968020720702 571.2420594009999 L 164.8823496238737 578.0483941093332 Z"/></g></g><g><g><rect fill="white" stroke="none" x="178.76727242887367" y="595.7448643509998" width="235.51605476441406" height="21.23576429"/></g><text fill="black" stroke="none" font-family="sans-serif" font-size="11pt" font-style="normal" font-weight="normal" text-decoration="normal" x="181.21755292387365" y="610.4465473209998" text-anchor="start" dominant-baseline="alphabetic">LoadProfile(my_A10_profile_name)</text></g><g><path fill="none" stroke="black" paint-order="fill stroke markers" d=" M 151.26968020720702 616.9806286409998 L 439.05838553162107 616.9806286409998" stroke-miterlimit="10" stroke-width="1.3612669416666667" stroke-dasharray=""/><g transform="translate(441.7809194149544,616.9806286409998) translate(-441.7809194149544,-616.9806286409998)"><path fill="black" stroke="none" paint-order="stroke fill markers" d=" M 428.1682499982877 610.1742939326665 L 441.7809194149544 616.9806286409998 L 428.1682499982877 623.7869633493332 Z"/></g></g><g><g><rect fill="white" stroke="none" x="219.52244515836585" y="641.4834335909998" width="154.0057093054297" height="21.23576429"/></g><text fill="black" stroke="none" font-family="sans-serif" font-size="11pt" font-style="normal" font-weight="normal" text-decoration="normal" x="221.97272565336584" y="656.1851165609997" text-anchor="start" dominant-baseline="alphabetic">Active(FA-18C_hornet)</text></g><g><path fill="none" stroke="black" paint-order="fill stroke markers" d=" M 441.7809194149544 662.7191978809998 L 153.99221409054036 662.7191978809998" stroke-miterlimit="10" stroke-width="1.3612669416666667" stroke-dasharray=""/><g transform="translate(151.26968020720702,662.7191978809998) translate(-151.26968020720702,-662.7191978809998)"><path fill="black" stroke="none" paint-order="stroke fill markers" d=" M 164.8823496238737 655.9128631726664 L 151.26968020720702 662.7191978809998 L 164.8823496238737 669.5255325893331 Z"/></g></g><g><g><rect fill="white" stroke="none" x="179.17886300504554" y="687.2220028309997" width="234.69287361207031" height="21.23576429"/></g><text fill="black" stroke="none" font-family="sans-serif" font-size="11pt" font-style="normal" font-weight="normal" text-decoration="normal" x="181.62914350004553" y="701.9236858009997" text-anchor="start" dominant-baseline="alphabetic">LoadProfile(my_F18_profile_name)</text></g><g><path fill="none" stroke="black" paint-order="fill stroke markers" d=" M 151.26968020720702 708.4577671209997 L 439.05838553162107 708.4577671209997" stroke-miterlimit="10" stroke-width="1.3612669416666667" stroke-dasharray=""/><g transform="translate(441.7809194149544,708.4577671209997) translate(-441.7809194149544,-708.4577671209997)"><path fill="black" stroke="none" paint-order="stroke fill markers" d=" M 428.1682499982877 701.6514324126664 L 441.7809194149544 708.4577671209997 L 428.1682499982877 715.2641018293331 Z"/></g></g><g><g><rect fill="white" stroke="none" x="191.80232949674476" y="732.9605720709997" width="209.44594062867188" height="21.23576429"/></g><text fill="black" stroke="none" font-family="sans-serif" font-size="11pt" font-style="normal" font-weight="normal" text-decoration="normal" x="194.25260999174475" y="747.6622550409996" text-anchor="start" dominant-baseline="alphabetic">Loaded(my_F18_profile_name)</text></g><g><path fill="none" stroke="black" paint-order="fill stroke markers" d=" M 441.7809194149544 754.1963363609997 L 153.99221409054036 754.1963363609997" stroke-miterlimit="10" stroke-width="1.3612669416666667" stroke-dasharray=""/><g transform="translate(151.26968020720702,754.1963363609997) translate(-151.26968020720702,-754.1963363609997)"><path fill="black" stroke="none" paint-order="stroke fill markers" d=" M 164.8823496238737 747.3900016526663 L 151.26968020720702 754.1963363609997 L 164.8823496238737 761.002671069333 Z"/></g></g><g><g><rect fill="white" stroke="none" x="170.5996707788737" y="778.6991413109996" width="191.48602546753906" height="21.23576429"/></g><text fill="black" stroke="none" font-family="sans-serif" font-size="11pt" font-style="normal" font-weight="normal" text-decoration="normal" x="173.0499512738737" y="793.4008242809996" text-anchor="start" dominant-baseline="alphabetic">Start(my_F18_profile_name)</text></g><g><path fill="none" stroke="black" paint-order="fill stroke markers" d=" M 151.26968020720702 799.9349056009996 L 216.610493407207 799.9349056009996 L 216.610493407207 821.1706698909996 L 153.99221409054036 821.1706698909996" stroke-miterlimit="10" stroke-width="1.3612669416666667" stroke-dasharray=""/><g transform="translate(151.26968020720702,821.1706698909996) translate(-151.26968020720702,-821.1706698909996)"><path fill="black" stroke="none" paint-order="stroke fill markers" d=" M 164.8823496238737 814.3643351826663 L 151.26968020720702 821.1706698909996 L 164.8823496238737 827.977004599333 Z"/></g></g><g><g><rect fill="white" stroke="none" x="170.5996707788737" y="914.2813287009997" width="222.46667732300781" height="21.23576429"/></g><text fill="black" stroke="none" font-family="sans-serif" font-size="11pt" font-style="normal" font-weight="normal" text-decoration="normal" x="173.0499512738737" y="928.9830116709996" text-anchor="start" dominant-baseline="alphabetic">AutoStart(my_A10_profile_name)</text></g><g><path fill="none" stroke="black" paint-order="fill stroke markers" d=" M 151.26968020720702 935.5170929909997 L 216.610493407207 935.5170929909997 L 216.610493407207 956.7528572809997 L 153.99221409054036 956.7528572809997" stroke-miterlimit="10" stroke-width="1.3612669416666667" stroke-dasharray=""/><g transform="translate(151.26968020720702,956.7528572809997) translate(-151.26968020720702,-956.7528572809997)"><path fill="black" stroke="none" paint-order="stroke fill markers" d=" M 164.8823496238737 949.9465225726664 L 151.26968020720702 956.7528572809997 L 164.8823496238737 963.559191989333 Z"/></g></g><g><g><rect fill="white" stroke="none" x="174.68347160387364" y="981.2556622309996" width="235.51605476441406" height="21.23576429"/></g><text fill="black" stroke="none" font-family="sans-serif" font-size="11pt" font-style="normal" font-weight="normal" text-decoration="normal" x="177.13375209887363" y="995.9573452009996" text-anchor="start" dominant-baseline="alphabetic">LoadProfile(my_A10_profile_name)</text></g><g><path fill="none" stroke="black" paint-order="fill stroke markers" d=" M 151.26968020720702 1002.4914265209997 L 425.4457161149544 1002.4914265209997" stroke-miterlimit="10" stroke-width="1.3612669416666667" stroke-dasharray=""/><path fill="none" stroke="black" paint-order="fill stroke markers" d=" M 417.2781144649544 994.3238248709996 L 433.6133177649544 1010.6590281709997 M 417.2781144649544 1010.6590281709997 L 433.6133177649544 994.3238248709996" stroke-miterlimit="10" stroke-width="1.3612669416666667"/></g><path fill="white" stroke="black" paint-order="fill stroke markers" d=" M 24.50280494999999 1026.9942314709997 L 263.33487249441407 1026.9942314709997 L 278.03655546441405 1041.6959144409998 L 278.03655546441405 1097.2356056609997 L 24.50280494999999 1097.2356056609997 L 24.50280494999999 1026.9942314709997 M 263.33487249441407 1026.9942314709997 L 263.33487249441407 1041.6959144409998 L 278.03655546441405 1041.6959144409998" stroke-miterlimit="10" stroke-width="1.3612669416666667" stroke-dasharray=""/><g><text fill="black" stroke="none" font-family="sans-serif" font-size="11pt" font-style="normal" font-weight="normal" text-decoration="normal" x="47.372089569999986" y="1049.8635160909998" text-anchor="start" dominant-baseline="alphabetic">can't tell difference between</text><text fill="black" stroke="none" font-family="sans-serif" font-size="11pt" font-style="normal" font-weight="normal" text-decoration="normal" x="47.372089569999986" y="1066.198719391" text-anchor="start" dominant-baseline="alphabetic">legacy Export and lost message</text><text fill="black" stroke="none" font-family="sans-serif" font-size="11pt" font-style="normal" font-weight="normal" text-decoration="normal" x="47.372089569999986" y="1082.533922691" text-anchor="start" dominant-baseline="alphabetic">so we must not activate</text></g><g><g><rect fill="white" stroke="none" x="170.5996707788737" y="1121.7384106109996" width="30.97070564332031" height="21.23576429"/></g><text fill="black" stroke="none" font-family="sans-serif" font-size="11pt" font-style="normal" font-weight="normal" text-decoration="normal" x="173.0499512738737" y="1136.4400935809997" text-anchor="start" dominant-baseline="alphabetic">wait</text></g><g><path fill="none" stroke="black" paint-order="fill stroke markers" d=" M 151.26968020720702 1142.9741749009997 L 216.610493407207 1142.9741749009997 L 216.610493407207 1164.2099391909996 L 153.99221409054036 1195.519078849333" stroke-miterlimit="10" stroke-width="1.3612669416666667" stroke-dasharray=""/><g transform="translate(151.26968020720702,1196.8803457909996) rotate(-26.56505117707799,0,0) translate(-151.26968020720702,-1196.8803457909996)"><path fill="black" stroke="none" paint-order="stroke fill markers" d=" M 164.8823496238737 1190.0740110826664 L 151.26968020720702 1196.8803457909996 L 164.8823496238737 1203.6866804993329 Z"/><g transform="rotate(26.56505117707799,0,0)"/></g></g><g><g><rect fill="white" stroke="none" x="178.76727242887367" y="1221.3831507409998" width="235.51605476441406" height="21.23576429"/></g><text fill="black" stroke="none" font-family="sans-serif" font-size="11pt" font-style="normal" font-weight="normal" text-decoration="normal" x="181.21755292387365" y="1236.0848337109999" text-anchor="start" dominant-baseline="alphabetic">LoadProfile(my_A10_profile_name)</text></g><g><path fill="none" stroke="black" paint-order="fill stroke markers" d=" M 151.26968020720702 1242.6189150309997 L 439.05838553162107 1242.6189150309997" stroke-miterlimit="10" stroke-width="1.3612669416666667" stroke-dasharray=""/><g transform="translate(441.7809194149544,1242.6189150309997) translate(-441.7809194149544,-1242.6189150309997)"><path fill="black" stroke="none" paint-order="stroke fill markers" d=" M 428.1682499982877 1235.8125803226665 L 441.7809194149544 1242.6189150309997 L 428.1682499982877 1249.425249739333 Z"/></g></g><g><g><rect fill="white" stroke="none" x="219.52244515836585" y="1267.1217199809998" width="154.0057093054297" height="21.23576429"/></g><text fill="black" stroke="none" font-family="sans-serif" font-size="11pt" font-style="normal" font-weight="normal" text-decoration="normal" x="221.97272565336584" y="1281.823402951" text-anchor="start" dominant-baseline="alphabetic">Active(FA-18C_hornet)</text></g><g><path fill="none" stroke="black" paint-order="fill stroke markers" d=" M 441.7809194149544 1288.3574842709997 L 153.99221409054036 1288.3574842709997" stroke-miterlimit="10" stroke-width="1.3612669416666667" stroke-dasharray=""/><g transform="translate(151.26968020720702,1288.3574842709997) translate(-151.26968020720702,-1288.3574842709997)"><path fill="black" stroke="none" paint-order="stroke fill markers" d=" M 164.8823496238737 1281.5511495626665 L 151.26968020720702 1288.3574842709997 L 164.8823496238737 1295.163818979333 Z"/></g></g><g><g><rect fill="white" stroke="none" x="179.17886300504554" y="1312.860289221" width="234.69287361207031" height="21.23576429"/></g><text fill="black" stroke="none" font-family="sans-serif" font-size="11pt" font-style="normal" font-weight="normal" text-decoration="normal" x="181.62914350004553" y="1327.561972191" text-anchor="start" dominant-baseline="alphabetic">LoadProfile(my_F18_profile_name)</text></g><g><path fill="none" stroke="black" paint-order="fill stroke markers" d=" M 151.26968020720702 1334.0960535109998 L 439.05838553162107 1334.0960535109998" stroke-miterlimit="10" stroke-width="1.3612669416666667" stroke-dasharray=""/><g transform="translate(441.7809194149544,1334.0960535109998) translate(-441.7809194149544,-1334.0960535109998)"><path fill="black" stroke="none" paint-order="stroke fill markers" d=" M 428.1682499982877 1327.2897188026666 L 441.7809194149544 1334.0960535109998 L 428.1682499982877 1340.902388219333 Z"/></g></g><g><g><rect fill="white" stroke="none" x="191.80232949674476" y="1358.598858461" width="209.44594062867188" height="21.23576429"/></g><text fill="black" stroke="none" font-family="sans-serif" font-size="11pt" font-style="normal" font-weight="normal" text-decoration="normal" x="194.25260999174475" y="1373.300541431" text-anchor="start" dominant-baseline="alphabetic">Loaded(my_F18_profile_name)</text></g><g><path fill="none" stroke="black" paint-order="fill stroke markers" d=" M 441.7809194149544 1379.8346227509999 L 153.99221409054036 1379.8346227509999" stroke-miterlimit="10" stroke-width="1.3612669416666667" stroke-dasharray=""/><g transform="translate(151.26968020720702,1379.8346227509999) translate(-151.26968020720702,-1379.8346227509999)"><path fill="black" stroke="none" paint-order="stroke fill markers" d=" M 164.8823496238737 1373.0282880426666 L 151.26968020720702 1379.8346227509999 L 164.8823496238737 1386.640957459333 Z"/></g></g><g><g><rect fill="white" stroke="none" x="170.5996707788737" y="1404.3374277009998" width="191.48602546753906" height="21.23576429"/></g><text fill="black" stroke="none" font-family="sans-serif" font-size="11pt" font-style="normal" font-weight="normal" text-decoration="normal" x="173.0499512738737" y="1419.039110671" text-anchor="start" dominant-baseline="alphabetic">Start(my_F18_profile_name)</text></g><g><path fill="none" stroke="black" paint-order="fill stroke markers" d=" M 151.26968020720702 1425.573191991 L 216.610493407207 1425.573191991 L 216.610493407207 1446.8089562809998 L 153.99221409054036 1446.8089562809998" stroke-miterlimit="10" stroke-width="1.3612669416666667" stroke-dasharray=""/><g transform="translate(151.26968020720702,1446.8089562809998) translate(-151.26968020720702,-1446.8089562809998)"><path fill="black" stroke="none" paint-order="stroke fill markers" d=" M 164.8823496238737 1440.0026215726666 L 151.26968020720702 1446.8089562809998 L 164.8823496238737 1453.615290989333 Z"/></g></g><g><g><rect fill="white" stroke="none" x="170.5996707788737" y="1539.9196150909997" width="222.46667732300781" height="21.23576429"/></g><text fill="black" stroke="none" font-family="sans-serif" font-size="11pt" font-style="normal" font-weight="normal" text-decoration="normal" x="173.0499512738737" y="1554.6212980609998" text-anchor="start" dominant-baseline="alphabetic">AutoStart(my_A10_profile_name)</text></g><g><path fill="none" stroke="black" paint-order="fill stroke markers" d=" M 151.26968020720702 1561.1553793809999 L 216.610493407207 1561.1553793809999 L 216.610493407207 1582.3911436709998 L 153.99221409054036 1582.3911436709998" stroke-miterlimit="10" stroke-width="1.3612669416666667" stroke-dasharray=""/><g transform="translate(151.26968020720702,1582.3911436709998) translate(-151.26968020720702,-1582.3911436709998)"><path fill="black" stroke="none" paint-order="stroke fill markers" d=" M 164.8823496238737 1575.5848089626666 L 151.26968020720702 1582.3911436709998 L 164.8823496238737 1589.197478379333 Z"/></g></g><g><g><rect fill="white" stroke="none" x="174.68347160387364" y="1606.893948621" width="235.51605476441406" height="21.23576429"/></g><text fill="black" stroke="none" font-family="sans-serif" font-size="11pt" font-style="normal" font-weight="normal" text-decoration="normal" x="177.13375209887363" y="1621.595631591" text-anchor="start" dominant-baseline="alphabetic">LoadProfile(my_A10_profile_name)</text></g><g><path fill="none" stroke="black" paint-order="fill stroke markers" d=" M 151.26968020720702 1628.1297129109998 L 425.4457161149544 1628.1297129109998" stroke-miterlimit="10" stroke-width="1.3612669416666667" stroke-dasharray=""/><path fill="none" stroke="black" paint-order="fill stroke markers" d=" M 417.2781144649544 1619.9621112609998 L 433.6133177649544 1636.297314561 M 417.2781144649544 1636.297314561 L 433.6133177649544 1619.9621112609998" stroke-miterlimit="10" stroke-width="1.3612669416666667"/></g><g><g><rect fill="white" stroke="none" x="170.5996707788737" y="1652.6325178609998" width="30.97070564332031" height="21.23576429"/></g><text fill="black" stroke="none" font-family="sans-serif" font-size="11pt" font-style="normal" font-weight="normal" text-decoration="normal" x="173.0499512738737" y="1667.3342008309999" text-anchor="start" dominant-baseline="alphabetic">wait</text></g><g><path fill="none" stroke="black" paint-order="fill stroke markers" d=" M 151.26968020720702 1673.868282151 L 216.610493407207 1673.868282151 L 216.610493407207 1695.1040464409998 L 153.99221409054036 1726.4131860993332" stroke-miterlimit="10" stroke-width="1.3612669416666667" stroke-dasharray=""/><g transform="translate(151.26968020720702,1727.7744530409998) rotate(-26.56505117707799,0,0) translate(-151.26968020720702,-1727.7744530409998)"><path fill="black" stroke="none" paint-order="stroke fill markers" d=" M 164.8823496238737 1720.9681183326666 L 151.26968020720702 1727.7744530409998 L 164.8823496238737 1734.580787749333 Z"/><g transform="rotate(26.56505117707799,0,0)"/></g></g><g><g><rect fill="white" stroke="none" x="248.45586343229164" y="1752.277257991" width="96.13887275757813" height="21.23576429"/></g><text fill="black" stroke="none" font-family="sans-serif" font-size="11pt" font-style="normal" font-weight="normal" text-decoration="normal" x="250.90614392729162" y="1766.978940961" text-anchor="start" dominant-baseline="alphabetic">Active(A-10C)</text></g><g><path fill="none" stroke="black" paint-order="fill stroke markers" d=" M 441.7809194149544 1773.5130222809998 L 153.99221409054036 1773.5130222809998" stroke-miterlimit="10" stroke-width="1.3612669416666667" stroke-dasharray=""/><g transform="translate(151.26968020720702,1773.5130222809998) translate(-151.26968020720702,-1773.5130222809998)"><path fill="black" stroke="none" paint-order="stroke fill markers" d=" M 164.8823496238737 1766.7066875726666 L 151.26968020720702 1773.5130222809998 L 164.8823496238737 1780.319356989333 Z"/></g></g><g><g><rect fill="white" stroke="none" x="178.76727242887367" y="1798.015827231" width="235.51605476441406" height="21.23576429"/></g><text fill="black" stroke="none" font-family="sans-serif" font-size="11pt" font-style="normal" font-weight="normal" text-decoration="normal" x="181.21755292387365" y="1812.717510201" text-anchor="start" dominant-baseline="alphabetic">LoadProfile(my_A10_profile_name)</text></g><g><path fill="none" stroke="black" paint-order="fill stroke markers" d=" M 151.26968020720702 1819.251591521 L 439.05838553162107 1819.251591521" stroke-miterlimit="10" stroke-width="1.3612669416666667" stroke-dasharray=""/><g transform="translate(441.7809194149544,1819.251591521) translate(-441.7809194149544,-1819.251591521)"><path fill="black" stroke="none" paint-order="stroke fill markers" d=" M 428.1682499982877 1812.4452568126667 L 441.7809194149544 1819.251591521 L 428.1682499982877 1826.0579262293331 Z"/></g></g><path fill="white" stroke="black" paint-order="fill stroke markers" d=" M 364.72053372073566 1843.7543964709998 L 504.1396221391732 1843.7543964709998 L 518.8413051091732 1858.456079441 L 518.8413051091732 1881.3253640609998 L 364.72053372073566 1881.3253640609998 L 364.72053372073566 1843.7543964709998 M 504.1396221391732 1843.7543964709998 L 504.1396221391732 1858.456079441 L 518.8413051091732 1858.456079441" stroke-miterlimit="10" stroke-width="1.3612669416666667" stroke-dasharray=""/><g><text fill="black" stroke="none" font-family="sans-serif" font-size="11pt" font-style="normal" font-weight="normal" text-decoration="normal" x="387.58981834073563" y="1866.623681091" text-anchor="start" dominant-baseline="alphabetic">already matched</text></g><g><g><rect fill="white" stroke="none" x="191.3907389205729" y="1905.828169011" width="210.26912178101563" height="21.23576429"/></g><text fill="black" stroke="none" font-family="sans-serif" font-size="11pt" font-style="normal" font-weight="normal" text-decoration="normal" x="193.84101941557287" y="1920.529851981" text-anchor="start" dominant-baseline="alphabetic">Loaded(my_A10_profile_name)</text></g><g><path fill="none" stroke="black" paint-order="fill stroke markers" d=" M 441.7809194149544 1927.063933301 L 153.99221409054036 1927.063933301" stroke-miterlimit="10" stroke-width="1.3612669416666667" stroke-dasharray=""/><g transform="translate(151.26968020720702,1927.063933301) translate(-151.26968020720702,-1927.063933301)"><path fill="black" stroke="none" paint-order="stroke fill markers" d=" M 164.8823496238737 1920.2575985926667 L 151.26968020720702 1927.063933301 L 164.8823496238737 1933.8702680093331 Z"/></g></g><g><g><rect fill="white" stroke="none" x="170.5996707788737" y="1951.5667382509998" width="192.30920661988281" height="21.23576429"/></g><text fill="black" stroke="none" font-family="sans-serif" font-size="11pt" font-style="normal" font-weight="normal" text-decoration="normal" x="173.0499512738737" y="1966.268421221" text-anchor="start" dominant-baseline="alphabetic">Start(my_A10_profile_name)</text></g><g><path fill="none" stroke="black" paint-order="fill stroke markers" d=" M 151.26968020720702 1972.802502541 L 216.610493407207 1972.802502541 L 216.610493407207 1994.0382668309999 L 153.99221409054036 1994.0382668309999" stroke-miterlimit="10" stroke-width="1.3612669416666667" stroke-dasharray=""/><g transform="translate(151.26968020720702,1994.0382668309999) translate(-151.26968020720702,-1994.0382668309999)"><path fill="black" stroke="none" paint-order="stroke fill markers" d=" M 164.8823496238737 1987.2319321226666 L 151.26968020720702 1994.0382668309999 L 164.8823496238737 2000.844601539333 Z"/></g></g><g><g><rect fill="white" stroke="none" x="170.5996707788737" y="2087.148925641" width="222.46667732300781" height="21.23576429"/></g><text fill="black" stroke="none" font-family="sans-serif" font-size="11pt" font-style="normal" font-weight="normal" text-decoration="normal" x="173.0499512738737" y="2101.850608611" text-anchor="start" dominant-baseline="alphabetic">AutoStart(my_A10_profile_name)</text></g><g><path fill="none" stroke="black" paint-order="fill stroke markers" d=" M 151.26968020720702 2108.3846899309997 L 216.610493407207 2108.3846899309997 L 216.610493407207 2129.620454221 L 153.99221409054036 2129.620454221" stroke-miterlimit="10" stroke-width="1.3612669416666667" stroke-dasharray=""/><g transform="translate(151.26968020720702,2129.620454221) translate(-151.26968020720702,-2129.620454221)"><path fill="black" stroke="none" paint-order="stroke fill markers" d=" M 164.8823496238737 2122.8141195126664 L 151.26968020720702 2129.620454221 L 164.8823496238737 2136.4267889293333 Z"/></g></g><g><g><rect fill="white" stroke="none" x="174.68347160387364" y="2154.1232591709995" width="235.51605476441406" height="21.23576429"/></g><text fill="black" stroke="none" font-family="sans-serif" font-size="11pt" font-style="normal" font-weight="normal" text-decoration="normal" x="177.13375209887363" y="2168.8249421409996" text-anchor="start" dominant-baseline="alphabetic">LoadProfile(my_A10_profile_name)</text></g><g><path fill="none" stroke="black" paint-order="fill stroke markers" d=" M 151.26968020720702 2175.3590234609997 L 425.4457161149544 2175.3590234609997" stroke-miterlimit="10" stroke-width="1.3612669416666667" stroke-dasharray=""/><path fill="none" stroke="black" paint-order="fill stroke markers" d=" M 417.2781144649544 2167.1914218109996 L 433.6133177649544 2183.5266251109997 M 417.2781144649544 2183.5266251109997 L 433.6133177649544 2167.1914218109996" stroke-miterlimit="10" stroke-width="1.3612669416666667"/></g><g><g><rect fill="white" stroke="none" x="170.5996707788737" y="2199.861828411" width="30.97070564332031" height="21.23576429"/></g><text fill="black" stroke="none" font-family="sans-serif" font-size="11pt" font-style="normal" font-weight="normal" text-decoration="normal" x="173.0499512738737" y="2214.563511381" text-anchor="start" dominant-baseline="alphabetic">wait</text></g><g><path fill="none" stroke="black" paint-order="fill stroke markers" d=" M 151.26968020720702 2221.0975927009995 L 216.610493407207 2221.0975927009995 L 216.610493407207 2242.3333569909996 L 153.99221409054036 2273.642496649333" stroke-miterlimit="10" stroke-width="1.3612669416666667" stroke-dasharray=""/><g transform="translate(151.26968020720702,2275.003763591) rotate(-26.56505117707799,0,0) translate(-151.26968020720702,-2275.003763591)"><path fill="black" stroke="none" paint-order="stroke fill markers" d=" M 164.8823496238737 2268.1974288826664 L 151.26968020720702 2275.003763591 L 164.8823496238737 2281.8100982993333 Z"/><g transform="rotate(26.56505117707799,0,0)"/></g></g><g><g><rect fill="white" stroke="none" x="219.52244515836585" y="2299.5065685409995" width="154.0057093054297" height="21.23576429"/></g><text fill="black" stroke="none" font-family="sans-serif" font-size="11pt" font-style="normal" font-weight="normal" text-decoration="normal" x="221.97272565336584" y="2314.2082515109996" text-anchor="start" dominant-baseline="alphabetic">Active(FA-18C_hornet)</text></g><g><path fill="none" stroke="black" paint-order="fill stroke markers" d=" M 441.7809194149544 2320.7423328309997 L 153.99221409054036 2320.7423328309997" stroke-miterlimit="10" stroke-width="1.3612669416666667" stroke-dasharray=""/><g transform="translate(151.26968020720702,2320.7423328309997) translate(-151.26968020720702,-2320.7423328309997)"><path fill="black" stroke="none" paint-order="stroke fill markers" d=" M 164.8823496238737 2313.935998122666 L 151.26968020720702 2320.7423328309997 L 164.8823496238737 2327.548667539333 Z"/></g></g><g><g><rect fill="white" stroke="none" x="179.17886300504554" y="2345.2451377809994" width="234.69287361207031" height="21.23576429"/></g><text fill="black" stroke="none" font-family="sans-serif" font-size="11pt" font-style="normal" font-weight="normal" text-decoration="normal" x="181.62914350004553" y="2359.9468207509994" text-anchor="start" dominant-baseline="alphabetic">LoadProfile(my_F18_profile_name)</text></g><g><path fill="none" stroke="black" paint-order="fill stroke markers" d=" M 151.26968020720702 2366.4809020709995 L 439.05838553162107 2366.4809020709995" stroke-miterlimit="10" stroke-width="1.3612669416666667" stroke-dasharray=""/><g transform="translate(441.7809194149544,2366.4809020709995) translate(-441.7809194149544,-2366.4809020709995)"><path fill="black" stroke="none" paint-order="stroke fill markers" d=" M 428.1682499982877 2359.674567362666 L 441.7809194149544 2366.4809020709995 L 428.1682499982877 2373.287236779333 Z"/></g></g><g><g><rect fill="white" stroke="none" x="191.80232949674476" y="2390.983707020999" width="209.44594062867188" height="21.23576429"/></g><text fill="black" stroke="none" font-family="sans-serif" font-size="11pt" font-style="normal" font-weight="normal" text-decoration="normal" x="194.25260999174475" y="2405.6853899909993" text-anchor="start" dominant-baseline="alphabetic">Loaded(my_F18_profile_name)</text></g><g><path fill="none" stroke="black" paint-order="fill stroke markers" d=" M 441.7809194149544 2412.2194713109993 L 153.99221409054036 2412.2194713109993" stroke-miterlimit="10" stroke-width="1.3612669416666667" stroke-dasharray=""/><g transform="translate(151.26968020720702,2412.2194713109993) translate(-151.26968020720702,-2412.2194713109993)"><path fill="black" stroke="none" paint-order="stroke fill markers" d=" M 164.8823496238737 2405.413136602666 L 151.26968020720702 2412.2194713109993 L 164.8823496238737 2419.025806019333 Z"/></g></g><g><g><rect fill="white" stroke="none" x="170.5996707788737" y="2436.7222762609995" width="191.48602546753906" height="21.23576429"/></g><text fill="black" stroke="none" font-family="sans-serif" font-size="11pt" font-style="normal" font-weight="normal" text-decoration="normal" x="173.0499512738737" y="2451.4239592309996" text-anchor="start" dominant-baseline="alphabetic">Start(my_F18_profile_name)</text></g><g><path fill="none" stroke="black" paint-order="fill stroke markers" d=" M 151.26968020720702 2457.958040550999 L 216.610493407207 2457.958040550999 L 216.610493407207 2479.1938048409993 L 153.99221409054036 2479.1938048409993" stroke-miterlimit="10" stroke-width="1.3612669416666667" stroke-dasharray=""/><g transform="translate(151.26968020720702,2479.1938048409993) translate(-151.26968020720702,-2479.1938048409993)"><path fill="black" stroke="none" paint-order="stroke fill markers" d=" M 164.8823496238737 2472.387470132666 L 151.26968020720702 2479.1938048409993 L 164.8823496238737 2486.0001395493327 Z"/></g></g><g><g><rect fill="white" stroke="none" x="170.5996707788737" y="2572.3044636509994" width="222.46667732300781" height="21.23576429"/></g><text fill="black" stroke="none" font-family="sans-serif" font-size="11pt" font-style="normal" font-weight="normal" text-decoration="normal" x="173.0499512738737" y="2587.0061466209995" text-anchor="start" dominant-baseline="alphabetic">AutoStart(my_A10_profile_name)</text></g><g><path fill="none" stroke="black" paint-order="fill stroke markers" d=" M 151.26968020720702 2593.540227940999 L 216.610493407207 2593.540227940999 L 216.610493407207 2614.7759922309992 L 153.99221409054036 2614.7759922309992" stroke-miterlimit="10" stroke-width="1.3612669416666667" stroke-dasharray=""/><g transform="translate(151.26968020720702,2614.7759922309992) translate(-151.26968020720702,-2614.7759922309992)"><path fill="black" stroke="none" paint-order="stroke fill markers" d=" M 164.8823496238737 2607.969657522666 L 151.26968020720702 2614.7759922309992 L 164.8823496238737 2621.5823269393327 Z"/></g></g><g><g><rect fill="white" stroke="none" x="174.68347160387364" y="2639.278797180999" width="235.51605476441406" height="21.23576429"/></g><text fill="black" stroke="none" font-family="sans-serif" font-size="11pt" font-style="normal" font-weight="normal" text-decoration="normal" x="177.13375209887363" y="2653.980480150999" text-anchor="start" dominant-baseline="alphabetic">LoadProfile(my_A10_profile_name)</text></g><g><path fill="none" stroke="black" paint-order="fill stroke markers" d=" M 151.26968020720702 2660.514561470999 L 425.4457161149544 2660.514561470999" stroke-miterlimit="10" stroke-width="1.3612669416666667" stroke-dasharray=""/><path fill="none" stroke="black" paint-order="fill stroke markers" d=" M 417.2781144649544 2652.346959820999 L 433.6133177649544 2668.682163120999 M 417.2781144649544 2668.682163120999 L 433.6133177649544 2652.346959820999" stroke-miterlimit="10" stroke-width="1.3612669416666667"/></g><g><g><rect fill="white" stroke="none" x="170.5996707788737" y="2685.017366420999" width="30.97070564332031" height="21.23576429"/></g><text fill="black" stroke="none" font-family="sans-serif" font-size="11pt" font-style="normal" font-weight="normal" text-decoration="normal" x="173.0499512738737" y="2699.7190493909993" text-anchor="start" dominant-baseline="alphabetic">wait</text></g><g><path fill="none" stroke="black" paint-order="fill stroke markers" d=" M 151.26968020720702 2706.253130710999 L 216.610493407207 2706.253130710999 L 216.610493407207 2727.488895000999 L 153.99221409054036 2758.7980346593326" stroke-miterlimit="10" stroke-width="1.3612669416666667" stroke-dasharray=""/><g transform="translate(151.26968020720702,2760.1593016009992) rotate(-26.56505117707799,0,0) translate(-151.26968020720702,-2760.1593016009992)"><path fill="black" stroke="none" paint-order="stroke fill markers" d=" M 164.8823496238737 2753.352966892666 L 151.26968020720702 2760.1593016009992 L 164.8823496238737 2766.9656363093327 Z"/><g transform="rotate(26.56505117707799,0,0)"/></g></g><g><g><rect fill="white" stroke="none" x="248.45586343229164" y="2784.662106550999" width="96.13887275757813" height="21.23576429"/></g><text fill="black" stroke="none" font-family="sans-serif" font-size="11pt" font-style="normal" font-weight="normal" text-decoration="normal" x="250.90614392729162" y="2799.363789520999" text-anchor="start" dominant-baseline="alphabetic">Active(A-10C)</text></g><g><path fill="none" stroke="black" paint-order="fill stroke markers" d=" M 441.7809194149544 2805.897870840999 L 153.99221409054036 2805.897870840999" stroke-miterlimit="10" stroke-width="1.3612669416666667" stroke-dasharray=""/><g transform="translate(151.26968020720702,2805.897870840999) translate(-151.26968020720702,-2805.897870840999)"><path fill="black" stroke="none" paint-order="stroke fill markers" d=" M 164.8823496238737 2799.0915361326656 L 151.26968020720702 2805.897870840999 L 164.8823496238737 2812.7042055493325 Z"/></g></g><g><g><rect fill="white" stroke="none" x="178.76727242887367" y="2830.400675790999" width="235.51605476441406" height="21.23576429"/></g><text fill="black" stroke="none" font-family="sans-serif" font-size="11pt" font-style="normal" font-weight="normal" text-decoration="normal" x="181.21755292387365" y="2845.102358760999" text-anchor="start" dominant-baseline="alphabetic">LoadProfile(my_A10_profile_name)</text></g><g><path fill="none" stroke="black" paint-order="fill stroke markers" d=" M 151.26968020720702 2851.636440080999 L 439.05838553162107 2851.636440080999" stroke-miterlimit="10" stroke-width="1.3612669416666667" stroke-dasharray=""/><g transform="translate(441.7809194149544,2851.636440080999) translate(-441.7809194149544,-2851.636440080999)"><path fill="black" stroke="none" paint-order="stroke fill markers" d=" M 428.1682499982877 2844.8301053726655 L 441.7809194149544 2851.636440080999 L 428.1682499982877 2858.4427747893324 Z"/></g></g><path fill="white" stroke="black" paint-order="fill stroke markers" d=" M 347.8343642871419 2876.139245030999 L 521.0257915727669 2876.139245030999 L 535.7274745427669 2890.840928000999 L 535.7274745427669 2913.710212620999 L 347.8343642871419 2913.710212620999 L 347.8343642871419 2876.139245030999 M 521.0257915727669 2876.139245030999 L 521.0257915727669 2890.840928000999 L 535.7274745427669 2890.840928000999" stroke-miterlimit="10" stroke-width="1.3612669416666667" stroke-dasharray=""/><g><text fill="black" stroke="none" font-family="sans-serif" font-size="11pt" font-style="normal" font-weight="normal" text-decoration="normal" x="370.7036489071419" y="2899.008529650999" text-anchor="start" dominant-baseline="alphabetic">don't have this profile!</text></g><g><g><rect fill="white" stroke="none" x="248.42722268522132" y="2938.2130175709985" width="96.19615425171875" height="21.23576429"/></g><text fill="black" stroke="none" font-family="sans-serif" font-size="11pt" font-style="normal" font-weight="normal" text-decoration="normal" x="250.8775031802213" y="2952.9147005409986" text-anchor="start" dominant-baseline="alphabetic">Loaded(none)</text></g><g><path fill="none" stroke="black" paint-order="fill stroke markers" d=" M 441.7809194149544 2959.4487818609987 L 153.99221409054036 2959.4487818609987" stroke-miterlimit="10" stroke-width="1.3612669416666667" stroke-dasharray=""/><g transform="translate(151.26968020720702,2959.4487818609987) translate(-151.26968020720702,-2959.4487818609987)"><path fill="black" stroke="none" paint-order="stroke fill markers" d=" M 164.8823496238737 2952.642447152665 L 151.26968020720702 2959.4487818609987 L 164.8823496238737 2966.255116569332 Z"/></g></g><g><g><rect fill="white" stroke="none" x="170.5996707788737" y="2983.951586810999" width="47.24124397339844" height="21.23576429"/></g><text fill="black" stroke="none" font-family="sans-serif" font-size="11pt" font-style="normal" font-weight="normal" text-decoration="normal" x="173.0499512738737" y="2998.653269780999" text-anchor="start" dominant-baseline="alphabetic">Error()</text></g><g><path fill="none" stroke="black" paint-order="fill stroke markers" d=" M 151.26968020720702 3005.1873511009985 L 216.610493407207 3005.1873511009985 L 216.610493407207 3026.4231153909986 L 153.99221409054036 3026.4231153909986" stroke-miterlimit="10" stroke-width="1.3612669416666667" stroke-dasharray=""/><g transform="translate(151.26968020720702,3026.4231153909986) translate(-151.26968020720702,-3026.4231153909986)"><path fill="black" stroke="none" paint-order="stroke fill markers" d=" M 164.8823496238737 3019.616780682665 L 151.26968020720702 3026.4231153909986 L 164.8823496238737 3033.229450099332 Z"/></g></g><g><g><rect fill="white" stroke="none" x="170.5996707788737" y="3119.533774200999" width="222.46667732300781" height="21.23576429"/></g><text fill="black" stroke="none" font-family="sans-serif" font-size="11pt" font-style="normal" font-weight="normal" text-decoration="normal" x="173.0499512738737" y="3134.235457170999" text-anchor="start" dominant-baseline="alphabetic">AutoStart(my_A10_profile_name)</text></g><g><path fill="none" stroke="black" paint-order="fill stroke markers" d=" M 151.26968020720702 3140.7695384909985 L 216.610493407207 3140.7695384909985 L 216.610493407207 3162.0053027809986 L 153.99221409054036 3162.0053027809986" stroke-miterlimit="10" stroke-width="1.3612669416666667" stroke-dasharray=""/><g transform="translate(151.26968020720702,3162.0053027809986) translate(-151.26968020720702,-3162.0053027809986)"><path fill="black" stroke="none" paint-order="stroke fill markers" d=" M 164.8823496238737 3155.198968072665 L 151.26968020720702 3162.0053027809986 L 164.8823496238737 3168.811637489332 Z"/></g></g><g><g><rect fill="white" stroke="none" x="174.68347160387364" y="3186.5081077309983" width="235.51605476441406" height="21.23576429"/></g><text fill="black" stroke="none" font-family="sans-serif" font-size="11pt" font-style="normal" font-weight="normal" text-decoration="normal" x="177.13375209887363" y="3201.2097907009984" text-anchor="start" dominant-baseline="alphabetic">LoadProfile(my_A10_profile_name)</text></g><g><path fill="none" stroke="black" paint-order="fill stroke markers" d=" M 151.26968020720702 3207.7438720209984 L 425.4457161149544 3207.7438720209984" stroke-miterlimit="10" stroke-width="1.3612669416666667" stroke-dasharray=""/><path fill="none" stroke="black" paint-order="fill stroke markers" d=" M 417.2781144649544 3199.5762703709984 L 433.6133177649544 3215.9114736709985 M 417.2781144649544 3215.9114736709985 L 433.6133177649544 3199.5762703709984" stroke-miterlimit="10" stroke-width="1.3612669416666667"/></g><g><g><rect fill="white" stroke="none" x="252.53966425729166" y="3232.246676970998" width="96.13887275757813" height="21.23576429"/></g><text fill="black" stroke="none" font-family="sans-serif" font-size="11pt" font-style="normal" font-weight="normal" text-decoration="normal" x="254.98994475229165" y="3246.948359940998" text-anchor="start" dominant-baseline="alphabetic">Active(A-10C)</text></g><g><path fill="none" stroke="black" paint-order="fill stroke markers" d=" M 441.7809194149544 3253.4824412609983 L 167.604883507207 3253.4824412609983" stroke-miterlimit="10" stroke-width="1.3612669416666667" stroke-dasharray=""/><path fill="none" stroke="black" paint-order="fill stroke markers" d=" M 159.437281857207 3245.314839610998 L 175.772485157207 3261.6500429109983 M 159.437281857207 3261.6500429109983 L 175.772485157207 3245.314839610998" stroke-miterlimit="10" stroke-width="1.3612669416666667"/></g><g><g><rect fill="white" stroke="none" x="170.5996707788737" y="3277.9852462109984" width="30.97070564332031" height="21.23576429"/></g><text fill="black" stroke="none" font-family="sans-serif" font-size="11pt" font-style="normal" font-weight="normal" text-decoration="normal" x="173.0499512738737" y="3292.6869291809985" text-anchor="start" dominant-baseline="alphabetic">wait</text></g><g><path fill="none" stroke="black" paint-order="fill stroke markers" d=" M 151.26968020720702 3299.221010500998 L 216.610493407207 3299.221010500998 L 216.610493407207 3320.456774790998 L 153.99221409054036 3351.765914449332" stroke-miterlimit="10" stroke-width="1.3612669416666667" stroke-dasharray=""/><g transform="translate(151.26968020720702,3353.1271813909984) rotate(-26.56505117707799,0,0) translate(-151.26968020720702,-3353.1271813909984)"><path fill="black" stroke="none" paint-order="stroke fill markers" d=" M 164.8823496238737 3346.320846682665 L 151.26968020720702 3353.1271813909984 L 164.8823496238737 3359.933516099332 Z"/><g transform="rotate(26.56505117707799,0,0)"/></g></g><g><g><rect fill="white" stroke="none" x="178.76727242887367" y="3377.629986340998" width="235.51605476441406" height="21.23576429"/></g><text fill="black" stroke="none" font-family="sans-serif" font-size="11pt" font-style="normal" font-weight="normal" text-decoration="normal" x="181.21755292387365" y="3392.331669310998" text-anchor="start" dominant-baseline="alphabetic">LoadProfile(my_A10_profile_name)</text></g><g><path fill="none" stroke="black" paint-order="fill stroke markers" d=" M 151.26968020720702 3398.8657506309983 L 439.05838553162107 3398.8657506309983" stroke-miterlimit="10" stroke-width="1.3612669416666667" stroke-dasharray=""/><g transform="translate(441.7809194149544,3398.8657506309983) translate(-441.7809194149544,-3398.8657506309983)"><path fill="black" stroke="none" paint-order="stroke fill markers" d=" M 428.1682499982877 3392.059415922665 L 441.7809194149544 3398.8657506309983 L 428.1682499982877 3405.6720853393317 Z"/></g></g><path fill="white" stroke="black" paint-order="fill stroke markers" d=" M 364.72053372073566 3423.3685555809984 L 504.1396221391732 3423.3685555809984 L 518.8413051091732 3438.0702385509985 L 518.8413051091732 3460.939523170998 L 364.72053372073566 3460.939523170998 L 364.72053372073566 3423.3685555809984 M 504.1396221391732 3423.3685555809984 L 504.1396221391732 3438.0702385509985 L 518.8413051091732 3438.0702385509985" stroke-miterlimit="10" stroke-width="1.3612669416666667" stroke-dasharray=""/><g><text fill="black" stroke="none" font-family="sans-serif" font-size="11pt" font-style="normal" font-weight="normal" text-decoration="normal" x="387.58981834073563" y="3446.2378402009986" text-anchor="start" dominant-baseline="alphabetic">already matched</text></g><g><g><rect fill="white" stroke="none" x="195.4745397455729" y="3485.442328120998" width="210.26912178101563" height="21.23576429"/></g><text fill="black" stroke="none" font-family="sans-serif" font-size="11pt" font-style="normal" font-weight="normal" text-decoration="normal" x="197.9248202405729" y="3500.144011090998" text-anchor="start" dominant-baseline="alphabetic">Loaded(my_A10_profile_name)</text></g><g><path fill="none" stroke="black" paint-order="fill stroke markers" d=" M 441.7809194149544 3506.678092410998 L 167.604883507207 3506.678092410998" stroke-miterlimit="10" stroke-width="1.3612669416666667" stroke-dasharray=""/><path fill="none" stroke="black" paint-order="fill stroke markers" d=" M 159.437281857207 3498.510490760998 L 175.772485157207 3514.845694060998 M 159.437281857207 3514.845694060998 L 175.772485157207 3498.510490760998" stroke-miterlimit="10" stroke-width="1.3612669416666667"/></g><g><g><rect fill="white" stroke="none" x="170.5996707788737" y="3531.180897360998" width="30.97070564332031" height="21.23576429"/></g><text fill="black" stroke="none" font-family="sans-serif" font-size="11pt" font-style="normal" font-weight="normal" text-decoration="normal" x="173.0499512738737" y="3545.8825803309983" text-anchor="start" dominant-baseline="alphabetic">wait</text></g><g><path fill="none" stroke="black" paint-order="fill stroke markers" d=" M 151.26968020720702 3552.416661650998 L 216.610493407207 3552.416661650998 L 216.610493407207 3573.652425940998 L 153.99221409054036 3604.9615655993316" stroke-miterlimit="10" stroke-width="1.3612669416666667" stroke-dasharray=""/><g transform="translate(151.26968020720702,3606.322832540998) rotate(-26.56505117707799,0,0) translate(-151.26968020720702,-3606.322832540998)"><path fill="black" stroke="none" paint-order="stroke fill markers" d=" M 164.8823496238737 3599.5164978326648 L 151.26968020720702 3606.322832540998 L 164.8823496238737 3613.1291672493317 Z"/><g transform="rotate(26.56505117707799,0,0)"/></g></g><g><g><rect fill="white" stroke="none" x="178.76727242887367" y="3630.825637490998" width="235.51605476441406" height="21.23576429"/></g><text fill="black" stroke="none" font-family="sans-serif" font-size="11pt" font-style="normal" font-weight="normal" text-decoration="normal" x="181.21755292387365" y="3645.527320460998" text-anchor="start" dominant-baseline="alphabetic">LoadProfile(my_A10_profile_name)</text></g><g><path fill="none" stroke="black" paint-order="fill stroke markers" d=" M 151.26968020720702 3652.061401780998 L 439.05838553162107 3652.061401780998" stroke-miterlimit="10" stroke-width="1.3612669416666667" stroke-dasharray=""/><g transform="translate(441.7809194149544,3652.061401780998) translate(-441.7809194149544,-3652.061401780998)"><path fill="black" stroke="none" paint-order="stroke fill markers" d=" M 428.1682499982877 3645.2550670726646 L 441.7809194149544 3652.061401780998 L 428.1682499982877 3658.8677364893315 Z"/></g></g><path fill="white" stroke="black" paint-order="fill stroke markers" d=" M 364.72053372073566 3676.564206730998 L 504.1396221391732 3676.564206730998 L 518.8413051091732 3691.2658897009983 L 518.8413051091732 3714.135174320998 L 364.72053372073566 3714.135174320998 L 364.72053372073566 3676.564206730998 M 504.1396221391732 3676.564206730998 L 504.1396221391732 3691.2658897009983 L 518.8413051091732 3691.2658897009983" stroke-miterlimit="10" stroke-width="1.3612669416666667" stroke-dasharray=""/><g><text fill="black" stroke="none" font-family="sans-serif" font-size="11pt" font-style="normal" font-weight="normal" text-decoration="normal" x="387.58981834073563" y="3699.4334913509983" text-anchor="start" dominant-baseline="alphabetic">already matched</text></g><g><g><rect fill="white" stroke="none" x="191.3907389205729" y="3738.6379792709977" width="210.26912178101563" height="21.23576429"/></g><text fill="black" stroke="none" font-family="sans-serif" font-size="11pt" font-style="normal" font-weight="normal" text-decoration="normal" x="193.84101941557287" y="3753.3396622409978" text-anchor="start" dominant-baseline="alphabetic">Loaded(my_A10_profile_name)</text></g><g><path fill="none" stroke="black" paint-order="fill stroke markers" d=" M 441.7809194149544 3759.873743560998 L 153.99221409054036 3759.873743560998" stroke-miterlimit="10" stroke-width="1.3612669416666667" stroke-dasharray=""/><g transform="translate(151.26968020720702,3759.873743560998) translate(-151.26968020720702,-3759.873743560998)"><path fill="black" stroke="none" paint-order="stroke fill markers" d=" M 164.8823496238737 3753.0674088526644 L 151.26968020720702 3759.873743560998 L 164.8823496238737 3766.6800782693313 Z"/></g></g><g><g><rect fill="white" stroke="none" x="170.5996707788737" y="3784.376548510998" width="192.30920661988281" height="21.23576429"/></g><text fill="black" stroke="none" font-family="sans-serif" font-size="11pt" font-style="normal" font-weight="normal" text-decoration="normal" x="173.0499512738737" y="3799.078231480998" text-anchor="start" dominant-baseline="alphabetic">Start(my_A10_profile_name)</text></g><g><path fill="none" stroke="black" paint-order="fill stroke markers" d=" M 151.26968020720702 3805.6123128009976 L 216.610493407207 3805.6123128009976 L 216.610493407207 3826.848077090998 L 153.99221409054036 3826.848077090998" stroke-miterlimit="10" stroke-width="1.3612669416666667" stroke-dasharray=""/><g transform="translate(151.26968020720702,3826.848077090998) translate(-151.26968020720702,-3826.848077090998)"><path fill="black" stroke="none" paint-order="stroke fill markers" d=" M 164.8823496238737 3820.0417423826643 L 151.26968020720702 3826.848077090998 L 164.8823496238737 3833.6544117993312 Z"/></g></g><g><g><rect fill="white" stroke="none" x="248.45586343229164" y="3919.9587359009975" width="96.13887275757813" height="21.23576429"/></g><text fill="black" stroke="none" font-family="sans-serif" font-size="11pt" font-style="normal" font-weight="normal" text-decoration="normal" x="250.90614392729162" y="3934.6604188709975" text-anchor="start" dominant-baseline="alphabetic">Active(A-10C)</text></g><g><path fill="none" stroke="black" paint-order="fill stroke markers" d=" M 441.7809194149544 3941.1945001909976 L 153.99221409054036 3941.1945001909976" stroke-miterlimit="10" stroke-width="1.3612669416666667" stroke-dasharray=""/><g transform="translate(151.26968020720702,3941.1945001909976) translate(-151.26968020720702,-3941.1945001909976)"><path fill="black" stroke="none" paint-order="stroke fill markers" d=" M 164.8823496238737 3934.388165482664 L 151.26968020720702 3941.1945001909976 L 164.8823496238737 3948.000834899331 Z"/></g></g><g><g><rect fill="white" stroke="none" x="461.11090998662104" y="3965.6973051409977" width="30.97070564332031" height="21.23576429"/></g><text fill="black" stroke="none" font-family="sans-serif" font-size="11pt" font-style="normal" font-weight="normal" text-decoration="normal" x="463.56119048162105" y="3980.398988110998" text-anchor="start" dominant-baseline="alphabetic">wait</text></g><g><path fill="none" stroke="black" paint-order="fill stroke markers" d=" M 441.7809194149544 3986.9330694309974 L 507.1217326149544 3986.9330694309974 L 507.1217326149544 4008.1688337209976 L 444.5034532982877 4039.477973379331" stroke-miterlimit="10" stroke-width="1.3612669416666667" stroke-dasharray=""/><g transform="translate(441.7809194149544,4040.8392403209978) rotate(-26.56505117707799,0,0) translate(-441.7809194149544,-4040.8392403209978)"><path fill="black" stroke="none" paint-order="stroke fill markers" d=" M 455.39358883162106 4034.0329056126643 L 441.7809194149544 4040.8392403209978 L 455.39358883162106 4047.645575029331 Z"/><g transform="rotate(26.56505117707799,0,0)"/></g></g><g><g><rect fill="white" stroke="none" x="461.11090998662104" y="4065.3420452709984" width="235.51605476441406" height="21.23576429"/></g><text fill="black" stroke="none" font-family="sans-serif" font-size="11pt" font-style="normal" font-weight="normal" text-decoration="normal" x="463.56119048162105" y="4080.0437282409985" text-anchor="start" dominant-baseline="alphabetic">LoadProfile(my_A10_profile_name)</text></g><g><path fill="none" stroke="black" paint-order="fill stroke markers" d=" M 441.7809194149544 4086.577809560998 L 507.1217326149544 4086.577809560998 L 507.1217326149544 4107.813573850998 L 444.5034532982877 4107.813573850998" stroke-miterlimit="10" stroke-width="1.3612669416666667" stroke-dasharray=""/><g transform="translate(441.7809194149544,4107.813573850998) translate(-441.7809194149544,-4107.813573850998)"><path fill="black" stroke="none" paint-order="stroke fill markers" d=" M 455.39358883162106 4101.007239142665 L 441.7809194149544 4107.813573850998 L 455.39358883162106 4114.619908559332 Z"/></g></g><g><g><rect fill="white" stroke="none" x="195.4745397455729" y="4132.316378800999" width="210.26912178101563" height="21.23576429"/></g><text fill="black" stroke="none" font-family="sans-serif" font-size="11pt" font-style="normal" font-weight="normal" text-decoration="normal" x="197.9248202405729" y="4147.018061770999" text-anchor="start" dominant-baseline="alphabetic">Loaded(my_A10_profile_name)</text></g><g><path fill="none" stroke="black" paint-order="fill stroke markers" d=" M 441.7809194149544 4153.5521430909985 L 167.604883507207 4153.5521430909985" stroke-miterlimit="10" stroke-width="1.3612669416666667" stroke-dasharray=""/><path fill="none" stroke="black" paint-order="fill stroke markers" d=" M 159.437281857207 4145.384541440999 L 175.772485157207 4161.719744740998 M 159.437281857207 4161.719744740998 L 175.772485157207 4145.384541440999" stroke-miterlimit="10" stroke-width="1.3612669416666667"/></g><g><g><rect fill="white" stroke="none" x="170.5996707788737" y="4218.892956290998" width="222.46667732300781" height="21.23576429"/></g><text fill="black" stroke="none" font-family="sans-serif" font-size="11pt" font-style="normal" font-weight="normal" text-decoration="normal" x="173.0499512738737" y="4233.5946392609985" text-anchor="start" dominant-baseline="alphabetic">AutoStart(my_A10_profile_name)</text></g><g><path fill="none" stroke="black" paint-order="fill stroke markers" d=" M 151.26968020720702 4240.128720580999 L 216.610493407207 4240.128720580999 L 216.610493407207 4261.364484870998 L 153.99221409054036 4261.364484870998" stroke-miterlimit="10" stroke-width="1.3612669416666667" stroke-dasharray=""/><g transform="translate(151.26968020720702,4261.364484870998) translate(-151.26968020720702,-4261.364484870998)"><path fill="black" stroke="none" paint-order="stroke fill markers" d=" M 164.8823496238737 4254.558150162665 L 151.26968020720702 4261.364484870998 L 164.8823496238737 4268.170819579332 Z"/></g></g><g><g><rect fill="white" stroke="none" x="178.76727242887367" y="4285.867289820999" width="235.51605476441406" height="21.23576429"/></g><text fill="black" stroke="none" font-family="sans-serif" font-size="11pt" font-style="normal" font-weight="normal" text-decoration="normal" x="181.21755292387365" y="4300.568972790999" text-anchor="start" dominant-baseline="alphabetic">LoadProfile(my_A10_profile_name)</text></g><g><path fill="none" stroke="black" paint-order="fill stroke markers" d=" M 151.26968020720702 4307.1030541109985 L 439.05838553162107 4307.1030541109985" stroke-miterlimit="10" stroke-width="1.3612669416666667" stroke-dasharray=""/><g transform="translate(441.7809194149544,4307.1030541109985) translate(-441.7809194149544,-4307.1030541109985)"><path fill="black" stroke="none" paint-order="stroke fill markers" d=" M 428.1682499982877 4300.296719402665 L 441.7809194149544 4307.1030541109985 L 428.1682499982877 4313.909388819332 Z"/></g></g><path fill="white" stroke="black" paint-order="fill stroke markers" d=" M 364.72053372073566 4331.605859060999 L 504.1396221391732 4331.605859060999 L 518.8413051091732 4346.307542030999 L 518.8413051091732 4369.176826650999 L 364.72053372073566 4369.176826650999 L 364.72053372073566 4331.605859060999 M 504.1396221391732 4331.605859060999 L 504.1396221391732 4346.307542030999 L 518.8413051091732 4346.307542030999" stroke-miterlimit="10" stroke-width="1.3612669416666667" stroke-dasharray=""/><g><text fill="black" stroke="none" font-family="sans-serif" font-size="11pt" font-style="normal" font-weight="normal" text-decoration="normal" x="387.58981834073563" y="4354.475143680999" text-anchor="start" dominant-baseline="alphabetic">already matched</text></g><g><g><rect fill="white" stroke="none" x="191.3907389205729" y="4393.6796316009995" width="210.26912178101563" height="21.23576429"/></g><text fill="black" stroke="none" font-family="sans-serif" font-size="11pt" font-style="normal" font-weight="normal" text-decoration="normal" x="193.84101941557287" y="4408.381314571" text-anchor="start" dominant-baseline="alphabetic">Loaded(my_A10_profile_name)</text></g><g><path fill="none" stroke="black" paint-order="fill stroke markers" d=" M 441.7809194149544 4414.915395890999 L 153.99221409054036 4414.915395890999" stroke-miterlimit="10" stroke-width="1.3612669416666667" stroke-dasharray=""/><g transform="translate(151.26968020720702,4414.915395890999) translate(-151.26968020720702,-4414.915395890999)"><path fill="black" stroke="none" paint-order="stroke fill markers" d=" M 164.8823496238737 4408.109061182666 L 151.26968020720702 4414.915395890999 L 164.8823496238737 4421.721730599333 Z"/></g></g><g><g><rect fill="white" stroke="none" x="170.5996707788737" y="4439.418200840999" width="192.30920661988281" height="21.23576429"/></g><text fill="black" stroke="none" font-family="sans-serif" font-size="11pt" font-style="normal" font-weight="normal" text-decoration="normal" x="173.0499512738737" y="4454.119883810999" text-anchor="start" dominant-baseline="alphabetic">Start(my_A10_profile_name)</text></g><g><path fill="none" stroke="black" paint-order="fill stroke markers" d=" M 151.26968020720702 4460.6539651309995 L 216.610493407207 4460.6539651309995 L 216.610493407207 4481.889729420999 L 153.99221409054036 4481.889729420999" stroke-miterlimit="10" stroke-width="1.3612669416666667" stroke-dasharray=""/><g transform="translate(151.26968020720702,4481.889729420999) translate(-151.26968020720702,-4481.889729420999)"><path fill="black" stroke="none" paint-order="stroke fill markers" d=" M 164.8823496238737 4475.083394712666 L 151.26968020720702 4481.889729420999 L 164.8823496238737 4488.696064129333 Z"/></g></g><g><g/><path fill="none" stroke="black" paint-order="fill stroke markers" d=" M 94.09646865720703 128.55804997099997 L 527.0089067591731 128.55804997099997 L 527.0089067591731 460.1626769609999 L 94.09646865720703 460.1626769609999 L 94.09646865720703 128.55804997099997 Z" stroke-miterlimit="10" stroke-width="2.3336004714285714" stroke-dasharray=""/><path fill="white" stroke="black" paint-order="fill stroke markers" d=" M 94.09646865720703 128.55804997099997 L 94.09646865720703 148.16029393099998 L 283.89602564783206 148.16029393099998 L 293.69714762783207 138.35917195099998 L 293.69714762783207 128.55804997099997 L 94.09646865720703 128.55804997099997" stroke-miterlimit="10" stroke-width="2.3336004714285714" stroke-dasharray=""/><text fill="black" stroke="none" font-family="sans-serif" font-size="8.8pt" font-style="normal" font-weight="bold" text-decoration="normal" x="110.43167195720703" y="141.62621261099997" text-anchor="start" dominant-baseline="alphabetic">Helios starts second, case 1</text></g><g><g/><path fill="none" stroke="black" paint-order="fill stroke markers" d=" M 94.09646865720703 484.6654819109999 L 498.9541309649544 484.6654819109999 L 498.9541309649544 845.6734748409997 L 94.09646865720703 845.6734748409997 L 94.09646865720703 484.6654819109999 Z" stroke-miterlimit="10" stroke-width="2.3336004714285714" stroke-dasharray=""/><path fill="white" stroke="black" paint-order="fill stroke markers" d=" M 94.09646865720703 484.6654819109999 L 94.09646865720703 504.2677258709999 L 283.89602564783206 504.2677258709999 L 293.69714762783207 494.4666038909999 L 293.69714762783207 484.6654819109999 L 94.09646865720703 484.6654819109999" stroke-miterlimit="10" stroke-width="2.3336004714285714" stroke-dasharray=""/><text fill="black" stroke="none" font-family="sans-serif" font-size="8.8pt" font-style="normal" font-weight="bold" text-decoration="normal" x="110.43167195720703" y="497.73364455099994" text-anchor="start" dominant-baseline="alphabetic">Helios starts second, case 2</text></g><g><g/><path fill="none" stroke="black" paint-order="fill stroke markers" d=" M 16.33520329999999 870.1762797909997 L 498.9541309649544 870.1762797909997 L 498.9541309649544 1471.3117612309998 L 16.33520329999999 1471.3117612309998 L 16.33520329999999 870.1762797909997 Z" stroke-miterlimit="10" stroke-width="2.3336004714285714" stroke-dasharray=""/><path fill="white" stroke="black" paint-order="fill stroke markers" d=" M 16.33520329999999 870.1762797909997 L 16.33520329999999 889.7785237509997 L 206.134760290625 889.7785237509997 L 215.935882270625 879.9774017709997 L 215.935882270625 870.1762797909997 L 16.33520329999999 870.1762797909997" stroke-miterlimit="10" stroke-width="2.3336004714285714" stroke-dasharray=""/><text fill="black" stroke="none" font-family="sans-serif" font-size="8.8pt" font-style="normal" font-weight="bold" text-decoration="normal" x="32.67040659999999" y="883.2444424309997" text-anchor="start" dominant-baseline="alphabetic">Helios starts second, case 3</text></g><g><g/><path fill="none" stroke="black" paint-order="fill stroke markers" d=" M 94.09646865720703 1495.814566181 L 527.0089067591731 1495.814566181 L 527.0089067591731 2018.5410717809998 L 94.09646865720703 2018.5410717809998 L 94.09646865720703 1495.814566181 Z" stroke-miterlimit="10" stroke-width="2.3336004714285714" stroke-dasharray=""/><path fill="white" stroke="black" paint-order="fill stroke markers" d=" M 94.09646865720703 1495.814566181 L 94.09646865720703 1515.4168101409998 L 264.9893941781055 1515.4168101409998 L 274.7905161581055 1505.615688161 L 274.7905161581055 1495.814566181 L 94.09646865720703 1495.814566181" stroke-miterlimit="10" stroke-width="2.3336004714285714" stroke-dasharray=""/><text fill="black" stroke="none" font-family="sans-serif" font-size="8.8pt" font-style="normal" font-weight="bold" text-decoration="normal" x="110.43167195720703" y="1508.8827288209998" text-anchor="start" dominant-baseline="alphabetic">Helios starts first, case 4</text></g><g><g/><path fill="none" stroke="black" paint-order="fill stroke markers" d=" M 94.09646865720703 2043.043876731 L 498.9541309649544 2043.043876731 L 498.9541309649544 2503.6966097909994 L 94.09646865720703 2503.6966097909994 L 94.09646865720703 2043.043876731 Z" stroke-miterlimit="10" stroke-width="2.3336004714285714" stroke-dasharray=""/><path fill="white" stroke="black" paint-order="fill stroke markers" d=" M 94.09646865720703 2043.043876731 L 94.09646865720703 2062.646120691 L 264.9893941781055 2062.646120691 L 274.7905161581055 2052.844998711 L 274.7905161581055 2043.043876731 L 94.09646865720703 2043.043876731" stroke-miterlimit="10" stroke-width="2.3336004714285714" stroke-dasharray=""/><text fill="black" stroke="none" font-family="sans-serif" font-size="8.8pt" font-style="normal" font-weight="bold" text-decoration="normal" x="110.43167195720703" y="2056.112039371" text-anchor="start" dominant-baseline="alphabetic">Helios starts first, case 5</text></g><g><g/><path fill="none" stroke="black" paint-order="fill stroke markers" d=" M 94.09646865720703 2528.199414740999 L 543.8950761927669 2528.199414740999 L 543.8950761927669 3050.925920340999 L 94.09646865720703 3050.925920340999 L 94.09646865720703 2528.199414740999 Z" stroke-miterlimit="10" stroke-width="2.3336004714285714" stroke-dasharray=""/><path fill="white" stroke="black" paint-order="fill stroke markers" d=" M 94.09646865720703 2528.199414740999 L 94.09646865720703 2547.8016587009993 L 264.9893941781055 2547.8016587009993 L 274.7905161581055 2538.000536720999 L 274.7905161581055 2528.199414740999 L 94.09646865720703 2528.199414740999" stroke-miterlimit="10" stroke-width="2.3336004714285714" stroke-dasharray=""/><text fill="black" stroke="none" font-family="sans-serif" font-size="8.8pt" font-style="normal" font-weight="bold" text-decoration="normal" x="110.43167195720703" y="2541.2675773809992" text-anchor="start" dominant-baseline="alphabetic">Helios starts first, case 6</text></g><g><g/><path fill="none" stroke="black" paint-order="fill stroke markers" d=" M 94.09646865720703 3075.4287252909985 L 527.0089067591731 3075.4287252909985 L 527.0089067591731 3851.350882040998 L 94.09646865720703 3851.350882040998 L 94.09646865720703 3075.4287252909985 Z" stroke-miterlimit="10" stroke-width="2.3336004714285714" stroke-dasharray=""/><path fill="white" stroke="black" paint-order="fill stroke markers" d=" M 94.09646865720703 3075.4287252909985 L 94.09646865720703 3095.0309692509986 L 264.9893941781055 3095.0309692509986 L 274.7905161581055 3085.2298472709986 L 274.7905161581055 3075.4287252909985 L 94.09646865720703 3075.4287252909985" stroke-miterlimit="10" stroke-width="2.3336004714285714" stroke-dasharray=""/><text fill="black" stroke="none" font-family="sans-serif" font-size="8.8pt" font-style="normal" font-weight="bold" text-decoration="normal" x="110.43167195720703" y="3088.4968879309986" text-anchor="start" dominant-baseline="alphabetic">Helios starts first, case 7</text></g><g><g/><path fill="none" stroke="black" paint-order="fill stroke markers" d=" M 94.09646865720703 3875.8536869909976 L 702.3442859060351 3875.8536869909976 L 702.3442859060351 4506.392534370999 L 94.09646865720703 4506.392534370999 L 94.09646865720703 3875.8536869909976 Z" stroke-miterlimit="10" stroke-width="2.3336004714285714" stroke-dasharray=""/><path fill="white" stroke="black" paint-order="fill stroke markers" d=" M 94.09646865720703 3875.8536869909976 L 94.09646865720703 3895.4559309509978 L 283.89602564783206 3895.4559309509978 L 293.69714762783207 3885.6548089709977 L 293.69714762783207 3875.8536869909976 L 94.09646865720703 3875.8536869909976" stroke-miterlimit="10" stroke-width="2.3336004714285714" stroke-dasharray=""/><text fill="black" stroke="none" font-family="sans-serif" font-size="8.8pt" font-style="normal" font-weight="bold" text-decoration="normal" x="110.43167195720703" y="3888.9218496309977" text-anchor="start" dominant-baseline="alphabetic">Helios starts second, case 8</text></g></g><g/><g/></g></svg>