<svg version="1.1" xmlns="http://www.w3.org/2000/svg" xmlns:xlink="http://www.w3.org/1999/xlink" width="690" height="4294"><defs/><g><g/><g/><g/><g/><g/><g/><g/><g/><g/><g/><g/><g/><g/><g/><g/><g/><g/><g/><g/><g/><g/><g/><g/><g/><g/><g/><g/><g/><g/><g/><g/><g/><g/><g/><g/><g/><g/><g/><g/><g/><g/><g/><g/><g/><g/><g/><g/><g/><g/><g/><g/><g/><g/><g/><g/><g/><g/><g/><g/><g/><g/><g/><g/><g/><g><rect fill="white" stroke="none" x="0" y="0" width="690" height="4294"/></g><g><text fill="black" stroke="none" font-family="sans-serif" font-size="16.5pt" font-style="normal" font-weight="normal" text-decoration="normal" x="109.87137988744138" y="24.50280495" text-anchor="start" dominant-baseline="alphabetic">Helios Auto Start (https://sequencediagram.org/)</text></g><g/><g><path fill="none" stroke="black" paint-order="fill stroke markers" d=" M 196.47725314421874 95.887643371 L 196.47725314421874 4294.0348914709975" stroke-miterlimit="10" stroke-width="1.3612669416666667" stroke-dasharray="12.565541,5.445067766666667"/><path fill="none" stroke="black" paint-order="fill stroke markers" d=" M 452.75083671231766 95.887643371 L 452.75083671231766 4294.0348914709975" stroke-miterlimit="10" stroke-width="1.3612669416666667" stroke-dasharray="12.565541,5.445067766666667"/></g><g><path fill="none" stroke="none"/><g><path fill="white" stroke="black" paint-order="fill stroke markers" d=" M 158.3849204787578 51.782594461 L 234.5695858096797 51.782594461 L 234.5695858096797 95.887643371 L 158.3849204787578 95.887643371 L 158.3849204787578 51.782594461 Z" stroke-miterlimit="10" stroke-width="2.613632528" stroke-dasharray=""/></g><g><g/><text fill="black" stroke="none" font-family="sans-serif" font-size="11pt" font-style="normal" font-weight="normal" text-decoration="normal" x="176.1086160592578" y="79.55244007099999" text-anchor="start" dominant-baseline="alphabetic">Helios</text></g><path fill="none" stroke="none"/><g><path fill="white" stroke="black" paint-order="fill stroke markers" d=" M 413.84247163718874 51.782594461 L 491.6592017874466 51.782594461 L 491.6592017874466 95.887643371 L 413.84247163718874 95.887643371 L 413.84247163718874 51.782594461 Z" stroke-miterlimit="10" stroke-width="2.613632528" stroke-dasharray=""/></g><g><g/><text fill="black" stroke="none" font-family="sans-serif" font-size="11pt" font-style="normal" font-weight="normal" text-decoration="normal" x="431.56616721768876" y="79.55244007099999" text-anchor="start" dominant-baseline="alphabetic">Export</text></g></g><g><g><g><rect fill="white" stroke="none" x="472.0808272839843" y="172.663098881" width="138.52968086304688" height="21.23576429"/></g><text fill="black" stroke="none" font-family="sans-serif" font-size="11pt" font-style="normal" font-weight="normal" text-decoration="normal" x="474.53110777898434" y="187.36478185099998" text-anchor="start" dominant-baseline="alphabetic">EnterVehicle(A-10C)</text></g><g><path fill="none" stroke="black" paint-order="fill stroke markers" d=" M 452.75083671231766 193.898863171 L 518.0916499123176 193.898863171 L 518.0916499123176 215.13462746099998 L 455.473370595651 215.13462746099998" stroke-miterlimit="10" stroke-width="1.3612669416666667" stroke-dasharray=""/><g transform="translate(452.75083671231766,215.13462746099998) translate(-452.75083671231766,-215.13462746099998)"><path fill="black" stroke="none" paint-order="stroke fill markers" d=" M 466.36350612898434 208.32829275266664 L 452.75083671231766 215.13462746099998 L 466.36350612898434 221.94096216933332 Z"/></g></g><g><g><rect fill="white" stroke="none" x="256.99206446481116" y="239.637432411" width="143.41156257691406" height="21.23576429"/></g><text fill="black" stroke="none" font-family="sans-serif" font-size="11pt" font-style="normal" font-weight="normal" text-decoration="normal" x="259.4423449598112" y="254.33911538099997" text-anchor="start" dominant-baseline="alphabetic">ActiveVehicle(A-10C)</text></g><g><path fill="none" stroke="black" paint-order="fill stroke markers" d=" M 452.75083671231766 260.873196701 L 212.81245644421872 260.873196701" stroke-miterlimit="10" stroke-width="1.3612669416666667" stroke-dasharray=""/><path fill="none" stroke="black" paint-order="fill stroke markers" d=" M 204.64485479421873 252.705595051 L 220.98005809421872 269.040798351 M 204.64485479421873 269.040798351 L 220.98005809421872 252.705595051" stroke-miterlimit="10" stroke-width="1.3612669416666667"/></g><g><g><rect fill="white" stroke="none" x="472.0808272839843" y="285.37600165099997" width="180.92053474488281" height="21.23576429"/></g><text fill="black" stroke="none" font-family="sans-serif" font-size="11pt" font-style="normal" font-weight="normal" text-decoration="normal" x="474.53110777898434" y="300.07768462099995" text-anchor="start" dominant-baseline="alphabetic">LoadModule(Helios_A10C)</text></g><g><path fill="none" stroke="black" paint-order="fill stroke markers" d=" M 452.75083671231766 306.61176594099993 L 518.0916499123176 306.61176594099993 L 518.0916499123176 327.84753023099995 L 455.473370595651 327.84753023099995" stroke-miterlimit="10" stroke-width="1.3612669416666667" stroke-dasharray=""/><g transform="translate(452.75083671231766,327.84753023099995) translate(-452.75083671231766,-327.84753023099995)"><path fill="black" stroke="none" paint-order="stroke fill markers" d=" M 466.36350612898434 321.0411955226666 L 452.75083671231766 327.84753023099995 L 466.36350612898434 334.6538649393333 Z"/></g></g><g><g><rect fill="white" stroke="none" x="234.583327282194" y="352.35033518099993" width="188.22903694214844" height="21.23576429"/></g><text fill="black" stroke="none" font-family="sans-serif" font-size="11pt" font-style="normal" font-weight="normal" text-decoration="normal" x="237.033607777194" y="367.0520181509999" text-anchor="start" dominant-baseline="alphabetic">ActiveModule(Helios_A10C)</text></g><g><path fill="none" stroke="black" paint-order="fill stroke markers" d=" M 452.75083671231766 373.58609947099995 L 212.81245644421872 373.58609947099995" stroke-miterlimit="10" stroke-width="1.3612669416666667" stroke-dasharray=""/><path fill="none" stroke="black" paint-order="fill stroke markers" d=" M 204.64485479421873 365.41849782099996 L 220.98005809421872 381.75370112099995 M 204.64485479421873 381.75370112099995 L 220.98005809421872 365.41849782099996" stroke-miterlimit="10" stroke-width="1.3612669416666667"/></g><g><g><rect fill="white" stroke="none" x="215.80724371588542" y="398.088904421" width="191.48602546753906" height="21.23576429"/></g><text fill="black" stroke="none" font-family="sans-serif" font-size="11pt" font-style="normal" font-weight="normal" text-decoration="normal" x="218.2575242108854" y="412.790587391" text-anchor="start" dominant-baseline="alphabetic">Start(my_F18_profile_name)</text></g><g><path fill="none" stroke="black" paint-order="fill stroke markers" d=" M 196.47725314421874 419.32466871099996 L 261.8180663442187 419.32466871099996 L 261.8180663442187 440.560433001 L 199.19978702755208 440.560433001" stroke-miterlimit="10" stroke-width="1.3612669416666667" stroke-dasharray=""/><g transform="translate(196.47725314421874,440.560433001) translate(-196.47725314421874,-440.560433001)"><path fill="black" stroke="none" paint-order="stroke fill markers" d=" M 210.0899225608854 433.75409829266664 L 196.47725314421874 440.560433001 L 210.0899225608854 447.3667677093333 Z"/></g></g><g><g><rect fill="white" stroke="none" x="231.72000070035804" y="465.06323795099996" width="185.78808845582031" height="21.23576429"/></g><text fill="black" stroke="none" font-family="sans-serif" font-size="11pt" font-style="normal" font-weight="normal" text-decoration="normal" x="234.17028119535803" y="479.76492092099994" text-anchor="start" dominant-baseline="alphabetic">LoadDriver(FA-18C_hornet)</text></g><g><path fill="none" stroke="black" paint-order="fill stroke markers" d=" M 196.47725314421874 486.299002241 L 450.02830282898435 486.299002241" stroke-miterlimit="10" stroke-width="1.3612669416666667" stroke-dasharray=""/><g transform="translate(452.75083671231766,486.299002241) translate(-452.75083671231766,-486.299002241)"><path fill="black" stroke="none" paint-order="stroke fill markers" d=" M 439.138167295651 479.49266753266664 L 452.75083671231766 486.299002241 L 439.138167295651 493.1053369493333 Z"/></g></g><g><g><rect fill="white" stroke="none" x="252.90826363981117" y="510.80180719099997" width="143.41156257691406" height="21.23576429"/></g><text fill="black" stroke="none" font-family="sans-serif" font-size="11pt" font-style="normal" font-weight="normal" text-decoration="normal" x="255.35854413481115" y="525.503490161" text-anchor="start" dominant-baseline="alphabetic">ActiveVehicle(A-10C)</text></g><g><path fill="none" stroke="black" paint-order="fill stroke markers" d=" M 452.75083671231766 532.037571481 L 199.19978702755208 532.037571481" stroke-miterlimit="10" stroke-width="1.3612669416666667" stroke-dasharray=""/><g transform="translate(196.47725314421874,532.037571481) translate(-196.47725314421874,-532.037571481)"><path fill="black" stroke="none" paint-order="stroke fill markers" d=" M 210.0899225608854 525.2312367726666 L 196.47725314421874 532.037571481 L 210.0899225608854 538.8439061893333 Z"/></g></g><path fill="white" stroke="black" paint-order="fill stroke markers" d=" M 24.50280494999999 556.5403764309999 L 353.7500183684375 556.5403764309999 L 368.4517013384375 571.2420594009999 L 368.4517013384375 594.1113440209999 L 24.50280494999999 594.1113440209999 L 24.50280494999999 556.5403764309999 M 353.7500183684375 556.5403764309999 L 353.7500183684375 571.2420594009999 L 368.4517013384375 571.2420594009999" stroke-miterlimit="10" stroke-width="1.3612669416666667" stroke-dasharray=""/><g><text fill="black" stroke="none" font-family="sans-serif" font-size="11pt" font-style="normal" font-weight="normal" text-decoration="normal" x="47.372089569999986" y="579.409661051" text-anchor="start" dominant-baseline="alphabetic">Most recent A-10C profile uses Helios exports</text></g><g><g><rect fill="white" stroke="none" x="260.6534189742838" y="618.6141489709998" width="127.92125190796875" height="21.23576429"/></g><text fill="black" stroke="none" font-family="sans-serif" font-size="11pt" font-style="normal" font-weight="normal" text-decoration="normal" x="263.1036994692838" y="633.3158319409998" text-anchor="start" dominant-baseline="alphabetic">LoadDriver(A-10C)</text></g><g><path fill="none" stroke="black" paint-order="fill stroke markers" d=" M 196.47725314421874 639.8499132609999 L 450.02830282898435 639.8499132609999" stroke-miterlimit="10" stroke-width="1.3612669416666667" stroke-dasharray=""/><g transform="translate(452.75083671231766,639.8499132609999) translate(-452.75083671231766,-639.8499132609999)"><path fill="black" stroke="none" paint-order="stroke fill markers" d=" M 439.138167295651 633.0435785526665 L 452.75083671231766 639.8499132609999 L 439.138167295651 646.6562479693332 Z"/></g></g><g><g><rect fill="white" stroke="none" x="472.0808272839843" y="664.3527182109998" width="184.93628181519531" height="21.23576429"/></g><text fill="black" stroke="none" font-family="sans-serif" font-size="11pt" font-style="normal" font-weight="normal" text-decoration="normal" x="474.53110777898434" y="679.0544011809998" text-anchor="start" dominant-baseline="alphabetic">SwitchFromModuleToDriver</text></g><g><path fill="none" stroke="black" paint-order="fill stroke markers" d=" M 452.75083671231766 685.5884825009998 L 518.0916499123176 685.5884825009998 L 518.0916499123176 706.8242467909998 L 455.473370595651 706.8242467909998" stroke-miterlimit="10" stroke-width="1.3612669416666667" stroke-dasharray=""/><g transform="translate(452.75083671231766,706.8242467909998) translate(-452.75083671231766,-706.8242467909998)"><path fill="black" stroke="none" paint-order="stroke fill markers" d=" M 466.36350612898434 700.0179120826665 L 452.75083671231766 706.8242467909998 L 466.36350612898434 713.6305814993332 Z"/></g></g><g><g><rect fill="white" stroke="none" x="256.999167875651" y="731.3270517409998" width="135.22975410523438" height="21.23576429"/></g><text fill="black" stroke="none" font-family="sans-serif" font-size="11pt" font-style="normal" font-weight="normal" text-decoration="normal" x="259.449448370651" y="746.0287347109997" text-anchor="start" dominant-baseline="alphabetic">ActiveDriver(A-10C)</text></g><g><path fill="none" stroke="black" paint-order="fill stroke markers" d=" M 452.75083671231766 752.5628160309998 L 199.19978702755208 752.5628160309998" stroke-miterlimit="10" stroke-width="1.3612669416666667" stroke-dasharray=""/><g transform="translate(196.47725314421874,752.5628160309998) translate(-196.47725314421874,-752.5628160309998)"><path fill="black" stroke="none" paint-order="stroke fill markers" d=" M 210.0899225608854 745.7564813226664 L 196.47725314421874 752.5628160309998 L 210.0899225608854 759.3691507393331 Z"/></g></g><g><g><rect fill="white" stroke="none" x="215.80724371588542" y="777.0656209809997" width="222.46667732300781" height="21.23576429"/></g><text fill="black" stroke="none" font-family="sans-serif" font-size="11pt" font-style="normal" font-weight="normal" text-decoration="normal" x="218.2575242108854" y="791.7673039509997" text-anchor="start" dominant-baseline="alphabetic">AutoStart(my_A10_profile_name)</text></g><g><path fill="none" stroke="black" paint-order="fill stroke markers" d=" M 196.47725314421874 798.3013852709997 L 261.8180663442187 798.3013852709997 L 261.8180663442187 819.5371495609998 L 199.19978702755208 819.5371495609998" stroke-miterlimit="10" stroke-width="1.3612669416666667" stroke-dasharray=""/><g transform="translate(196.47725314421874,819.5371495609998) translate(-196.47725314421874,-819.5371495609998)"><path fill="black" stroke="none" paint-order="stroke fill markers" d=" M 210.0899225608854 812.7308148526664 L 196.47725314421874 819.5371495609998 L 210.0899225608854 826.3434842693331 Z"/></g></g><g><g><rect fill="white" stroke="none" x="472.0808272839843" y="912.6478083709997" width="138.52968086304688" height="21.23576429"/></g><text fill="black" stroke="none" font-family="sans-serif" font-size="11pt" font-style="normal" font-weight="normal" text-decoration="normal" x="474.53110777898434" y="927.3494913409996" text-anchor="start" dominant-baseline="alphabetic">EnterVehicle(A-10C)</text></g><g><path fill="none" stroke="black" paint-order="fill stroke markers" d=" M 452.75083671231766 933.8835726609997 L 518.0916499123176 933.8835726609997 L 518.0916499123176 955.1193369509997 L 455.473370595651 955.1193369509997" stroke-miterlimit="10" stroke-width="1.3612669416666667" stroke-dasharray=""/><g transform="translate(452.75083671231766,955.1193369509997) translate(-452.75083671231766,-955.1193369509997)"><path fill="black" stroke="none" paint-order="stroke fill markers" d=" M 466.36350612898434 948.3130022426664 L 452.75083671231766 955.1193369509997 L 466.36350612898434 961.925671659333 Z"/></g></g><g><g><rect fill="white" stroke="none" x="256.99206446481116" y="979.6221419009996" width="143.41156257691406" height="21.23576429"/></g><text fill="black" stroke="none" font-family="sans-serif" font-size="11pt" font-style="normal" font-weight="normal" text-decoration="normal" x="259.4423449598112" y="994.3238248709996" text-anchor="start" dominant-baseline="alphabetic">ActiveVehicle(A-10C)</text></g><g><path fill="none" stroke="black" paint-order="fill stroke markers" d=" M 452.75083671231766 1000.8579061909996 L 212.81245644421872 1000.8579061909996" stroke-miterlimit="10" stroke-width="1.3612669416666667" stroke-dasharray=""/><path fill="none" stroke="black" paint-order="fill stroke markers" d=" M 204.64485479421873 992.6903045409996 L 220.98005809421872 1009.0255078409997 M 204.64485479421873 1009.0255078409997 L 220.98005809421872 992.6903045409996" stroke-miterlimit="10" stroke-width="1.3612669416666667"/></g><g><g><rect fill="white" stroke="none" x="472.0808272839843" y="1025.3607111409997" width="180.92053474488281" height="21.23576429"/></g><text fill="black" stroke="none" font-family="sans-serif" font-size="11pt" font-style="normal" font-weight="normal" text-decoration="normal" x="474.53110777898434" y="1040.0623941109998" text-anchor="start" dominant-baseline="alphabetic">LoadModule(Helios_A10C)</text></g><g><path fill="none" stroke="black" paint-order="fill stroke markers" d=" M 452.75083671231766 1046.5964754309998 L 518.0916499123176 1046.5964754309998 L 518.0916499123176 1067.8322397209997 L 455.473370595651 1067.8322397209997" stroke-miterlimit="10" stroke-width="1.3612669416666667" stroke-dasharray=""/><g transform="translate(452.75083671231766,1067.8322397209997) translate(-452.75083671231766,-1067.8322397209997)"><path fill="black" stroke="none" paint-order="stroke fill markers" d=" M 466.36350612898434 1061.0259050126665 L 452.75083671231766 1067.8322397209997 L 466.36350612898434 1074.638574429333 Z"/></g></g><g><g><rect fill="white" stroke="none" x="234.583327282194" y="1092.3350446709999" width="188.22903694214844" height="21.23576429"/></g><text fill="black" stroke="none" font-family="sans-serif" font-size="11pt" font-style="normal" font-weight="normal" text-decoration="normal" x="237.033607777194" y="1107.036727641" text-anchor="start" dominant-baseline="alphabetic">ActiveModule(Helios_A10C)</text></g><g><path fill="none" stroke="black" paint-order="fill stroke markers" d=" M 452.75083671231766 1113.5708089609998 L 212.81245644421872 1113.5708089609998" stroke-miterlimit="10" stroke-width="1.3612669416666667" stroke-dasharray=""/><path fill="none" stroke="black" paint-order="fill stroke markers" d=" M 204.64485479421873 1105.4032073109997 L 220.98005809421872 1121.7384106109998 M 204.64485479421873 1121.7384106109998 L 220.98005809421872 1105.4032073109997" stroke-miterlimit="10" stroke-width="1.3612669416666667"/></g><g><g><rect fill="white" stroke="none" x="215.80724371588542" y="1138.0736139109997" width="145.85257209839844" height="21.23576429"/></g><text fill="black" stroke="none" font-family="sans-serif" font-size="11pt" font-style="normal" font-weight="normal" text-decoration="normal" x="218.2575242108854" y="1152.7752968809998" text-anchor="start" dominant-baseline="alphabetic">Start(CaptZeenF18C)</text></g><g><path fill="none" stroke="black" paint-order="fill stroke markers" d=" M 196.47725314421874 1159.3093782009998 L 261.8180663442187 1159.3093782009998 L 261.8180663442187 1180.5451424909998 L 199.19978702755208 1180.5451424909998" stroke-miterlimit="10" stroke-width="1.3612669416666667" stroke-dasharray=""/><g transform="translate(196.47725314421874,1180.5451424909998) translate(-196.47725314421874,-1180.5451424909998)"><path fill="black" stroke="none" paint-order="stroke fill markers" d=" M 210.0899225608854 1173.7388077826665 L 196.47725314421874 1180.5451424909998 L 210.0899225608854 1187.351477199333 Z"/></g></g><g><g><rect fill="white" stroke="none" x="276.9347223800455" y="1205.047947441" width="95.35864509644531" height="21.23576429"/></g><text fill="black" stroke="none" font-family="sans-serif" font-size="11pt" font-style="normal" font-weight="normal" text-decoration="normal" x="279.38500287504553" y="1219.749630411" text-anchor="start" dominant-baseline="alphabetic">LoadModule()</text></g><g><path fill="none" stroke="black" paint-order="fill stroke markers" d=" M 196.47725314421874 1226.2837117309998 L 450.02830282898435 1226.2837117309998" stroke-miterlimit="10" stroke-width="1.3612669416666667" stroke-dasharray=""/><g transform="translate(452.75083671231766,1226.2837117309998) translate(-452.75083671231766,-1226.2837117309998)"><path fill="black" stroke="none" paint-order="stroke fill markers" d=" M 439.138167295651 1219.4773770226666 L 452.75083671231766 1226.2837117309998 L 439.138167295651 1233.090046439333 Z"/></g></g><g><g><rect fill="white" stroke="none" x="252.90826363981117" y="1250.786516681" width="143.41156257691406" height="21.23576429"/></g><text fill="black" stroke="none" font-family="sans-serif" font-size="11pt" font-style="normal" font-weight="normal" text-decoration="normal" x="255.35854413481115" y="1265.488199651" text-anchor="start" dominant-baseline="alphabetic">ActiveVehicle(A-10C)</text></g><g><path fill="none" stroke="black" paint-order="fill stroke markers" d=" M 452.75083671231766 1272.0222809709999 L 199.19978702755208 1272.0222809709999" stroke-miterlimit="10" stroke-width="1.3612669416666667" stroke-dasharray=""/><g transform="translate(196.47725314421874,1272.0222809709999) translate(-196.47725314421874,-1272.0222809709999)"><path fill="black" stroke="none" paint-order="stroke fill markers" d=" M 210.0899225608854 1265.2159462626666 L 196.47725314421874 1272.0222809709999 L 210.0899225608854 1278.828615679333 Z"/></g></g><path fill="white" stroke="black" paint-order="fill stroke markers" d=" M 24.50280494999999 1296.5250859209998 L 353.7500183684375 1296.5250859209998 L 368.4517013384375 1311.226768891 L 368.4517013384375 1334.0960535109998 L 24.50280494999999 1334.0960535109998 L 24.50280494999999 1296.5250859209998 M 353.7500183684375 1296.5250859209998 L 353.7500183684375 1311.226768891 L 368.4517013384375 1311.226768891" stroke-miterlimit="10" stroke-width="1.3612669416666667" stroke-dasharray=""/><g><text fill="black" stroke="none" font-family="sans-serif" font-size="11pt" font-style="normal" font-weight="normal" text-decoration="normal" x="47.372089569999986" y="1319.394370541" text-anchor="start" dominant-baseline="alphabetic">Most recent A-10C profile uses Helios exports</text></g><g><g><rect fill="white" stroke="none" x="260.6534189742838" y="1358.598858461" width="127.92125190796875" height="21.23576429"/></g><text fill="black" stroke="none" font-family="sans-serif" font-size="11pt" font-style="normal" font-weight="normal" text-decoration="normal" x="263.1036994692838" y="1373.300541431" text-anchor="start" dominant-baseline="alphabetic">LoadDriver(A-10C)</text></g><g><path fill="none" stroke="black" paint-order="fill stroke markers" d=" M 196.47725314421874 1379.8346227509999 L 450.02830282898435 1379.8346227509999" stroke-miterlimit="10" stroke-width="1.3612669416666667" stroke-dasharray=""/><g transform="translate(452.75083671231766,1379.8346227509999) translate(-452.75083671231766,-1379.8346227509999)"><path fill="black" stroke="none" paint-order="stroke fill markers" d=" M 439.138167295651 1373.0282880426666 L 452.75083671231766 1379.8346227509999 L 439.138167295651 1386.640957459333 Z"/></g></g><g><g><rect fill="white" stroke="none" x="472.0808272839843" y="1404.3374277009998" width="184.93628181519531" height="21.23576429"/></g><text fill="black" stroke="none" font-family="sans-serif" font-size="11pt" font-style="normal" font-weight="normal" text-decoration="normal" x="474.53110777898434" y="1419.039110671" text-anchor="start" dominant-baseline="alphabetic">SwitchFromModuleToDriver</text></g><g><path fill="none" stroke="black" paint-order="fill stroke markers" d=" M 452.75083671231766 1425.573191991 L 518.0916499123176 1425.573191991 L 518.0916499123176 1446.8089562809998 L 455.473370595651 1446.8089562809998" stroke-miterlimit="10" stroke-width="1.3612669416666667" stroke-dasharray=""/><g transform="translate(452.75083671231766,1446.8089562809998) translate(-452.75083671231766,-1446.8089562809998)"><path fill="black" stroke="none" paint-order="stroke fill markers" d=" M 466.36350612898434 1440.0026215726666 L 452.75083671231766 1446.8089562809998 L 466.36350612898434 1453.615290989333 Z"/></g></g><g><g><rect fill="white" stroke="none" x="256.999167875651" y="1471.311761231" width="135.22975410523438" height="21.23576429"/></g><text fill="black" stroke="none" font-family="sans-serif" font-size="11pt" font-style="normal" font-weight="normal" text-decoration="normal" x="259.449448370651" y="1486.013444201" text-anchor="start" dominant-baseline="alphabetic">ActiveDriver(A-10C)</text></g><g><path fill="none" stroke="black" paint-order="fill stroke markers" d=" M 452.75083671231766 1492.547525521 L 199.19978702755208 1492.547525521" stroke-miterlimit="10" stroke-width="1.3612669416666667" stroke-dasharray=""/><g transform="translate(196.47725314421874,1492.547525521) translate(-196.47725314421874,-1492.547525521)"><path fill="black" stroke="none" paint-order="stroke fill markers" d=" M 210.0899225608854 1485.7411908126667 L 196.47725314421874 1492.547525521 L 210.0899225608854 1499.3538602293331 Z"/></g></g><g><g><rect fill="white" stroke="none" x="215.80724371588542" y="1517.0503304709998" width="222.46667732300781" height="21.23576429"/></g><text fill="black" stroke="none" font-family="sans-serif" font-size="11pt" font-style="normal" font-weight="normal" text-decoration="normal" x="218.2575242108854" y="1531.752013441" text-anchor="start" dominant-baseline="alphabetic">AutoStart(my_A10_profile_name)</text></g><g><path fill="none" stroke="black" paint-order="fill stroke markers" d=" M 196.47725314421874 1538.286094761 L 261.8180663442187 1538.286094761 L 261.8180663442187 1559.5218590509999 L 199.19978702755208 1559.5218590509999" stroke-miterlimit="10" stroke-width="1.3612669416666667" stroke-dasharray=""/><g transform="translate(196.47725314421874,1559.5218590509999) translate(-196.47725314421874,-1559.5218590509999)"><path fill="black" stroke="none" paint-order="stroke fill markers" d=" M 210.0899225608854 1552.7155243426666 L 196.47725314421874 1559.5218590509999 L 210.0899225608854 1566.328193759333 Z"/></g></g><g><g><rect fill="white" stroke="none" x="472.0808272839843" y="1652.6325178609998" width="138.52968086304688" height="21.23576429"/></g><text fill="black" stroke="none" font-family="sans-serif" font-size="11pt" font-style="normal" font-weight="normal" text-decoration="normal" x="474.53110777898434" y="1667.3342008309999" text-anchor="start" dominant-baseline="alphabetic">EnterVehicle(A-10C)</text></g><g><path fill="none" stroke="black" paint-order="fill stroke markers" d=" M 452.75083671231766 1673.868282151 L 518.0916499123176 1673.868282151 L 518.0916499123176 1695.1040464409998 L 455.473370595651 1695.1040464409998" stroke-miterlimit="10" stroke-width="1.3612669416666667" stroke-dasharray=""/><g transform="translate(452.75083671231766,1695.1040464409998) translate(-452.75083671231766,-1695.1040464409998)"><path fill="black" stroke="none" paint-order="stroke fill markers" d=" M 466.36350612898434 1688.2977117326666 L 452.75083671231766 1695.1040464409998 L 466.36350612898434 1701.910381149333 Z"/></g></g><g><g><rect fill="white" stroke="none" x="256.99206446481116" y="1719.606851391" width="143.41156257691406" height="21.23576429"/></g><text fill="black" stroke="none" font-family="sans-serif" font-size="11pt" font-style="normal" font-weight="normal" text-decoration="normal" x="259.4423449598112" y="1734.308534361" text-anchor="start" dominant-baseline="alphabetic">ActiveVehicle(A-10C)</text></g><g><path fill="none" stroke="black" paint-order="fill stroke markers" d=" M 452.75083671231766 1740.8426156809999 L 212.81245644421872 1740.8426156809999" stroke-miterlimit="10" stroke-width="1.3612669416666667" stroke-dasharray=""/><path fill="none" stroke="black" paint-order="fill stroke markers" d=" M 204.64485479421873 1732.6750140309998 L 220.98005809421872 1749.010217331 M 204.64485479421873 1749.010217331 L 220.98005809421872 1732.6750140309998" stroke-miterlimit="10" stroke-width="1.3612669416666667"/></g><g><g><rect fill="white" stroke="none" x="472.0808272839843" y="1765.3454206309998" width="180.92053474488281" height="21.23576429"/></g><text fill="black" stroke="none" font-family="sans-serif" font-size="11pt" font-style="normal" font-weight="normal" text-decoration="normal" x="474.53110777898434" y="1780.047103601" text-anchor="start" dominant-baseline="alphabetic">LoadModule(Helios_A10C)</text></g><g><path fill="none" stroke="black" paint-order="fill stroke markers" d=" M 452.75083671231766 1786.581184921 L 518.0916499123176 1786.581184921 L 518.0916499123176 1807.8169492109998 L 455.473370595651 1807.8169492109998" stroke-miterlimit="10" stroke-width="1.3612669416666667" stroke-dasharray=""/><g transform="translate(452.75083671231766,1807.8169492109998) translate(-452.75083671231766,-1807.8169492109998)"><path fill="black" stroke="none" paint-order="stroke fill markers" d=" M 466.36350612898434 1801.0106145026666 L 452.75083671231766 1807.8169492109998 L 466.36350612898434 1814.623283919333 Z"/></g></g><g><g><rect fill="white" stroke="none" x="234.583327282194" y="1832.319754161" width="188.22903694214844" height="21.23576429"/></g><text fill="black" stroke="none" font-family="sans-serif" font-size="11pt" font-style="normal" font-weight="normal" text-decoration="normal" x="237.033607777194" y="1847.021437131" text-anchor="start" dominant-baseline="alphabetic">ActiveModule(Helios_A10C)</text></g><g><path fill="none" stroke="black" paint-order="fill stroke markers" d=" M 452.75083671231766 1853.555518451 L 212.81245644421872 1853.555518451" stroke-miterlimit="10" stroke-width="1.3612669416666667" stroke-dasharray=""/><path fill="none" stroke="black" paint-order="fill stroke markers" d=" M 204.64485479421873 1845.3879168009998 L 220.98005809421872 1861.723120101 M 204.64485479421873 1861.723120101 L 220.98005809421872 1845.3879168009998" stroke-miterlimit="10" stroke-width="1.3612669416666667"/></g><g><g><rect fill="white" stroke="none" x="215.80724371588542" y="1878.0583234009998" width="191.48602546753906" height="21.23576429"/></g><text fill="black" stroke="none" font-family="sans-serif" font-size="11pt" font-style="normal" font-weight="normal" text-decoration="normal" x="218.2575242108854" y="1892.760006371" text-anchor="start" dominant-baseline="alphabetic">Start(my_F18_profile_name)</text></g><g><path fill="none" stroke="black" paint-order="fill stroke markers" d=" M 196.47725314421874 1899.294087691 L 261.8180663442187 1899.294087691 L 261.8180663442187 1920.5298519809999 L 199.19978702755208 1920.5298519809999" stroke-miterlimit="10" stroke-width="1.3612669416666667" stroke-dasharray=""/><g transform="translate(196.47725314421874,1920.5298519809999) translate(-196.47725314421874,-1920.5298519809999)"><path fill="black" stroke="none" paint-order="stroke fill markers" d=" M 210.0899225608854 1913.7235172726666 L 196.47725314421874 1920.5298519809999 L 210.0899225608854 1927.336186689333 Z"/></g></g><g><g><rect fill="white" stroke="none" x="231.72000070035804" y="1945.032656931" width="185.78808845582031" height="21.23576429"/></g><text fill="black" stroke="none" font-family="sans-serif" font-size="11pt" font-style="normal" font-weight="normal" text-decoration="normal" x="234.17028119535803" y="1959.734339901" text-anchor="start" dominant-baseline="alphabetic">LoadDriver(FA-18C_hornet)</text></g><g><path fill="none" stroke="black" paint-order="fill stroke markers" d=" M 196.47725314421874 1966.268421221 L 450.02830282898435 1966.268421221" stroke-miterlimit="10" stroke-width="1.3612669416666667" stroke-dasharray=""/><g transform="translate(452.75083671231766,1966.268421221) translate(-452.75083671231766,-1966.268421221)"><path fill="black" stroke="none" paint-order="stroke fill markers" d=" M 439.138167295651 1959.4620865126667 L 452.75083671231766 1966.268421221 L 439.138167295651 1973.0747559293332 Z"/></g></g><g><g><rect fill="white" stroke="none" x="252.90826363981117" y="1990.771226171" width="143.41156257691406" height="21.23576429"/></g><text fill="black" stroke="none" font-family="sans-serif" font-size="11pt" font-style="normal" font-weight="normal" text-decoration="normal" x="255.35854413481115" y="2005.4729091410002" text-anchor="start" dominant-baseline="alphabetic">ActiveVehicle(A-10C)</text></g><g><path fill="none" stroke="black" paint-order="fill stroke markers" d=" M 452.75083671231766 2012.006990461 L 199.19978702755208 2012.006990461" stroke-miterlimit="10" stroke-width="1.3612669416666667" stroke-dasharray=""/><g transform="translate(196.47725314421874,2012.006990461) translate(-196.47725314421874,-2012.006990461)"><path fill="black" stroke="none" paint-order="stroke fill markers" d=" M 210.0899225608854 2005.2006557526668 L 196.47725314421874 2012.006990461 L 210.0899225608854 2018.8133251693332 Z"/></g></g><path fill="white" stroke="black" paint-order="fill stroke markers" d=" M 24.90722389531249 2036.509795411 L 353.345599423125 2036.509795411 L 368.047282393125 2051.211478381 L 368.047282393125 2074.080763001 L 24.90722389531249 2074.080763001 L 24.90722389531249 2036.509795411 M 353.345599423125 2036.509795411 L 353.345599423125 2051.211478381 L 368.047282393125 2051.211478381" stroke-miterlimit="10" stroke-width="1.3612669416666667" stroke-dasharray=""/><g><text fill="black" stroke="none" font-family="sans-serif" font-size="11pt" font-style="normal" font-weight="normal" text-decoration="normal" x="47.776508515312486" y="2059.379080031" text-anchor="start" dominant-baseline="alphabetic">Most recent A-10C profile is Capt Zeen profile</text></g><g><g><rect fill="white" stroke="none" x="215.80724371588542" y="2098.583567951" width="176.8332239538672" height="21.23576429"/></g><text fill="black" stroke="none" font-family="sans-serif" font-size="11pt" font-style="normal" font-weight="normal" text-decoration="normal" x="218.2575242108854" y="2113.285250921" text-anchor="start" dominant-baseline="alphabetic">AutoStart(CaptZeenA10C)</text></g><g><path fill="none" stroke="black" paint-order="fill stroke markers" d=" M 196.47725314421874 2119.8193322409998 L 261.8180663442187 2119.8193322409998 L 261.8180663442187 2141.055096531 L 199.19978702755208 2141.055096531" stroke-miterlimit="10" stroke-width="1.3612669416666667" stroke-dasharray=""/><g transform="translate(196.47725314421874,2141.055096531) translate(-196.47725314421874,-2141.055096531)"><path fill="black" stroke="none" paint-order="stroke fill markers" d=" M 210.0899225608854 2134.2487618226664 L 196.47725314421874 2141.055096531 L 210.0899225608854 2147.8614312393333 Z"/></g></g><g><g><rect fill="white" stroke="none" x="472.0808272839843" y="2234.165755341" width="138.52968086304688" height="21.23576429"/></g><text fill="black" stroke="none" font-family="sans-serif" font-size="11pt" font-style="normal" font-weight="normal" text-decoration="normal" x="474.53110777898434" y="2248.867438311" text-anchor="start" dominant-baseline="alphabetic">EnterVehicle(A-10C)</text></g><g><path fill="none" stroke="black" paint-order="fill stroke markers" d=" M 452.75083671231766 2255.4015196309997 L 518.0916499123176 2255.4015196309997 L 518.0916499123176 2276.637283921 L 455.473370595651 2276.637283921" stroke-miterlimit="10" stroke-width="1.3612669416666667" stroke-dasharray=""/><g transform="translate(452.75083671231766,2276.637283921) translate(-452.75083671231766,-2276.637283921)"><path fill="black" stroke="none" paint-order="stroke fill markers" d=" M 466.36350612898434 2269.8309492126664 L 452.75083671231766 2276.637283921 L 466.36350612898434 2283.4436186293333 Z"/></g></g><g><g><rect fill="white" stroke="none" x="256.99206446481116" y="2301.1400888709995" width="143.41156257691406" height="21.23576429"/></g><text fill="black" stroke="none" font-family="sans-serif" font-size="11pt" font-style="normal" font-weight="normal" text-decoration="normal" x="259.4423449598112" y="2315.8417718409996" text-anchor="start" dominant-baseline="alphabetic">ActiveVehicle(A-10C)</text></g><g><path fill="none" stroke="black" paint-order="fill stroke markers" d=" M 452.75083671231766 2322.3758531609997 L 212.81245644421872 2322.3758531609997" stroke-miterlimit="10" stroke-width="1.3612669416666667" stroke-dasharray=""/><path fill="none" stroke="black" paint-order="fill stroke markers" d=" M 204.64485479421873 2314.2082515109996 L 220.98005809421872 2330.5434548109997 M 204.64485479421873 2330.5434548109997 L 220.98005809421872 2314.2082515109996" stroke-miterlimit="10" stroke-width="1.3612669416666667"/></g><g><g><rect fill="white" stroke="none" x="472.0808272839843" y="2346.878658111" width="180.92053474488281" height="21.23576429"/></g><text fill="black" stroke="none" font-family="sans-serif" font-size="11pt" font-style="normal" font-weight="normal" text-decoration="normal" x="474.53110777898434" y="2361.580341081" text-anchor="start" dominant-baseline="alphabetic">LoadModule(Helios_A10C)</text></g><g><path fill="none" stroke="black" paint-order="fill stroke markers" d=" M 452.75083671231766 2368.1144224009995 L 518.0916499123176 2368.1144224009995 L 518.0916499123176 2389.3501866909996 L 455.473370595651 2389.3501866909996" stroke-miterlimit="10" stroke-width="1.3612669416666667" stroke-dasharray=""/><g transform="translate(452.75083671231766,2389.3501866909996) translate(-452.75083671231766,-2389.3501866909996)"><path fill="black" stroke="none" paint-order="stroke fill markers" d=" M 466.36350612898434 2382.543851982666 L 452.75083671231766 2389.3501866909996 L 466.36350612898434 2396.156521399333 Z"/></g></g><g><g><rect fill="white" stroke="none" x="234.583327282194" y="2413.8529916409993" width="188.22903694214844" height="21.23576429"/></g><text fill="black" stroke="none" font-family="sans-serif" font-size="11pt" font-style="normal" font-weight="normal" text-decoration="normal" x="237.033607777194" y="2428.5546746109994" text-anchor="start" dominant-baseline="alphabetic">ActiveModule(Helios_A10C)</text></g><g><path fill="none" stroke="black" paint-order="fill stroke markers" d=" M 452.75083671231766 2435.0887559309995 L 212.81245644421872 2435.0887559309995" stroke-miterlimit="10" stroke-width="1.3612669416666667" stroke-dasharray=""/><path fill="none" stroke="black" paint-order="fill stroke markers" d=" M 204.64485479421873 2426.9211542809994 L 220.98005809421872 2443.2563575809995 M 204.64485479421873 2443.2563575809995 L 220.98005809421872 2426.9211542809994" stroke-miterlimit="10" stroke-width="1.3612669416666667"/></g><g><g><rect fill="white" stroke="none" x="215.80724371588542" y="2459.5915608809996" width="145.85257209839844" height="21.23576429"/></g><text fill="black" stroke="none" font-family="sans-serif" font-size="11pt" font-style="normal" font-weight="normal" text-decoration="normal" x="218.2575242108854" y="2474.2932438509997" text-anchor="start" dominant-baseline="alphabetic">Start(CaptZeenF18C)</text></g><g><path fill="none" stroke="black" paint-order="fill stroke markers" d=" M 196.47725314421874 2480.8273251709993 L 261.8180663442187 2480.8273251709993 L 261.8180663442187 2502.0630894609994 L 199.19978702755208 2502.0630894609994" stroke-miterlimit="10" stroke-width="1.3612669416666667" stroke-dasharray=""/><g transform="translate(196.47725314421874,2502.0630894609994) translate(-196.47725314421874,-2502.0630894609994)"><path fill="black" stroke="none" paint-order="stroke fill markers" d=" M 210.0899225608854 2495.256754752666 L 196.47725314421874 2502.0630894609994 L 210.0899225608854 2508.869424169333 Z"/></g></g><g><g><rect fill="white" stroke="none" x="276.9347223800455" y="2526.565894410999" width="95.35864509644531" height="21.23576429"/></g><text fill="black" stroke="none" font-family="sans-serif" font-size="11pt" font-style="normal" font-weight="normal" text-decoration="normal" x="279.38500287504553" y="2541.2675773809992" text-anchor="start" dominant-baseline="alphabetic">LoadModule()</text></g><g><path fill="none" stroke="black" paint-order="fill stroke markers" d=" M 196.47725314421874 2547.8016587009993 L 450.02830282898435 2547.8016587009993" stroke-miterlimit="10" stroke-width="1.3612669416666667" stroke-dasharray=""/><g transform="translate(452.75083671231766,2547.8016587009993) translate(-452.75083671231766,-2547.8016587009993)"><path fill="black" stroke="none" paint-order="stroke fill markers" d=" M 439.138167295651 2540.995323992666 L 452.75083671231766 2547.8016587009993 L 439.138167295651 2554.6079934093327 Z"/></g></g><g><g><rect fill="white" stroke="none" x="252.90826363981117" y="2572.304463650999" width="143.41156257691406" height="21.23576429"/></g><text fill="black" stroke="none" font-family="sans-serif" font-size="11pt" font-style="normal" font-weight="normal" text-decoration="normal" x="255.35854413481115" y="2587.006146620999" text-anchor="start" dominant-baseline="alphabetic">ActiveVehicle(A-10C)</text></g><g><path fill="none" stroke="black" paint-order="fill stroke markers" d=" M 452.75083671231766 2593.540227940999 L 199.19978702755208 2593.540227940999" stroke-miterlimit="10" stroke-width="1.3612669416666667" stroke-dasharray=""/><g transform="translate(196.47725314421874,2593.540227940999) translate(-196.47725314421874,-2593.540227940999)"><path fill="black" stroke="none" paint-order="stroke fill markers" d=" M 210.0899225608854 2586.7338932326657 L 196.47725314421874 2593.540227940999 L 210.0899225608854 2600.3465626493326 Z"/></g></g><path fill="white" stroke="black" paint-order="fill stroke markers" d=" M 24.90722389531249 2618.0430328909993 L 353.345599423125 2618.0430328909993 L 368.047282393125 2632.7447158609993 L 368.047282393125 2655.614000480999 L 24.90722389531249 2655.614000480999 L 24.90722389531249 2618.0430328909993 M 353.345599423125 2618.0430328909993 L 353.345599423125 2632.7447158609993 L 368.047282393125 2632.7447158609993" stroke-miterlimit="10" stroke-width="1.3612669416666667" stroke-dasharray=""/><g><text fill="black" stroke="none" font-family="sans-serif" font-size="11pt" font-style="normal" font-weight="normal" text-decoration="normal" x="47.776508515312486" y="2640.9123175109994" text-anchor="start" dominant-baseline="alphabetic">Most recent A-10C profile is Capt Zeen profile</text></g><g><g><rect fill="white" stroke="none" x="215.80724371588542" y="2680.116805430999" width="176.8332239538672" height="21.23576429"/></g><text fill="black" stroke="none" font-family="sans-serif" font-size="11pt" font-style="normal" font-weight="normal" text-decoration="normal" x="218.2575242108854" y="2694.8184884009993" text-anchor="start" dominant-baseline="alphabetic">AutoStart(CaptZeenA10C)</text></g><g><path fill="none" stroke="black" paint-order="fill stroke markers" d=" M 196.47725314421874 2701.352569720999 L 261.8180663442187 2701.352569720999 L 261.8180663442187 2722.588334010999 L 199.19978702755208 2722.588334010999" stroke-miterlimit="10" stroke-width="1.3612669416666667" stroke-dasharray=""/><g transform="translate(196.47725314421874,2722.588334010999) translate(-196.47725314421874,-2722.588334010999)"><path fill="black" stroke="none" paint-order="stroke fill markers" d=" M 210.0899225608854 2715.7819993026656 L 196.47725314421874 2722.588334010999 L 210.0899225608854 2729.3946687193325 Z"/></g></g><g><g><rect fill="white" stroke="none" x="472.0808272839843" y="2815.698992820999" width="138.52968086304688" height="21.23576429"/></g><text fill="black" stroke="none" font-family="sans-serif" font-size="11pt" font-style="normal" font-weight="normal" text-decoration="normal" x="474.53110777898434" y="2830.4006757909992" text-anchor="start" dominant-baseline="alphabetic">EnterVehicle(A-10C)</text></g><g><path fill="none" stroke="black" paint-order="fill stroke markers" d=" M 452.75083671231766 2836.934757110999 L 518.0916499123176 2836.934757110999 L 518.0916499123176 2858.170521400999 L 455.473370595651 2858.170521400999" stroke-miterlimit="10" stroke-width="1.3612669416666667" stroke-dasharray=""/><g transform="translate(452.75083671231766,2858.170521400999) translate(-452.75083671231766,-2858.170521400999)"><path fill="black" stroke="none" paint-order="stroke fill markers" d=" M 466.36350612898434 2851.3641866926655 L 452.75083671231766 2858.170521400999 L 466.36350612898434 2864.9768561093324 Z"/></g></g><g><g><rect fill="white" stroke="none" x="256.99206446481116" y="2882.6733263509987" width="143.41156257691406" height="21.23576429"/></g><text fill="black" stroke="none" font-family="sans-serif" font-size="11pt" font-style="normal" font-weight="normal" text-decoration="normal" x="259.4423449598112" y="2897.3750093209987" text-anchor="start" dominant-baseline="alphabetic">ActiveVehicle(A-10C)</text></g><g><path fill="none" stroke="black" paint-order="fill stroke markers" d=" M 452.75083671231766 2903.909090640999 L 212.81245644421872 2903.909090640999" stroke-miterlimit="10" stroke-width="1.3612669416666667" stroke-dasharray=""/><path fill="none" stroke="black" paint-order="fill stroke markers" d=" M 204.64485479421873 2895.7414889909987 L 220.98005809421872 2912.076692290999 M 204.64485479421873 2912.076692290999 L 220.98005809421872 2895.7414889909987" stroke-miterlimit="10" stroke-width="1.3612669416666667"/></g><g><g><rect fill="white" stroke="none" x="472.0808272839843" y="2928.411895590999" width="180.92053474488281" height="21.23576429"/></g><text fill="black" stroke="none" font-family="sans-serif" font-size="11pt" font-style="normal" font-weight="normal" text-decoration="normal" x="474.53110777898434" y="2943.113578560999" text-anchor="start" dominant-baseline="alphabetic">LoadModule(Helios_A10C)</text></g><g><path fill="none" stroke="black" paint-order="fill stroke markers" d=" M 452.75083671231766 2949.6476598809986 L 518.0916499123176 2949.6476598809986 L 518.0916499123176 2970.8834241709988 L 455.473370595651 2970.8834241709988" stroke-miterlimit="10" stroke-width="1.3612669416666667" stroke-dasharray=""/><g transform="translate(452.75083671231766,2970.8834241709988) translate(-452.75083671231766,-2970.8834241709988)"><path fill="black" stroke="none" paint-order="stroke fill markers" d=" M 466.36350612898434 2964.0770894626653 L 452.75083671231766 2970.8834241709988 L 466.36350612898434 2977.689758879332 Z"/></g></g><g><g><rect fill="white" stroke="none" x="234.583327282194" y="2995.3862291209985" width="188.22903694214844" height="21.23576429"/></g><text fill="black" stroke="none" font-family="sans-serif" font-size="11pt" font-style="normal" font-weight="normal" text-decoration="normal" x="237.033607777194" y="3010.0879120909985" text-anchor="start" dominant-baseline="alphabetic">ActiveModule(Helios_A10C)</text></g><g><path fill="none" stroke="black" paint-order="fill stroke markers" d=" M 452.75083671231766 3016.6219934109986 L 212.81245644421872 3016.6219934109986" stroke-miterlimit="10" stroke-width="1.3612669416666667" stroke-dasharray=""/><path fill="none" stroke="black" paint-order="fill stroke markers" d=" M 204.64485479421873 3008.4543917609985 L 220.98005809421872 3024.7895950609986 M 204.64485479421873 3024.7895950609986 L 220.98005809421872 3008.4543917609985" stroke-miterlimit="10" stroke-width="1.3612669416666667"/></g><g><g><rect fill="white" stroke="none" x="215.80724371588542" y="3041.1247983609987" width="146.6757532507422" height="21.23576429"/></g><text fill="black" stroke="none" font-family="sans-serif" font-size="11pt" font-style="normal" font-weight="normal" text-decoration="normal" x="218.2575242108854" y="3055.826481330999" text-anchor="start" dominant-baseline="alphabetic">Start(CaptZeenA10C)</text></g><g><path fill="none" stroke="black" paint-order="fill stroke markers" d=" M 196.47725314421874 3062.3605626509984 L 261.8180663442187 3062.3605626509984 L 261.8180663442187 3083.5963269409986 L 199.19978702755208 3083.5963269409986" stroke-miterlimit="10" stroke-width="1.3612669416666667" stroke-dasharray=""/><g transform="translate(196.47725314421874,3083.5963269409986) translate(-196.47725314421874,-3083.5963269409986)"><path fill="black" stroke="none" paint-order="stroke fill markers" d=" M 210.0899225608854 3076.789992232665 L 196.47725314421874 3083.5963269409986 L 210.0899225608854 3090.402661649332 Z"/></g></g><g><g><rect fill="white" stroke="none" x="256.99206446481116" y="3108.0991318909983" width="143.41156257691406" height="21.23576429"/></g><text fill="black" stroke="none" font-family="sans-serif" font-size="11pt" font-style="normal" font-weight="normal" text-decoration="normal" x="259.4423449598112" y="3122.8008148609983" text-anchor="start" dominant-baseline="alphabetic">ActiveVehicle(A-10C)</text></g><g><path fill="none" stroke="black" paint-order="fill stroke markers" d=" M 452.75083671231766 3129.3348961809984 L 212.81245644421872 3129.3348961809984" stroke-miterlimit="10" stroke-width="1.3612669416666667" stroke-dasharray=""/><path fill="none" stroke="black" paint-order="fill stroke markers" d=" M 204.64485479421873 3121.1672945309983 L 220.98005809421872 3137.5024978309984 M 204.64485479421873 3137.5024978309984 L 220.98005809421872 3121.1672945309983" stroke-miterlimit="10" stroke-width="1.3612669416666667"/></g><path fill="white" stroke="black" paint-order="fill stroke markers" d=" M 123.22861213994139 3153.8377011309985 L 255.02421117849607 3153.8377011309985 L 269.7258941484961 3168.5393841009986 L 269.7258941484961 3191.4086687209983 L 123.22861213994139 3191.4086687209983 L 123.22861213994139 3153.8377011309985 M 255.02421117849607 3153.8377011309985 L 255.02421117849607 3168.5393841009986 L 269.7258941484961 3168.5393841009986" stroke-miterlimit="10" stroke-width="1.3612669416666667" stroke-dasharray=""/><g><text fill="black" stroke="none" font-family="sans-serif" font-size="11pt" font-style="normal" font-weight="normal" text-decoration="normal" x="146.0978967599414" y="3176.7069857509987" text-anchor="start" dominant-baseline="alphabetic">Works as today</text></g><g><g><rect fill="white" stroke="none" x="472.0808272839843" y="3284.5193275309985" width="196.39651741089844" height="21.23576429"/></g><text fill="black" stroke="none" font-family="sans-serif" font-size="11pt" font-style="normal" font-weight="normal" text-decoration="normal" x="474.53110777898434" y="3299.2210105009985" text-anchor="start" dominant-baseline="alphabetic">EnterVehicle(FA-18C_hornet)</text></g><g><path fill="none" stroke="black" paint-order="fill stroke markers" d=" M 452.75083671231766 3305.755091820998 L 518.0916499123176 3305.755091820998 L 518.0916499123176 3326.9908561109983 L 455.473370595651 3326.9908561109983" stroke-miterlimit="10" stroke-width="1.3612669416666667" stroke-dasharray=""/><g transform="translate(452.75083671231766,3326.9908561109983) translate(-452.75083671231766,-3326.9908561109983)"><path fill="black" stroke="none" paint-order="stroke fill markers" d=" M 466.36350612898434 3320.184521402665 L 452.75083671231766 3326.9908561109983 L 466.36350612898434 3333.7971908193317 Z"/></g></g><g><g><rect fill="white" stroke="none" x="228.0586461908854" y="3351.493661060998" width="201.27839912476563" height="21.23576429"/></g><text fill="black" stroke="none" font-family="sans-serif" font-size="11pt" font-style="normal" font-weight="normal" text-decoration="normal" x="230.5089266858854" y="3366.195344030998" text-anchor="start" dominant-baseline="alphabetic">ActiveVehicle(FA-18C_hornet)</text></g><g><path fill="none" stroke="black" paint-order="fill stroke markers" d=" M 452.75083671231766 3372.729425350998 L 212.81245644421872 3372.729425350998" stroke-miterlimit="10" stroke-width="1.3612669416666667" stroke-dasharray=""/><path fill="none" stroke="black" paint-order="fill stroke markers" d=" M 204.64485479421873 3364.561823700998 L 220.98005809421872 3380.897027000998 M 204.64485479421873 3380.897027000998 L 220.98005809421872 3364.561823700998" stroke-miterlimit="10" stroke-width="1.3612669416666667"/></g><g><g><rect fill="white" stroke="none" x="472.0808272839843" y="3397.2322303009983" width="194.77879585328125" height="21.23576429"/></g><text fill="black" stroke="none" font-family="sans-serif" font-size="11pt" font-style="normal" font-weight="normal" text-decoration="normal" x="474.53110777898434" y="3411.9339132709983" text-anchor="start" dominant-baseline="alphabetic">LoadModule(FA-18C_hornet)</text></g><g><path fill="none" stroke="black" paint-order="fill stroke markers" d=" M 452.75083671231766 3418.467994590998 L 518.0916499123176 3418.467994590998 L 518.0916499123176 3439.703758880998 L 469.08604001231765 3439.703758880998" stroke-miterlimit="10" stroke-width="1.3612669416666667" stroke-dasharray=""/><path fill="none" stroke="black" paint-order="fill stroke markers" d=" M 460.91843836231766 3431.536157230998 L 477.25364166231765 3447.871360530998 M 460.91843836231766 3447.871360530998 L 477.25364166231765 3431.536157230998" stroke-miterlimit="10" stroke-width="1.3612669416666667"/></g><path fill="white" stroke="black" paint-order="fill stroke markers" d=" M 247.35835873294266 3464.206563830998 L 643.4416317216927 3464.206563830998 L 658.1433146916927 3478.9082468009983 L 658.1433146916927 3501.777531420998 L 247.35835873294266 3501.777531420998 L 247.35835873294266 3464.206563830998 M 643.4416317216927 3464.206563830998 L 643.4416317216927 3478.9082468009983 L 658.1433146916927 3478.9082468009983" stroke-miterlimit="10" stroke-width="1.3612669416666667" stroke-dasharray=""/><g><text fill="black" stroke="none" font-family="sans-serif" font-size="11pt" font-style="normal" font-weight="normal" text-decoration="normal" x="270.22764335294266" y="3487.0758484509984" text-anchor="start" dominant-baseline="alphabetic">must not have matching module installed for this to work</text></g><g><g><rect fill="white" stroke="none" x="472.0808272839843" y="3526.280336370998" width="185.78808845582031" height="21.23576429"/></g><text fill="black" stroke="none" font-family="sans-serif" font-size="11pt" font-style="normal" font-weight="normal" text-decoration="normal" x="474.53110777898434" y="3540.9820193409982" text-anchor="start" dominant-baseline="alphabetic">LoadDriver(FA-18C_hornet)</text></g><g><path fill="none" stroke="black" paint-order="fill stroke markers" d=" M 452.75083671231766 3547.516100660998 L 518.0916499123176 3547.516100660998 L 518.0916499123176 3568.751864950998 L 455.473370595651 3568.751864950998" stroke-miterlimit="10" stroke-width="1.3612669416666667" stroke-dasharray=""/><g transform="translate(452.75083671231766,3568.751864950998) translate(-452.75083671231766,-3568.751864950998)"><path fill="black" stroke="none" paint-order="stroke fill markers" d=" M 466.36350612898434 3561.9455302426645 L 452.75083671231766 3568.751864950998 L 466.36350612898434 3575.5581996593314 Z"/></g></g><g><g><rect fill="white" stroke="none" x="232.14955042672526" y="3593.2546699009977" width="193.09659065308594" height="21.23576429"/></g><text fill="black" stroke="none" font-family="sans-serif" font-size="11pt" font-style="normal" font-weight="normal" text-decoration="normal" x="234.59983092172524" y="3607.9563528709978" text-anchor="start" dominant-baseline="alphabetic">ActiveDriver(FA-18C_hornet)</text></g><g><path fill="none" stroke="black" paint-order="fill stroke markers" d=" M 452.75083671231766 3614.490434190998 L 212.81245644421872 3614.490434190998" stroke-miterlimit="10" stroke-width="1.3612669416666667" stroke-dasharray=""/><path fill="none" stroke="black" paint-order="fill stroke markers" d=" M 204.64485479421873 3606.3228325409978 L 220.98005809421872 3622.658035840998 M 204.64485479421873 3622.658035840998 L 220.98005809421872 3606.3228325409978" stroke-miterlimit="10" stroke-width="1.3612669416666667"/></g><g><g><rect fill="white" stroke="none" x="215.80724371588542" y="3638.993239140998" width="191.48602546753906" height="21.23576429"/></g><text fill="black" stroke="none" font-family="sans-serif" font-size="11pt" font-style="normal" font-weight="normal" text-decoration="normal" x="218.2575242108854" y="3653.694922110998" text-anchor="start" dominant-baseline="alphabetic">Start(my_F18_profile_name)</text></g><g><path fill="none" stroke="black" paint-order="fill stroke markers" d=" M 196.47725314421874 3660.2290034309976 L 261.8180663442187 3660.2290034309976 L 261.8180663442187 3681.4647677209978 L 199.19978702755208 3681.4647677209978" stroke-miterlimit="10" stroke-width="1.3612669416666667" stroke-dasharray=""/><g transform="translate(196.47725314421874,3681.4647677209978) translate(-196.47725314421874,-3681.4647677209978)"><path fill="black" stroke="none" paint-order="stroke fill markers" d=" M 210.0899225608854 3674.6584330126643 L 196.47725314421874 3681.4647677209978 L 210.0899225608854 3688.271102429331 Z"/></g></g><g><g><rect fill="white" stroke="none" x="256.99206446481116" y="3705.9675726709975" width="143.41156257691406" height="21.23576429"/></g><text fill="black" stroke="none" font-family="sans-serif" font-size="11pt" font-style="normal" font-weight="normal" text-decoration="normal" x="259.4423449598112" y="3720.6692556409976" text-anchor="start" dominant-baseline="alphabetic">ActiveVehicle(A-10C)</text></g><g><path fill="none" stroke="black" paint-order="fill stroke markers" d=" M 452.75083671231766 3727.2033369609976 L 212.81245644421872 3727.2033369609976" stroke-miterlimit="10" stroke-width="1.3612669416666667" stroke-dasharray=""/><path fill="none" stroke="black" paint-order="fill stroke markers" d=" M 204.64485479421873 3719.0357353109976 L 220.98005809421872 3735.3709386109977 M 204.64485479421873 3735.3709386109977 L 220.98005809421872 3719.0357353109976" stroke-miterlimit="10" stroke-width="1.3612669416666667"/></g><path fill="white" stroke="black" paint-order="fill stroke markers" d=" M 123.22861213994139 3751.7061419109978 L 255.02421117849607 3751.7061419109978 L 269.7258941484961 3766.407824880998 L 269.7258941484961 3789.2771095009975 L 123.22861213994139 3789.2771095009975 L 123.22861213994139 3751.7061419109978 M 255.02421117849607 3751.7061419109978 L 255.02421117849607 3766.407824880998 L 269.7258941484961 3766.407824880998" stroke-miterlimit="10" stroke-width="1.3612669416666667" stroke-dasharray=""/><g><text fill="black" stroke="none" font-family="sans-serif" font-size="11pt" font-style="normal" font-weight="normal" text-decoration="normal" x="146.0978967599414" y="3774.575426530998" text-anchor="start" dominant-baseline="alphabetic">Works as today</text></g><g><g><rect fill="white" stroke="none" x="472.0808272839843" y="3882.3877683109977" width="138.52968086304688" height="21.23576429"/></g><text fill="black" stroke="none" font-family="sans-serif" font-size="11pt" font-style="normal" font-weight="normal" text-decoration="normal" x="474.53110777898434" y="3897.0894512809978" text-anchor="start" dominant-baseline="alphabetic">EnterVehicle(A-10C)</text></g><g><path fill="none" stroke="black" paint-order="fill stroke markers" d=" M 452.75083671231766 3903.6235326009974 L 518.0916499123176 3903.6235326009974 L 518.0916499123176 3924.8592968909975 L 455.473370595651 3924.8592968909975" stroke-miterlimit="10" stroke-width="1.3612669416666667" stroke-dasharray=""/><g transform="translate(452.75083671231766,3924.8592968909975) translate(-452.75083671231766,-3924.8592968909975)"><path fill="black" stroke="none" paint-order="stroke fill markers" d=" M 466.36350612898434 3918.052962182664 L 452.75083671231766 3924.8592968909975 L 466.36350612898434 3931.665631599331 Z"/></g></g><g><g><rect fill="white" stroke="none" x="256.99206446481116" y="3949.362101840997" width="143.41156257691406" height="21.23576429"/></g><text fill="black" stroke="none" font-family="sans-serif" font-size="11pt" font-style="normal" font-weight="normal" text-decoration="normal" x="259.4423449598112" y="3964.0637848109973" text-anchor="start" dominant-baseline="alphabetic">ActiveVehicle(A-10C)</text></g><g><path fill="none" stroke="black" paint-order="fill stroke markers" d=" M 452.75083671231766 3970.5978661309973 L 212.81245644421872 3970.5978661309973" stroke-miterlimit="10" stroke-width="1.3612669416666667" stroke-dasharray=""/><path fill="none" stroke="black" paint-order="fill stroke markers" d=" M 204.64485479421873 3962.4302644809973 L 220.98005809421872 3978.7654677809974 M 204.64485479421873 3978.7654677809974 L 220.98005809421872 3962.4302644809973" stroke-miterlimit="10" stroke-width="1.3612669416666667"/></g><g><g><rect fill="white" stroke="none" x="472.0808272839843" y="3995.1006710809975" width="180.92053474488281" height="21.23576429"/></g><text fill="black" stroke="none" font-family="sans-serif" font-size="11pt" font-style="normal" font-weight="normal" text-decoration="normal" x="474.53110777898434" y="4009.8023540509976" text-anchor="start" dominant-baseline="alphabetic">LoadModule(Helios_A10C)</text></g><g><path fill="none" stroke="black" paint-order="fill stroke markers" d=" M 452.75083671231766 4016.336435370997 L 518.0916499123176 4016.336435370997 L 518.0916499123176 4037.5721996609973 L 455.473370595651 4037.5721996609973" stroke-miterlimit="10" stroke-width="1.3612669416666667" stroke-dasharray=""/><g transform="translate(452.75083671231766,4037.5721996609973) translate(-452.75083671231766,-4037.5721996609973)"><path fill="black" stroke="none" paint-order="stroke fill markers" d=" M 466.36350612898434 4030.765864952664 L 452.75083671231766 4037.5721996609973 L 466.36350612898434 4044.3785343693307 Z"/></g></g><g><g><rect fill="white" stroke="none" x="215.80724371588542" y="4062.0750046109974" width="191.48602546753906" height="21.23576429"/></g><text fill="black" stroke="none" font-family="sans-serif" font-size="11pt" font-style="normal" font-weight="normal" text-decoration="normal" x="218.2575242108854" y="4076.7766875809975" text-anchor="start" dominant-baseline="alphabetic">Start(my_F18_profile_name)</text></g><g><path fill="none" stroke="black" paint-order="fill stroke markers" d=" M 196.47725314421874 4083.310768900997 L 261.8180663442187 4083.310768900997 L 261.8180663442187 4104.546533190997 L 199.19978702755208 4104.546533190997" stroke-miterlimit="10" stroke-width="1.3612669416666667" stroke-dasharray=""/><g transform="translate(196.47725314421874,4104.546533190997) translate(-196.47725314421874,-4104.546533190997)"><path fill="black" stroke="none" paint-order="stroke fill markers" d=" M 210.0899225608854 4097.740198482664 L 196.47725314421874 4104.546533190997 L 210.0899225608854 4111.352867899331 Z"/></g></g><g><g><rect fill="white" stroke="none" x="256.99206446481116" y="4129.049338140998" width="143.41156257691406" height="21.23576429"/></g><text fill="black" stroke="none" font-family="sans-serif" font-size="11pt" font-style="normal" font-weight="normal" text-decoration="normal" x="259.4423449598112" y="4143.751021110998" text-anchor="start" dominant-baseline="alphabetic">ActiveVehicle(A-10C)</text></g><g><path fill="none" stroke="black" paint-order="fill stroke markers" d=" M 452.75083671231766 4150.2851024309975 L 212.81245644421872 4150.2851024309975" stroke-miterlimit="10" stroke-width="1.3612669416666667" stroke-dasharray=""/><path fill="none" stroke="black" paint-order="fill stroke markers" d=" M 204.64485479421873 4142.117500780998 L 220.98005809421872 4158.452704080997 M 204.64485479421873 4158.452704080997 L 220.98005809421872 4142.117500780998" stroke-miterlimit="10" stroke-width="1.3612669416666667"/></g><path fill="white" stroke="black" paint-order="fill stroke markers" d=" M 91.31022377324217 4174.787907380998 L 286.9425995451953 4174.787907380998 L 301.6442825151953 4189.489590350998 L 301.6442825151953 4212.358874970998 L 91.31022377324217 4212.358874970998 L 91.31022377324217 4174.787907380998 M 286.9425995451953 4174.787907380998 L 286.9425995451953 4189.489590350998 L 301.6442825151953 4189.489590350998" stroke-miterlimit="10" stroke-width="1.3612669416666667" stroke-dasharray=""/><g><text fill="black" stroke="none" font-family="sans-serif" font-size="11pt" font-style="normal" font-weight="normal" text-decoration="normal" x="114.17950839324217" y="4197.657192000998" text-anchor="start" dominant-baseline="alphabetic">Fails just as it does today</text></g><g><g/><path fill="none" stroke="black" paint-order="fill stroke markers" d=" M 16.33520329999999 128.55804997099997 L 662.7344302541796 128.55804997099997 L 662.7344302541796 844.0399545109998 L 16.33520329999999 844.0399545109998 L 16.33520329999999 128.55804997099997 Z" stroke-miterlimit="10" stroke-width="2.3336004714285714" stroke-dasharray=""/><path fill="white" stroke="black" paint-order="fill stroke markers" d=" M 16.33520329999999 128.55804997099997 L 16.33520329999999 148.16029393099998 L 221.72506180429687 148.16029393099998 L 231.52618378429688 138.35917195099998 L 231.52618378429688 128.55804997099997 L 16.33520329999999 128.55804997099997" stroke-miterlimit="10" stroke-width="2.3336004714285714" stroke-dasharray=""/><text fill="black" stroke="none" font-family="sans-serif" font-size="8.8pt" font-style="normal" font-weight="bold" text-decoration="normal" x="32.67040659999999" y="141.62621261099997" text-anchor="start" dominant-baseline="alphabetic">1: Helios using its own exports</text></g><g><g/><path fill="none" stroke="black" paint-order="fill stroke markers" d=" M 16.33520329999999 868.5427594609997 L 662.7344302541796 868.5427594609997 L 662.7344302541796 1584.0246640009998 L 16.33520329999999 1584.0246640009998 L 16.33520329999999 868.5427594609997 Z" stroke-miterlimit="10" stroke-width="2.3336004714285714" stroke-dasharray=""/><path fill="white" stroke="black" paint-order="fill stroke markers" d=" M 16.33520329999999 868.5427594609997 L 16.33520329999999 888.1450034209997 L 331.21825638437497 888.1450034209997 L 341.019378364375 878.3438814409997 L 341.019378364375 868.5427594609997 L 16.33520329999999 868.5427594609997" stroke-miterlimit="10" stroke-width="2.3336004714285714" stroke-dasharray=""/><text fill="black" stroke="none" font-family="sans-serif" font-size="8.8pt" font-style="normal" font-weight="bold" text-decoration="normal" x="32.67040659999999" y="881.6109221009997" text-anchor="start" dominant-baseline="alphabetic">1b: Helios using its own exports (CZ profile active)</text></g><g><g/><path fill="none" stroke="black" paint-order="fill stroke markers" d=" M 16.73962224531249 1608.527468951 L 658.7186831838671 1608.527468951 L 658.7186831838671 2165.557901481 L 16.73962224531249 2165.557901481 L 16.73962224531249 1608.527468951 Z" stroke-miterlimit="10" stroke-width="2.3336004714285714" stroke-dasharray=""/><path fill="white" stroke="black" paint-order="fill stroke markers" d=" M 16.73962224531249 1608.527468951 L 16.73962224531249 1628.1297129109998 L 231.90064469003906 1628.1297129109998 L 241.70176667003906 1618.328590931 L 241.70176667003906 1608.527468951 L 16.73962224531249 1608.527468951" stroke-miterlimit="10" stroke-width="2.3336004714285714" stroke-dasharray=""/><text fill="black" stroke="none" font-family="sans-serif" font-size="8.8pt" font-style="normal" font-weight="bold" text-decoration="normal" x="33.07482554531249" y="1621.5956315909998" text-anchor="start" dominant-baseline="alphabetic">2: Helios using Capt Zeen profile</text></g><g><g/><path fill="none" stroke="black" paint-order="fill stroke markers" d=" M 16.73962224531249 2190.0607064309997 L 658.7186831838671 2190.0607064309997 L 658.7186831838671 2747.091138960999 L 16.73962224531249 2747.091138960999 L 16.73962224531249 2190.0607064309997 Z" stroke-miterlimit="10" stroke-width="2.3336004714285714" stroke-dasharray=""/><path fill="white" stroke="black" paint-order="fill stroke markers" d=" M 16.73962224531249 2190.0607064309997 L 16.73962224531249 2209.662950391 L 293.1909431519531 2209.662950391 L 302.9920651319531 2199.861828411 L 302.9920651319531 2190.0607064309997 L 16.73962224531249 2190.0607064309997" stroke-miterlimit="10" stroke-width="2.3336004714285714" stroke-dasharray=""/><text fill="black" stroke="none" font-family="sans-serif" font-size="8.8pt" font-style="normal" font-weight="bold" text-decoration="normal" x="33.07482554531249" y="2203.128869071" text-anchor="start" dominant-baseline="alphabetic">2b: Helios active profile is Capt Zeen profile</text></g><g><g/><path fill="none" stroke="black" paint-order="fill stroke markers" d=" M 115.0610104899414 2771.593943910999 L 658.7186831838671 2771.593943910999 L 658.7186831838671 3215.9114736709985 L 115.0610104899414 3215.9114736709985 L 115.0610104899414 2771.593943910999 Z" stroke-miterlimit="10" stroke-width="2.3336004714285714" stroke-dasharray=""/><path fill="white" stroke="black" paint-order="fill stroke markers" d=" M 115.0610104899414 2771.593943910999 L 115.0610104899414 2791.196187870999 L 386.27740708017575 2791.196187870999 L 396.07852906017575 2781.395065890999 L 396.07852906017575 2771.593943910999 L 115.0610104899414 2771.593943910999" stroke-miterlimit="10" stroke-width="2.3336004714285714" stroke-dasharray=""/><text fill="black" stroke="none" font-family="sans-serif" font-size="8.8pt" font-style="normal" font-weight="bold" text-decoration="normal" x="131.39621378994138" y="2784.662106550999" text-anchor="start" dominant-baseline="alphabetic">3: Legacy Helios running Capt Zeen profile</text></g><g><g/><path fill="none" stroke="black" paint-order="fill stroke markers" d=" M 115.0610104899414 3240.414278620998 L 674.1946658498828 3240.414278620998 L 674.1946658498828 3813.7799144509977 L 115.0610104899414 3813.7799144509977 L 115.0610104899414 3240.414278620998 Z" stroke-miterlimit="10" stroke-width="2.3336004714285714" stroke-dasharray=""/><path fill="white" stroke="black" paint-order="fill stroke markers" d=" M 115.0610104899414 3240.414278620998 L 115.0610104899414 3260.0165225809983 L 444.2800621094726 3260.0165225809983 L 454.08118408947263 3250.2154006009982 L 454.08118408947263 3240.414278620998 L 115.0610104899414 3240.414278620998" stroke-miterlimit="10" stroke-width="2.3336004714285714" stroke-dasharray=""/><text fill="black" stroke="none" font-family="sans-serif" font-size="8.8pt" font-style="normal" font-weight="bold" text-decoration="normal" x="131.39621378994138" y="3253.4824412609983" text-anchor="start" dominant-baseline="alphabetic">4: Legacy Helios running Profile with its own Exports</text></g><g><g/><path fill="none" stroke="black" paint-order="fill stroke markers" d=" M 83.14262212324218 3838.2827194009974 L 658.7186831838671 3838.2827194009974 L 658.7186831838671 4236.861679920998 L 83.14262212324218 4236.861679920998 L 83.14262212324218 3838.2827194009974 Z" stroke-miterlimit="10" stroke-width="2.3336004714285714" stroke-dasharray=""/><path fill="white" stroke="black" paint-order="fill stroke markers" d=" M 83.14262212324218 3838.2827194009974 L 83.14262212324218 3857.8849633609975 L 345.8879951539062 3857.8849633609975 L 355.6891171339062 3848.0838413809975 L 355.6891171339062 3838.2827194009974 L 83.14262212324218 3838.2827194009974" stroke-miterlimit="10" stroke-width="2.3336004714285714" stroke-dasharray=""/><text fill="black" stroke="none" font-family="sans-serif" font-size="8.8pt" font-style="normal" font-weight="bold" text-decoration="normal" x="99.47782542324218" y="3851.3508820409975" text-anchor="start" dominant-baseline="alphabetic">100: Legacy Helios running wrong profile</text></g></g><g/><g/></g></svg>